<?xml version="1.0" encoding="utf-8" standalone="no"?>
<!DOCTYPE svg PUBLIC "-//W3C//DTD SVG 1.1//EN"
  "http://www.w3.org/Graphics/SVG/1.1/DTD/svg11.dtd">
<svg xmlns:xlink="http://www.w3.org/1999/xlink" width="479.02pt" height="297.190125pt" viewBox="0 0 479.02 297.190125" xmlns="http://www.w3.org/2000/svg" version="1.1">
 <metadata>
  <rdf:RDF xmlns:dc="http://purl.org/dc/elements/1.1/" xmlns:cc="http://creativecommons.org/ns#" xmlns:rdf="http://www.w3.org/1999/02/22-rdf-syntax-ns#">
   <cc:Work>
    <dc:type rdf:resource="http://purl.org/dc/dcmitype/StillImage"/>
    <dc:date>2023-12-25T17:48:56.580228</dc:date>
    <dc:format>image/svg+xml</dc:format>
    <dc:creator>
     <cc:Agent>
      <dc:title>Matplotlib v3.7.1, https://matplotlib.org/</dc:title>
     </cc:Agent>
    </dc:creator>
   </cc:Work>
  </rdf:RDF>
 </metadata>
 <defs>
  <style type="text/css">*{stroke-linejoin: round; stroke-linecap: butt}</style>
 </defs>
 <g id="figure_1">
  <g id="patch_1">
   <path d="M 0 297.190125 
L 479.02 297.190125 
L 479.02 0 
L 0 0 
z
" style="fill: #ffffff"/>
  </g>
  <g id="axes_1">
   <g id="patch_2">
    <path d="M 114.7 273.312 
L 471.82 273.312 
L 471.82 7.2 
L 114.7 7.2 
z
" style="fill: #ffffff"/>
   </g>
   <g id="matplotlib.axis_1">
    <g id="xtick_1">
     <g id="text_1">
      <!-- 0 -->
      <g style="fill: #262626" transform="translate(111.51875 287.910437) scale(0.1 -0.1)">
       <defs>
        <path id="DejaVuSans-30" d="M 2034 4250 
Q 1547 4250 1301 3770 
Q 1056 3291 1056 2328 
Q 1056 1369 1301 889 
Q 1547 409 2034 409 
Q 2525 409 2770 889 
Q 3016 1369 3016 2328 
Q 3016 3291 2770 3770 
Q 2525 4250 2034 4250 
z
M 2034 4750 
Q 2819 4750 3233 4129 
Q 3647 3509 3647 2328 
Q 3647 1150 3233 529 
Q 2819 -91 2034 -91 
Q 1250 -91 836 529 
Q 422 1150 422 2328 
Q 422 3509 836 4129 
Q 1250 4750 2034 4750 
z
" transform="scale(0.015625)"/>
       </defs>
       <use xlink:href="#DejaVuSans-30"/>
      </g>
     </g>
    </g>
    <g id="xtick_2">
     <g id="text_2">
      <!-- 5 -->
      <g style="fill: #262626" transform="translate(164.661607 287.910437) scale(0.1 -0.1)">
       <defs>
        <path id="DejaVuSans-35" d="M 691 4666 
L 3169 4666 
L 3169 4134 
L 1269 4134 
L 1269 2991 
Q 1406 3038 1543 3061 
Q 1681 3084 1819 3084 
Q 2600 3084 3056 2656 
Q 3513 2228 3513 1497 
Q 3513 744 3044 326 
Q 2575 -91 1722 -91 
Q 1428 -91 1123 -41 
Q 819 9 494 109 
L 494 744 
Q 775 591 1075 516 
Q 1375 441 1709 441 
Q 2250 441 2565 725 
Q 2881 1009 2881 1497 
Q 2881 1984 2565 2268 
Q 2250 2553 1709 2553 
Q 1456 2553 1204 2497 
Q 953 2441 691 2322 
L 691 4666 
z
" transform="scale(0.015625)"/>
       </defs>
       <use xlink:href="#DejaVuSans-35"/>
      </g>
     </g>
    </g>
    <g id="xtick_3">
     <g id="text_3">
      <!-- 10 -->
      <g style="fill: #262626" transform="translate(214.623214 287.910437) scale(0.1 -0.1)">
       <defs>
        <path id="DejaVuSans-31" d="M 794 531 
L 1825 531 
L 1825 4091 
L 703 3866 
L 703 4441 
L 1819 4666 
L 2450 4666 
L 2450 531 
L 3481 531 
L 3481 0 
L 794 0 
L 794 531 
z
" transform="scale(0.015625)"/>
       </defs>
       <use xlink:href="#DejaVuSans-31"/>
       <use xlink:href="#DejaVuSans-30" x="63.623047"/>
      </g>
     </g>
    </g>
    <g id="xtick_4">
     <g id="text_4">
      <!-- 15 -->
      <g style="fill: #262626" transform="translate(267.766071 287.910437) scale(0.1 -0.1)">
       <use xlink:href="#DejaVuSans-31"/>
       <use xlink:href="#DejaVuSans-35" x="63.623047"/>
      </g>
     </g>
    </g>
    <g id="xtick_5">
     <g id="text_5">
      <!-- 20 -->
      <g style="fill: #262626" transform="translate(320.908929 287.910437) scale(0.1 -0.1)">
       <defs>
        <path id="DejaVuSans-32" d="M 1228 531 
L 3431 531 
L 3431 0 
L 469 0 
L 469 531 
Q 828 903 1448 1529 
Q 2069 2156 2228 2338 
Q 2531 2678 2651 2914 
Q 2772 3150 2772 3378 
Q 2772 3750 2511 3984 
Q 2250 4219 1831 4219 
Q 1534 4219 1204 4116 
Q 875 4013 500 3803 
L 500 4441 
Q 881 4594 1212 4672 
Q 1544 4750 1819 4750 
Q 2544 4750 2975 4387 
Q 3406 4025 3406 3419 
Q 3406 3131 3298 2873 
Q 3191 2616 2906 2266 
Q 2828 2175 2409 1742 
Q 1991 1309 1228 531 
z
" transform="scale(0.015625)"/>
       </defs>
       <use xlink:href="#DejaVuSans-32"/>
       <use xlink:href="#DejaVuSans-30" x="63.623047"/>
      </g>
     </g>
    </g>
    <g id="xtick_6">
     <g id="text_6">
      <!-- 25 -->
      <g style="fill: #262626" transform="translate(374.051786 287.910437) scale(0.1 -0.1)">
       <use xlink:href="#DejaVuSans-32"/>
       <use xlink:href="#DejaVuSans-35" x="63.623047"/>
      </g>
     </g>
    </g>
    <g id="xtick_7">
     <g id="text_7">
      <!-- 30 -->
      <g style="fill: #262626" transform="translate(427.194643 287.910437) scale(0.1 -0.1)">
       <defs>
        <path id="DejaVuSans-33" d="M 2597 2516 
Q 3050 2419 3304 2112 
Q 3559 1806 3559 1356 
Q 3559 666 3084 287 
Q 2609 -91 1734 -91 
Q 1441 -91 1130 -33 
Q 819 25 488 141 
L 488 750 
Q 750 597 1062 519 
Q 1375 441 1716 441 
Q 2309 441 2620 675 
Q 2931 909 2931 1356 
Q 2931 1769 2642 2001 
Q 2353 2234 1838 2234 
L 1294 2234 
L 1294 2753 
L 1863 2753 
Q 2328 2753 2575 2939 
Q 2822 3125 2822 3475 
Q 2822 3834 2567 4026 
Q 2313 4219 1838 4219 
Q 1578 4219 1281 4162 
Q 984 4106 628 3988 
L 628 4550 
Q 988 4650 1302 4700 
Q 1616 4750 1894 4750 
Q 2613 4750 3031 4423 
Q 3450 4097 3450 3541 
Q 3450 3153 3228 2886 
Q 3006 2619 2597 2516 
z
" transform="scale(0.015625)"/>
       </defs>
       <use xlink:href="#DejaVuSans-33"/>
       <use xlink:href="#DejaVuSans-30" x="63.623047"/>
      </g>
     </g>
    </g>
   </g>
   <g id="matplotlib.axis_2">
    <g id="ytick_1">
     <g id="text_8">
      <!-- good at leaving -->
      <g style="fill: #262626" transform="translate(29.91875 270.458419) scale(0.1 -0.1)">
       <defs>
        <path id="DejaVuSans-67" d="M 2906 1791 
Q 2906 2416 2648 2759 
Q 2391 3103 1925 3103 
Q 1463 3103 1205 2759 
Q 947 2416 947 1791 
Q 947 1169 1205 825 
Q 1463 481 1925 481 
Q 2391 481 2648 825 
Q 2906 1169 2906 1791 
z
M 3481 434 
Q 3481 -459 3084 -895 
Q 2688 -1331 1869 -1331 
Q 1566 -1331 1297 -1286 
Q 1028 -1241 775 -1147 
L 775 -588 
Q 1028 -725 1275 -790 
Q 1522 -856 1778 -856 
Q 2344 -856 2625 -561 
Q 2906 -266 2906 331 
L 2906 616 
Q 2728 306 2450 153 
Q 2172 0 1784 0 
Q 1141 0 747 490 
Q 353 981 353 1791 
Q 353 2603 747 3093 
Q 1141 3584 1784 3584 
Q 2172 3584 2450 3431 
Q 2728 3278 2906 2969 
L 2906 3500 
L 3481 3500 
L 3481 434 
z
" transform="scale(0.015625)"/>
        <path id="DejaVuSans-6f" d="M 1959 3097 
Q 1497 3097 1228 2736 
Q 959 2375 959 1747 
Q 959 1119 1226 758 
Q 1494 397 1959 397 
Q 2419 397 2687 759 
Q 2956 1122 2956 1747 
Q 2956 2369 2687 2733 
Q 2419 3097 1959 3097 
z
M 1959 3584 
Q 2709 3584 3137 3096 
Q 3566 2609 3566 1747 
Q 3566 888 3137 398 
Q 2709 -91 1959 -91 
Q 1206 -91 779 398 
Q 353 888 353 1747 
Q 353 2609 779 3096 
Q 1206 3584 1959 3584 
z
" transform="scale(0.015625)"/>
        <path id="DejaVuSans-64" d="M 2906 2969 
L 2906 4863 
L 3481 4863 
L 3481 0 
L 2906 0 
L 2906 525 
Q 2725 213 2448 61 
Q 2172 -91 1784 -91 
Q 1150 -91 751 415 
Q 353 922 353 1747 
Q 353 2572 751 3078 
Q 1150 3584 1784 3584 
Q 2172 3584 2448 3432 
Q 2725 3281 2906 2969 
z
M 947 1747 
Q 947 1113 1208 752 
Q 1469 391 1925 391 
Q 2381 391 2643 752 
Q 2906 1113 2906 1747 
Q 2906 2381 2643 2742 
Q 2381 3103 1925 3103 
Q 1469 3103 1208 2742 
Q 947 2381 947 1747 
z
" transform="scale(0.015625)"/>
        <path id="DejaVuSans-20" transform="scale(0.015625)"/>
        <path id="DejaVuSans-61" d="M 2194 1759 
Q 1497 1759 1228 1600 
Q 959 1441 959 1056 
Q 959 750 1161 570 
Q 1363 391 1709 391 
Q 2188 391 2477 730 
Q 2766 1069 2766 1631 
L 2766 1759 
L 2194 1759 
z
M 3341 1997 
L 3341 0 
L 2766 0 
L 2766 531 
Q 2569 213 2275 61 
Q 1981 -91 1556 -91 
Q 1019 -91 701 211 
Q 384 513 384 1019 
Q 384 1609 779 1909 
Q 1175 2209 1959 2209 
L 2766 2209 
L 2766 2266 
Q 2766 2663 2505 2880 
Q 2244 3097 1772 3097 
Q 1472 3097 1187 3025 
Q 903 2953 641 2809 
L 641 3341 
Q 956 3463 1253 3523 
Q 1550 3584 1831 3584 
Q 2591 3584 2966 3190 
Q 3341 2797 3341 1997 
z
" transform="scale(0.015625)"/>
        <path id="DejaVuSans-74" d="M 1172 4494 
L 1172 3500 
L 2356 3500 
L 2356 3053 
L 1172 3053 
L 1172 1153 
Q 1172 725 1289 603 
Q 1406 481 1766 481 
L 2356 481 
L 2356 0 
L 1766 0 
Q 1100 0 847 248 
Q 594 497 594 1153 
L 594 3053 
L 172 3053 
L 172 3500 
L 594 3500 
L 594 4494 
L 1172 4494 
z
" transform="scale(0.015625)"/>
        <path id="DejaVuSans-6c" d="M 603 4863 
L 1178 4863 
L 1178 0 
L 603 0 
L 603 4863 
z
" transform="scale(0.015625)"/>
        <path id="DejaVuSans-65" d="M 3597 1894 
L 3597 1613 
L 953 1613 
Q 991 1019 1311 708 
Q 1631 397 2203 397 
Q 2534 397 2845 478 
Q 3156 559 3463 722 
L 3463 178 
Q 3153 47 2828 -22 
Q 2503 -91 2169 -91 
Q 1331 -91 842 396 
Q 353 884 353 1716 
Q 353 2575 817 3079 
Q 1281 3584 2069 3584 
Q 2775 3584 3186 3129 
Q 3597 2675 3597 1894 
z
M 3022 2063 
Q 3016 2534 2758 2815 
Q 2500 3097 2075 3097 
Q 1594 3097 1305 2825 
Q 1016 2553 972 2059 
L 3022 2063 
z
" transform="scale(0.015625)"/>
        <path id="DejaVuSans-76" d="M 191 3500 
L 800 3500 
L 1894 563 
L 2988 3500 
L 3597 3500 
L 2284 0 
L 1503 0 
L 191 3500 
z
" transform="scale(0.015625)"/>
        <path id="DejaVuSans-69" d="M 603 3500 
L 1178 3500 
L 1178 0 
L 603 0 
L 603 3500 
z
M 603 4863 
L 1178 4863 
L 1178 4134 
L 603 4134 
L 603 4863 
z
" transform="scale(0.015625)"/>
        <path id="DejaVuSans-6e" d="M 3513 2113 
L 3513 0 
L 2938 0 
L 2938 2094 
Q 2938 2591 2744 2837 
Q 2550 3084 2163 3084 
Q 1697 3084 1428 2787 
Q 1159 2491 1159 1978 
L 1159 0 
L 581 0 
L 581 3500 
L 1159 3500 
L 1159 2956 
Q 1366 3272 1645 3428 
Q 1925 3584 2291 3584 
Q 2894 3584 3203 3211 
Q 3513 2838 3513 2113 
z
" transform="scale(0.015625)"/>
       </defs>
       <use xlink:href="#DejaVuSans-67"/>
       <use xlink:href="#DejaVuSans-6f" x="63.476562"/>
       <use xlink:href="#DejaVuSans-6f" x="124.658203"/>
       <use xlink:href="#DejaVuSans-64" x="185.839844"/>
       <use xlink:href="#DejaVuSans-20" x="249.316406"/>
       <use xlink:href="#DejaVuSans-61" x="281.103516"/>
       <use xlink:href="#DejaVuSans-74" x="342.382812"/>
       <use xlink:href="#DejaVuSans-20" x="381.591797"/>
       <use xlink:href="#DejaVuSans-6c" x="413.378906"/>
       <use xlink:href="#DejaVuSans-65" x="441.162109"/>
       <use xlink:href="#DejaVuSans-61" x="502.685547"/>
       <use xlink:href="#DejaVuSans-76" x="563.964844"/>
       <use xlink:href="#DejaVuSans-69" x="623.144531"/>
       <use xlink:href="#DejaVuSans-6e" x="650.927734"/>
       <use xlink:href="#DejaVuSans-67" x="714.306641"/>
      </g>
     </g>
    </g>
    <g id="ytick_2">
     <g id="text_9">
      <!-- nothing without you -->
      <g style="fill: #262626" transform="translate(7.2 257.152819) scale(0.1 -0.1)">
       <defs>
        <path id="DejaVuSans-68" d="M 3513 2113 
L 3513 0 
L 2938 0 
L 2938 2094 
Q 2938 2591 2744 2837 
Q 2550 3084 2163 3084 
Q 1697 3084 1428 2787 
Q 1159 2491 1159 1978 
L 1159 0 
L 581 0 
L 581 4863 
L 1159 4863 
L 1159 2956 
Q 1366 3272 1645 3428 
Q 1925 3584 2291 3584 
Q 2894 3584 3203 3211 
Q 3513 2838 3513 2113 
z
" transform="scale(0.015625)"/>
        <path id="DejaVuSans-77" d="M 269 3500 
L 844 3500 
L 1563 769 
L 2278 3500 
L 2956 3500 
L 3675 769 
L 4391 3500 
L 4966 3500 
L 4050 0 
L 3372 0 
L 2619 2869 
L 1863 0 
L 1184 0 
L 269 3500 
z
" transform="scale(0.015625)"/>
        <path id="DejaVuSans-75" d="M 544 1381 
L 544 3500 
L 1119 3500 
L 1119 1403 
Q 1119 906 1312 657 
Q 1506 409 1894 409 
Q 2359 409 2629 706 
Q 2900 1003 2900 1516 
L 2900 3500 
L 3475 3500 
L 3475 0 
L 2900 0 
L 2900 538 
Q 2691 219 2414 64 
Q 2138 -91 1772 -91 
Q 1169 -91 856 284 
Q 544 659 544 1381 
z
M 1991 3584 
L 1991 3584 
z
" transform="scale(0.015625)"/>
        <path id="DejaVuSans-79" d="M 2059 -325 
Q 1816 -950 1584 -1140 
Q 1353 -1331 966 -1331 
L 506 -1331 
L 506 -850 
L 844 -850 
Q 1081 -850 1212 -737 
Q 1344 -625 1503 -206 
L 1606 56 
L 191 3500 
L 800 3500 
L 1894 763 
L 2988 3500 
L 3597 3500 
L 2059 -325 
z
" transform="scale(0.015625)"/>
       </defs>
       <use xlink:href="#DejaVuSans-6e"/>
       <use xlink:href="#DejaVuSans-6f" x="63.378906"/>
       <use xlink:href="#DejaVuSans-74" x="124.560547"/>
       <use xlink:href="#DejaVuSans-68" x="163.769531"/>
       <use xlink:href="#DejaVuSans-69" x="227.148438"/>
       <use xlink:href="#DejaVuSans-6e" x="254.931641"/>
       <use xlink:href="#DejaVuSans-67" x="318.310547"/>
       <use xlink:href="#DejaVuSans-20" x="381.787109"/>
       <use xlink:href="#DejaVuSans-77" x="413.574219"/>
       <use xlink:href="#DejaVuSans-69" x="495.361328"/>
       <use xlink:href="#DejaVuSans-74" x="523.144531"/>
       <use xlink:href="#DejaVuSans-68" x="562.353516"/>
       <use xlink:href="#DejaVuSans-6f" x="625.732422"/>
       <use xlink:href="#DejaVuSans-75" x="686.914062"/>
       <use xlink:href="#DejaVuSans-74" x="750.292969"/>
       <use xlink:href="#DejaVuSans-20" x="789.501953"/>
       <use xlink:href="#DejaVuSans-79" x="821.289062"/>
       <use xlink:href="#DejaVuSans-6f" x="880.46875"/>
       <use xlink:href="#DejaVuSans-75" x="941.650391"/>
      </g>
     </g>
    </g>
    <g id="ytick_3">
     <g id="text_10">
      <!-- too good at -->
      <g style="fill: #262626" transform="translate(50.203125 243.847219) scale(0.1 -0.1)">
       <use xlink:href="#DejaVuSans-74"/>
       <use xlink:href="#DejaVuSans-6f" x="39.208984"/>
       <use xlink:href="#DejaVuSans-6f" x="100.390625"/>
       <use xlink:href="#DejaVuSans-20" x="161.572266"/>
       <use xlink:href="#DejaVuSans-67" x="193.359375"/>
       <use xlink:href="#DejaVuSans-6f" x="256.835938"/>
       <use xlink:href="#DejaVuSans-6f" x="318.017578"/>
       <use xlink:href="#DejaVuSans-64" x="379.199219"/>
       <use xlink:href="#DejaVuSans-20" x="442.675781"/>
       <use xlink:href="#DejaVuSans-61" x="474.462891"/>
       <use xlink:href="#DejaVuSans-74" x="535.742188"/>
      </g>
     </g>
    </g>
    <g id="ytick_4">
     <g id="text_11">
      <!-- im too good -->
      <g style="fill: #262626" transform="translate(47.732812 230.541619) scale(0.1 -0.1)">
       <defs>
        <path id="DejaVuSans-6d" d="M 3328 2828 
Q 3544 3216 3844 3400 
Q 4144 3584 4550 3584 
Q 5097 3584 5394 3201 
Q 5691 2819 5691 2113 
L 5691 0 
L 5113 0 
L 5113 2094 
Q 5113 2597 4934 2840 
Q 4756 3084 4391 3084 
Q 3944 3084 3684 2787 
Q 3425 2491 3425 1978 
L 3425 0 
L 2847 0 
L 2847 2094 
Q 2847 2600 2669 2842 
Q 2491 3084 2119 3084 
Q 1678 3084 1418 2786 
Q 1159 2488 1159 1978 
L 1159 0 
L 581 0 
L 581 3500 
L 1159 3500 
L 1159 2956 
Q 1356 3278 1631 3431 
Q 1906 3584 2284 3584 
Q 2666 3584 2933 3390 
Q 3200 3197 3328 2828 
z
" transform="scale(0.015625)"/>
       </defs>
       <use xlink:href="#DejaVuSans-69"/>
       <use xlink:href="#DejaVuSans-6d" x="27.783203"/>
       <use xlink:href="#DejaVuSans-20" x="125.195312"/>
       <use xlink:href="#DejaVuSans-74" x="156.982422"/>
       <use xlink:href="#DejaVuSans-6f" x="196.191406"/>
       <use xlink:href="#DejaVuSans-6f" x="257.373047"/>
       <use xlink:href="#DejaVuSans-20" x="318.554688"/>
       <use xlink:href="#DejaVuSans-67" x="350.341797"/>
       <use xlink:href="#DejaVuSans-6f" x="413.818359"/>
       <use xlink:href="#DejaVuSans-6f" x="475"/>
       <use xlink:href="#DejaVuSans-64" x="536.181641"/>
      </g>
     </g>
    </g>
    <g id="ytick_5">
     <g id="text_12">
      <!-- let me know -->
      <g style="fill: #262626" transform="translate(46.173437 217.236019) scale(0.1 -0.1)">
       <defs>
        <path id="DejaVuSans-6b" d="M 581 4863 
L 1159 4863 
L 1159 1991 
L 2875 3500 
L 3609 3500 
L 1753 1863 
L 3688 0 
L 2938 0 
L 1159 1709 
L 1159 0 
L 581 0 
L 581 4863 
z
" transform="scale(0.015625)"/>
       </defs>
       <use xlink:href="#DejaVuSans-6c"/>
       <use xlink:href="#DejaVuSans-65" x="27.783203"/>
       <use xlink:href="#DejaVuSans-74" x="89.306641"/>
       <use xlink:href="#DejaVuSans-20" x="128.515625"/>
       <use xlink:href="#DejaVuSans-6d" x="160.302734"/>
       <use xlink:href="#DejaVuSans-65" x="257.714844"/>
       <use xlink:href="#DejaVuSans-20" x="319.238281"/>
       <use xlink:href="#DejaVuSans-6b" x="351.025391"/>
       <use xlink:href="#DejaVuSans-6e" x="408.935547"/>
       <use xlink:href="#DejaVuSans-6f" x="472.314453"/>
       <use xlink:href="#DejaVuSans-77" x="533.496094"/>
      </g>
     </g>
    </g>
    <g id="ytick_6">
     <g id="text_13">
      <!-- you and i -->
      <g style="fill: #262626" transform="translate(61.376562 203.930419) scale(0.1 -0.1)">
       <use xlink:href="#DejaVuSans-79"/>
       <use xlink:href="#DejaVuSans-6f" x="59.179688"/>
       <use xlink:href="#DejaVuSans-75" x="120.361328"/>
       <use xlink:href="#DejaVuSans-20" x="183.740234"/>
       <use xlink:href="#DejaVuSans-61" x="215.527344"/>
       <use xlink:href="#DejaVuSans-6e" x="276.806641"/>
       <use xlink:href="#DejaVuSans-64" x="340.185547"/>
       <use xlink:href="#DejaVuSans-20" x="403.662109"/>
       <use xlink:href="#DejaVuSans-69" x="435.449219"/>
      </g>
     </g>
    </g>
    <g id="ytick_7">
     <g id="text_14">
      <!-- we go wrong -->
      <g style="fill: #262626" transform="translate(43.676562 190.624819) scale(0.1 -0.1)">
       <defs>
        <path id="DejaVuSans-72" d="M 2631 2963 
Q 2534 3019 2420 3045 
Q 2306 3072 2169 3072 
Q 1681 3072 1420 2755 
Q 1159 2438 1159 1844 
L 1159 0 
L 581 0 
L 581 3500 
L 1159 3500 
L 1159 2956 
Q 1341 3275 1631 3429 
Q 1922 3584 2338 3584 
Q 2397 3584 2469 3576 
Q 2541 3569 2628 3553 
L 2631 2963 
z
" transform="scale(0.015625)"/>
       </defs>
       <use xlink:href="#DejaVuSans-77"/>
       <use xlink:href="#DejaVuSans-65" x="81.787109"/>
       <use xlink:href="#DejaVuSans-20" x="143.310547"/>
       <use xlink:href="#DejaVuSans-67" x="175.097656"/>
       <use xlink:href="#DejaVuSans-6f" x="238.574219"/>
       <use xlink:href="#DejaVuSans-20" x="299.755859"/>
       <use xlink:href="#DejaVuSans-77" x="331.542969"/>
       <use xlink:href="#DejaVuSans-72" x="413.330078"/>
       <use xlink:href="#DejaVuSans-6f" x="452.193359"/>
       <use xlink:href="#DejaVuSans-6e" x="513.375"/>
       <use xlink:href="#DejaVuSans-67" x="576.753906"/>
      </g>
     </g>
    </g>
    <g id="ytick_8">
     <g id="text_15">
      <!-- did we go -->
      <g style="fill: #262626" transform="translate(59.070312 177.319219) scale(0.1 -0.1)">
       <use xlink:href="#DejaVuSans-64"/>
       <use xlink:href="#DejaVuSans-69" x="63.476562"/>
       <use xlink:href="#DejaVuSans-64" x="91.259766"/>
       <use xlink:href="#DejaVuSans-20" x="154.736328"/>
       <use xlink:href="#DejaVuSans-77" x="186.523438"/>
       <use xlink:href="#DejaVuSans-65" x="268.310547"/>
       <use xlink:href="#DejaVuSans-20" x="329.833984"/>
       <use xlink:href="#DejaVuSans-67" x="361.621094"/>
       <use xlink:href="#DejaVuSans-6f" x="425.097656"/>
      </g>
     </g>
    </g>
    <g id="ytick_9">
     <g id="text_16">
      <!-- where did we -->
      <g style="fill: #262626" transform="translate(40.829687 164.013619) scale(0.1 -0.1)">
       <use xlink:href="#DejaVuSans-77"/>
       <use xlink:href="#DejaVuSans-68" x="81.787109"/>
       <use xlink:href="#DejaVuSans-65" x="145.166016"/>
       <use xlink:href="#DejaVuSans-72" x="206.689453"/>
       <use xlink:href="#DejaVuSans-65" x="245.552734"/>
       <use xlink:href="#DejaVuSans-20" x="307.076172"/>
       <use xlink:href="#DejaVuSans-64" x="338.863281"/>
       <use xlink:href="#DejaVuSans-69" x="402.339844"/>
       <use xlink:href="#DejaVuSans-64" x="430.123047"/>
       <use xlink:href="#DejaVuSans-20" x="493.599609"/>
       <use xlink:href="#DejaVuSans-77" x="525.386719"/>
       <use xlink:href="#DejaVuSans-65" x="607.173828"/>
      </g>
     </g>
    </g>
    <g id="ytick_10">
     <g id="text_17">
      <!-- quit running away -->
      <g style="fill: #262626" transform="translate(17.01875 150.708019) scale(0.1 -0.1)">
       <defs>
        <path id="DejaVuSans-71" d="M 947 1747 
Q 947 1113 1208 752 
Q 1469 391 1925 391 
Q 2381 391 2643 752 
Q 2906 1113 2906 1747 
Q 2906 2381 2643 2742 
Q 2381 3103 1925 3103 
Q 1469 3103 1208 2742 
Q 947 2381 947 1747 
z
M 2906 525 
Q 2725 213 2448 61 
Q 2172 -91 1784 -91 
Q 1150 -91 751 415 
Q 353 922 353 1747 
Q 353 2572 751 3078 
Q 1150 3584 1784 3584 
Q 2172 3584 2448 3432 
Q 2725 3281 2906 2969 
L 2906 3500 
L 3481 3500 
L 3481 -1331 
L 2906 -1331 
L 2906 525 
z
" transform="scale(0.015625)"/>
       </defs>
       <use xlink:href="#DejaVuSans-71"/>
       <use xlink:href="#DejaVuSans-75" x="63.476562"/>
       <use xlink:href="#DejaVuSans-69" x="126.855469"/>
       <use xlink:href="#DejaVuSans-74" x="154.638672"/>
       <use xlink:href="#DejaVuSans-20" x="193.847656"/>
       <use xlink:href="#DejaVuSans-72" x="225.634766"/>
       <use xlink:href="#DejaVuSans-75" x="266.748047"/>
       <use xlink:href="#DejaVuSans-6e" x="330.126953"/>
       <use xlink:href="#DejaVuSans-6e" x="393.505859"/>
       <use xlink:href="#DejaVuSans-69" x="456.884766"/>
       <use xlink:href="#DejaVuSans-6e" x="484.667969"/>
       <use xlink:href="#DejaVuSans-67" x="548.046875"/>
       <use xlink:href="#DejaVuSans-20" x="611.523438"/>
       <use xlink:href="#DejaVuSans-61" x="643.310547"/>
       <use xlink:href="#DejaVuSans-77" x="704.589844"/>
       <use xlink:href="#DejaVuSans-61" x="786.376953"/>
       <use xlink:href="#DejaVuSans-79" x="847.65625"/>
      </g>
     </g>
    </g>
    <g id="ytick_11">
     <g id="text_18">
      <!-- back to me -->
      <g style="fill: #262626" transform="translate(51.645312 137.402419) scale(0.1 -0.1)">
       <defs>
        <path id="DejaVuSans-62" d="M 3116 1747 
Q 3116 2381 2855 2742 
Q 2594 3103 2138 3103 
Q 1681 3103 1420 2742 
Q 1159 2381 1159 1747 
Q 1159 1113 1420 752 
Q 1681 391 2138 391 
Q 2594 391 2855 752 
Q 3116 1113 3116 1747 
z
M 1159 2969 
Q 1341 3281 1617 3432 
Q 1894 3584 2278 3584 
Q 2916 3584 3314 3078 
Q 3713 2572 3713 1747 
Q 3713 922 3314 415 
Q 2916 -91 2278 -91 
Q 1894 -91 1617 61 
Q 1341 213 1159 525 
L 1159 0 
L 581 0 
L 581 4863 
L 1159 4863 
L 1159 2969 
z
" transform="scale(0.015625)"/>
        <path id="DejaVuSans-63" d="M 3122 3366 
L 3122 2828 
Q 2878 2963 2633 3030 
Q 2388 3097 2138 3097 
Q 1578 3097 1268 2742 
Q 959 2388 959 1747 
Q 959 1106 1268 751 
Q 1578 397 2138 397 
Q 2388 397 2633 464 
Q 2878 531 3122 666 
L 3122 134 
Q 2881 22 2623 -34 
Q 2366 -91 2075 -91 
Q 1284 -91 818 406 
Q 353 903 353 1747 
Q 353 2603 823 3093 
Q 1294 3584 2113 3584 
Q 2378 3584 2631 3529 
Q 2884 3475 3122 3366 
z
" transform="scale(0.015625)"/>
       </defs>
       <use xlink:href="#DejaVuSans-62"/>
       <use xlink:href="#DejaVuSans-61" x="63.476562"/>
       <use xlink:href="#DejaVuSans-63" x="124.755859"/>
       <use xlink:href="#DejaVuSans-6b" x="179.736328"/>
       <use xlink:href="#DejaVuSans-20" x="237.646484"/>
       <use xlink:href="#DejaVuSans-74" x="269.433594"/>
       <use xlink:href="#DejaVuSans-6f" x="308.642578"/>
       <use xlink:href="#DejaVuSans-20" x="369.824219"/>
       <use xlink:href="#DejaVuSans-6d" x="401.611328"/>
       <use xlink:href="#DejaVuSans-65" x="499.023438"/>
      </g>
     </g>
    </g>
    <g id="ytick_12">
     <g id="text_19">
      <!-- than this i -->
      <g style="fill: #262626" transform="translate(57.596875 124.096819) scale(0.1 -0.1)">
       <defs>
        <path id="DejaVuSans-73" d="M 2834 3397 
L 2834 2853 
Q 2591 2978 2328 3040 
Q 2066 3103 1784 3103 
Q 1356 3103 1142 2972 
Q 928 2841 928 2578 
Q 928 2378 1081 2264 
Q 1234 2150 1697 2047 
L 1894 2003 
Q 2506 1872 2764 1633 
Q 3022 1394 3022 966 
Q 3022 478 2636 193 
Q 2250 -91 1575 -91 
Q 1294 -91 989 -36 
Q 684 19 347 128 
L 347 722 
Q 666 556 975 473 
Q 1284 391 1588 391 
Q 1994 391 2212 530 
Q 2431 669 2431 922 
Q 2431 1156 2273 1281 
Q 2116 1406 1581 1522 
L 1381 1569 
Q 847 1681 609 1914 
Q 372 2147 372 2553 
Q 372 3047 722 3315 
Q 1072 3584 1716 3584 
Q 2034 3584 2315 3537 
Q 2597 3491 2834 3397 
z
" transform="scale(0.015625)"/>
       </defs>
       <use xlink:href="#DejaVuSans-74"/>
       <use xlink:href="#DejaVuSans-68" x="39.208984"/>
       <use xlink:href="#DejaVuSans-61" x="102.587891"/>
       <use xlink:href="#DejaVuSans-6e" x="163.867188"/>
       <use xlink:href="#DejaVuSans-20" x="227.246094"/>
       <use xlink:href="#DejaVuSans-74" x="259.033203"/>
       <use xlink:href="#DejaVuSans-68" x="298.242188"/>
       <use xlink:href="#DejaVuSans-69" x="361.621094"/>
       <use xlink:href="#DejaVuSans-73" x="389.404297"/>
       <use xlink:href="#DejaVuSans-20" x="441.503906"/>
       <use xlink:href="#DejaVuSans-69" x="473.291016"/>
      </g>
     </g>
    </g>
    <g id="ytick_13">
     <g id="text_20">
      <!-- this i can -->
      <g style="fill: #262626" transform="translate(62.35625 110.791219) scale(0.1 -0.1)">
       <use xlink:href="#DejaVuSans-74"/>
       <use xlink:href="#DejaVuSans-68" x="39.208984"/>
       <use xlink:href="#DejaVuSans-69" x="102.587891"/>
       <use xlink:href="#DejaVuSans-73" x="130.371094"/>
       <use xlink:href="#DejaVuSans-20" x="182.470703"/>
       <use xlink:href="#DejaVuSans-69" x="214.257812"/>
       <use xlink:href="#DejaVuSans-20" x="242.041016"/>
       <use xlink:href="#DejaVuSans-63" x="273.828125"/>
       <use xlink:href="#DejaVuSans-61" x="328.808594"/>
       <use xlink:href="#DejaVuSans-6e" x="390.087891"/>
      </g>
     </g>
    </g>
    <g id="ytick_14">
     <g id="text_21">
      <!-- on the floor -->
      <g style="fill: #262626" transform="translate(49.829687 97.485619) scale(0.1 -0.1)">
       <defs>
        <path id="DejaVuSans-66" d="M 2375 4863 
L 2375 4384 
L 1825 4384 
Q 1516 4384 1395 4259 
Q 1275 4134 1275 3809 
L 1275 3500 
L 2222 3500 
L 2222 3053 
L 1275 3053 
L 1275 0 
L 697 0 
L 697 3053 
L 147 3053 
L 147 3500 
L 697 3500 
L 697 3744 
Q 697 4328 969 4595 
Q 1241 4863 1831 4863 
L 2375 4863 
z
" transform="scale(0.015625)"/>
       </defs>
       <use xlink:href="#DejaVuSans-6f"/>
       <use xlink:href="#DejaVuSans-6e" x="61.181641"/>
       <use xlink:href="#DejaVuSans-20" x="124.560547"/>
       <use xlink:href="#DejaVuSans-74" x="156.347656"/>
       <use xlink:href="#DejaVuSans-68" x="195.556641"/>
       <use xlink:href="#DejaVuSans-65" x="258.935547"/>
       <use xlink:href="#DejaVuSans-20" x="320.458984"/>
       <use xlink:href="#DejaVuSans-66" x="352.246094"/>
       <use xlink:href="#DejaVuSans-6c" x="387.451172"/>
       <use xlink:href="#DejaVuSans-6f" x="415.234375"/>
       <use xlink:href="#DejaVuSans-6f" x="476.416016"/>
       <use xlink:href="#DejaVuSans-72" x="537.597656"/>
      </g>
     </g>
    </g>
    <g id="ytick_15">
     <g id="text_22">
      <!-- better than this -->
      <g style="fill: #262626" transform="translate(29.76875 84.180019) scale(0.1 -0.1)">
       <use xlink:href="#DejaVuSans-62"/>
       <use xlink:href="#DejaVuSans-65" x="63.476562"/>
       <use xlink:href="#DejaVuSans-74" x="125"/>
       <use xlink:href="#DejaVuSans-74" x="164.208984"/>
       <use xlink:href="#DejaVuSans-65" x="203.417969"/>
       <use xlink:href="#DejaVuSans-72" x="264.941406"/>
       <use xlink:href="#DejaVuSans-20" x="306.054688"/>
       <use xlink:href="#DejaVuSans-74" x="337.841797"/>
       <use xlink:href="#DejaVuSans-68" x="377.050781"/>
       <use xlink:href="#DejaVuSans-61" x="440.429688"/>
       <use xlink:href="#DejaVuSans-6e" x="501.708984"/>
       <use xlink:href="#DejaVuSans-20" x="565.087891"/>
       <use xlink:href="#DejaVuSans-74" x="596.875"/>
       <use xlink:href="#DejaVuSans-68" x="636.083984"/>
       <use xlink:href="#DejaVuSans-69" x="699.462891"/>
       <use xlink:href="#DejaVuSans-73" x="727.246094"/>
      </g>
     </g>
    </g>
    <g id="ytick_16">
     <g id="text_23">
      <!-- change your mind -->
      <g style="fill: #262626" transform="translate(16.85 70.874419) scale(0.1 -0.1)">
       <use xlink:href="#DejaVuSans-63"/>
       <use xlink:href="#DejaVuSans-68" x="54.980469"/>
       <use xlink:href="#DejaVuSans-61" x="118.359375"/>
       <use xlink:href="#DejaVuSans-6e" x="179.638672"/>
       <use xlink:href="#DejaVuSans-67" x="243.017578"/>
       <use xlink:href="#DejaVuSans-65" x="306.494141"/>
       <use xlink:href="#DejaVuSans-20" x="368.017578"/>
       <use xlink:href="#DejaVuSans-79" x="399.804688"/>
       <use xlink:href="#DejaVuSans-6f" x="458.984375"/>
       <use xlink:href="#DejaVuSans-75" x="520.166016"/>
       <use xlink:href="#DejaVuSans-72" x="583.544922"/>
       <use xlink:href="#DejaVuSans-20" x="624.658203"/>
       <use xlink:href="#DejaVuSans-6d" x="656.445312"/>
       <use xlink:href="#DejaVuSans-69" x="753.857422"/>
       <use xlink:href="#DejaVuSans-6e" x="781.640625"/>
       <use xlink:href="#DejaVuSans-64" x="845.019531"/>
      </g>
     </g>
    </g>
    <g id="ytick_17">
     <g id="text_24">
      <!-- can do better -->
      <g style="fill: #262626" transform="translate(40.30625 57.568819) scale(0.1 -0.1)">
       <use xlink:href="#DejaVuSans-63"/>
       <use xlink:href="#DejaVuSans-61" x="54.980469"/>
       <use xlink:href="#DejaVuSans-6e" x="116.259766"/>
       <use xlink:href="#DejaVuSans-20" x="179.638672"/>
       <use xlink:href="#DejaVuSans-64" x="211.425781"/>
       <use xlink:href="#DejaVuSans-6f" x="274.902344"/>
       <use xlink:href="#DejaVuSans-20" x="336.083984"/>
       <use xlink:href="#DejaVuSans-62" x="367.871094"/>
       <use xlink:href="#DejaVuSans-65" x="431.347656"/>
       <use xlink:href="#DejaVuSans-74" x="492.871094"/>
       <use xlink:href="#DejaVuSans-74" x="532.080078"/>
       <use xlink:href="#DejaVuSans-65" x="571.289062"/>
       <use xlink:href="#DejaVuSans-72" x="632.8125"/>
      </g>
     </g>
    </g>
    <g id="ytick_18">
     <g id="text_25">
      <!-- do better than -->
      <g style="fill: #262626" transform="translate(35.546875 44.263219) scale(0.1 -0.1)">
       <use xlink:href="#DejaVuSans-64"/>
       <use xlink:href="#DejaVuSans-6f" x="63.476562"/>
       <use xlink:href="#DejaVuSans-20" x="124.658203"/>
       <use xlink:href="#DejaVuSans-62" x="156.445312"/>
       <use xlink:href="#DejaVuSans-65" x="219.921875"/>
       <use xlink:href="#DejaVuSans-74" x="281.445312"/>
       <use xlink:href="#DejaVuSans-74" x="320.654297"/>
       <use xlink:href="#DejaVuSans-65" x="359.863281"/>
       <use xlink:href="#DejaVuSans-72" x="421.386719"/>
       <use xlink:href="#DejaVuSans-20" x="462.5"/>
       <use xlink:href="#DejaVuSans-74" x="494.287109"/>
       <use xlink:href="#DejaVuSans-68" x="533.496094"/>
       <use xlink:href="#DejaVuSans-61" x="596.875"/>
       <use xlink:href="#DejaVuSans-6e" x="658.154297"/>
      </g>
     </g>
    </g>
    <g id="ytick_19">
     <g id="text_26">
      <!-- i can do -->
      <g style="fill: #262626" transform="translate(68.134375 30.957619) scale(0.1 -0.1)">
       <use xlink:href="#DejaVuSans-69"/>
       <use xlink:href="#DejaVuSans-20" x="27.783203"/>
       <use xlink:href="#DejaVuSans-63" x="59.570312"/>
       <use xlink:href="#DejaVuSans-61" x="114.550781"/>
       <use xlink:href="#DejaVuSans-6e" x="175.830078"/>
       <use xlink:href="#DejaVuSans-20" x="239.208984"/>
       <use xlink:href="#DejaVuSans-64" x="270.996094"/>
       <use xlink:href="#DejaVuSans-6f" x="334.472656"/>
      </g>
     </g>
    </g>
    <g id="ytick_20">
     <g id="text_27">
      <!-- i dont wanna -->
      <g style="fill: #262626" transform="translate(42.73125 17.652019) scale(0.1 -0.1)">
       <use xlink:href="#DejaVuSans-69"/>
       <use xlink:href="#DejaVuSans-20" x="27.783203"/>
       <use xlink:href="#DejaVuSans-64" x="59.570312"/>
       <use xlink:href="#DejaVuSans-6f" x="123.046875"/>
       <use xlink:href="#DejaVuSans-6e" x="184.228516"/>
       <use xlink:href="#DejaVuSans-74" x="247.607422"/>
       <use xlink:href="#DejaVuSans-20" x="286.816406"/>
       <use xlink:href="#DejaVuSans-77" x="318.603516"/>
       <use xlink:href="#DejaVuSans-61" x="400.390625"/>
       <use xlink:href="#DejaVuSans-6e" x="461.669922"/>
       <use xlink:href="#DejaVuSans-6e" x="525.048828"/>
       <use xlink:href="#DejaVuSans-61" x="588.427734"/>
      </g>
     </g>
    </g>
   </g>
   <g id="patch_3">
    <path d="M 114.7 269.9856 
L 284.757143 269.9856 
L 284.757143 263.3328 
L 114.7 263.3328 
z
" clip-path="url(#pd229d9dd43)" style="fill: #1f77b4; stroke: #ffffff; stroke-linejoin: miter"/>
   </g>
   <g id="patch_4">
    <path d="M 114.7 256.68 
L 284.757143 256.68 
L 284.757143 250.0272 
L 114.7 250.0272 
z
" clip-path="url(#pd229d9dd43)" style="fill: #1f77b4; stroke: #ffffff; stroke-linejoin: miter"/>
   </g>
   <g id="patch_5">
    <path d="M 114.7 243.3744 
L 284.757143 243.3744 
L 284.757143 236.7216 
L 114.7 236.7216 
z
" clip-path="url(#pd229d9dd43)" style="fill: #1f77b4; stroke: #ffffff; stroke-linejoin: miter"/>
   </g>
   <g id="patch_6">
    <path d="M 114.7 230.0688 
L 284.757143 230.0688 
L 284.757143 223.416 
L 114.7 223.416 
z
" clip-path="url(#pd229d9dd43)" style="fill: #1f77b4; stroke: #ffffff; stroke-linejoin: miter"/>
   </g>
   <g id="patch_7">
    <path d="M 114.7 216.7632 
L 295.385714 216.7632 
L 295.385714 210.1104 
L 114.7 210.1104 
z
" clip-path="url(#pd229d9dd43)" style="fill: #1f77b4; stroke: #ffffff; stroke-linejoin: miter"/>
   </g>
   <g id="patch_8">
    <path d="M 114.7 203.4576 
L 295.385714 203.4576 
L 295.385714 196.8048 
L 114.7 196.8048 
z
" clip-path="url(#pd229d9dd43)" style="fill: #1f77b4; stroke: #ffffff; stroke-linejoin: miter"/>
   </g>
   <g id="patch_9">
    <path d="M 114.7 190.152 
L 306.014286 190.152 
L 306.014286 183.4992 
L 114.7 183.4992 
z
" clip-path="url(#pd229d9dd43)" style="fill: #1f77b4; stroke: #ffffff; stroke-linejoin: miter"/>
   </g>
   <g id="patch_10">
    <path d="M 114.7 176.8464 
L 306.014286 176.8464 
L 306.014286 170.1936 
L 114.7 170.1936 
z
" clip-path="url(#pd229d9dd43)" style="fill: #1f77b4; stroke: #ffffff; stroke-linejoin: miter"/>
   </g>
   <g id="patch_11">
    <path d="M 114.7 163.5408 
L 306.014286 163.5408 
L 306.014286 156.888 
L 114.7 156.888 
z
" clip-path="url(#pd229d9dd43)" style="fill: #1f77b4; stroke: #ffffff; stroke-linejoin: miter"/>
   </g>
   <g id="patch_12">
    <path d="M 114.7 150.2352 
L 306.014286 150.2352 
L 306.014286 143.5824 
L 114.7 143.5824 
z
" clip-path="url(#pd229d9dd43)" style="fill: #1f77b4; stroke: #ffffff; stroke-linejoin: miter"/>
   </g>
   <g id="patch_13">
    <path d="M 114.7 136.9296 
L 316.642857 136.9296 
L 316.642857 130.2768 
L 114.7 130.2768 
z
" clip-path="url(#pd229d9dd43)" style="fill: #1f77b4; stroke: #ffffff; stroke-linejoin: miter"/>
   </g>
   <g id="patch_14">
    <path d="M 114.7 123.624 
L 337.9 123.624 
L 337.9 116.9712 
L 114.7 116.9712 
z
" clip-path="url(#pd229d9dd43)" style="fill: #1f77b4; stroke: #ffffff; stroke-linejoin: miter"/>
   </g>
   <g id="patch_15">
    <path d="M 114.7 110.3184 
L 337.9 110.3184 
L 337.9 103.6656 
L 114.7 103.6656 
z
" clip-path="url(#pd229d9dd43)" style="fill: #1f77b4; stroke: #ffffff; stroke-linejoin: miter"/>
   </g>
   <g id="patch_16">
    <path d="M 114.7 97.0128 
L 337.9 97.0128 
L 337.9 90.36 
L 114.7 90.36 
z
" clip-path="url(#pd229d9dd43)" style="fill: #1f77b4; stroke: #ffffff; stroke-linejoin: miter"/>
   </g>
   <g id="patch_17">
    <path d="M 114.7 83.7072 
L 359.157143 83.7072 
L 359.157143 77.0544 
L 114.7 77.0544 
z
" clip-path="url(#pd229d9dd43)" style="fill: #1f77b4; stroke: #ffffff; stroke-linejoin: miter"/>
   </g>
   <g id="patch_18">
    <path d="M 114.7 70.4016 
L 359.157143 70.4016 
L 359.157143 63.7488 
L 114.7 63.7488 
z
" clip-path="url(#pd229d9dd43)" style="fill: #1f77b4; stroke: #ffffff; stroke-linejoin: miter"/>
   </g>
   <g id="patch_19">
    <path d="M 114.7 57.096 
L 359.157143 57.096 
L 359.157143 50.4432 
L 114.7 50.4432 
z
" clip-path="url(#pd229d9dd43)" style="fill: #1f77b4; stroke: #ffffff; stroke-linejoin: miter"/>
   </g>
   <g id="patch_20">
    <path d="M 114.7 43.7904 
L 380.414286 43.7904 
L 380.414286 37.1376 
L 114.7 37.1376 
z
" clip-path="url(#pd229d9dd43)" style="fill: #1f77b4; stroke: #ffffff; stroke-linejoin: miter"/>
   </g>
   <g id="patch_21">
    <path d="M 114.7 30.4848 
L 422.928571 30.4848 
L 422.928571 23.832 
L 114.7 23.832 
z
" clip-path="url(#pd229d9dd43)" style="fill: #1f77b4; stroke: #ffffff; stroke-linejoin: miter"/>
   </g>
   <g id="patch_22">
    <path d="M 114.7 17.1792 
L 454.814286 17.1792 
L 454.814286 10.5264 
L 114.7 10.5264 
z
" clip-path="url(#pd229d9dd43)" style="fill: #1f77b4; stroke: #ffffff; stroke-linejoin: miter"/>
   </g>
   <g id="patch_23">
    <path d="M 114.7 273.312 
L 114.7 7.2 
" style="fill: none; stroke: #262626; stroke-width: 0.8; stroke-linejoin: miter; stroke-linecap: square"/>
   </g>
   <g id="patch_24">
    <path d="M 471.82 273.312 
L 471.82 7.2 
" style="fill: none; stroke: #262626; stroke-width: 0.8; stroke-linejoin: miter; stroke-linecap: square"/>
   </g>
   <g id="patch_25">
    <path d="M 114.7 273.312 
L 471.82 273.312 
" style="fill: none; stroke: #262626; stroke-width: 0.8; stroke-linejoin: miter; stroke-linecap: square"/>
   </g>
   <g id="patch_26">
    <path d="M 114.7 7.2 
L 471.82 7.2 
" style="fill: none; stroke: #262626; stroke-width: 0.8; stroke-linejoin: miter; stroke-linecap: square"/>
   </g>
  </g>
 </g>
 <defs>
  <clipPath id="pd229d9dd43">
   <rect x="114.7" y="7.2" width="357.12" height="266.112"/>
  </clipPath>
 </defs>
</svg>
