<?xml version="1.0" encoding="utf-8" standalone="no"?>
<!DOCTYPE svg PUBLIC "-//W3C//DTD SVG 1.1//EN"
  "http://www.w3.org/Graphics/SVG/1.1/DTD/svg11.dtd">
<svg xmlns:xlink="http://www.w3.org/1999/xlink" width="437.540312pt" height="312.30825pt" viewBox="0 0 437.540312 312.30825" xmlns="http://www.w3.org/2000/svg" version="1.1">
 <metadata>
  <rdf:RDF xmlns:dc="http://purl.org/dc/elements/1.1/" xmlns:cc="http://creativecommons.org/ns#" xmlns:rdf="http://www.w3.org/1999/02/22-rdf-syntax-ns#">
   <cc:Work>
    <dc:type rdf:resource="http://purl.org/dc/dcmitype/StillImage"/>
    <dc:date>2023-12-25T17:50:00.932891</dc:date>
    <dc:format>image/svg+xml</dc:format>
    <dc:creator>
     <cc:Agent>
      <dc:title>Matplotlib v3.7.1, https://matplotlib.org/</dc:title>
     </cc:Agent>
    </dc:creator>
   </cc:Work>
  </rdf:RDF>
 </metadata>
 <defs>
  <style type="text/css">*{stroke-linejoin: round; stroke-linecap: butt}</style>
 </defs>
 <g id="figure_1">
  <g id="patch_1">
   <path d="M 0 312.30825 
L 437.540312 312.30825 
L 437.540312 0 
L 0 0 
z
" style="fill: #ffffff"/>
  </g>
  <g id="axes_1">
   <g id="patch_2">
    <path d="M 73.220313 288.430125 
L 430.340312 288.430125 
L 430.340312 22.318125 
L 73.220313 22.318125 
z
" style="fill: #ffffff"/>
   </g>
   <g id="matplotlib.axis_1">
    <g id="xtick_1">
     <g id="text_1">
      <!-- 0.0 -->
      <g style="fill: #262626" transform="translate(65.26875 303.028562) scale(0.1 -0.1)">
       <defs>
        <path id="DejaVuSans-30" d="M 2034 4250 
Q 1547 4250 1301 3770 
Q 1056 3291 1056 2328 
Q 1056 1369 1301 889 
Q 1547 409 2034 409 
Q 2525 409 2770 889 
Q 3016 1369 3016 2328 
Q 3016 3291 2770 3770 
Q 2525 4250 2034 4250 
z
M 2034 4750 
Q 2819 4750 3233 4129 
Q 3647 3509 3647 2328 
Q 3647 1150 3233 529 
Q 2819 -91 2034 -91 
Q 1250 -91 836 529 
Q 422 1150 422 2328 
Q 422 3509 836 4129 
Q 1250 4750 2034 4750 
z
" transform="scale(0.015625)"/>
        <path id="DejaVuSans-2e" d="M 684 794 
L 1344 794 
L 1344 0 
L 684 0 
L 684 794 
z
" transform="scale(0.015625)"/>
       </defs>
       <use xlink:href="#DejaVuSans-30"/>
       <use xlink:href="#DejaVuSans-2e" x="63.623047"/>
       <use xlink:href="#DejaVuSans-30" x="95.410156"/>
      </g>
     </g>
    </g>
    <g id="xtick_2">
     <g id="text_2">
      <!-- 2.5 -->
      <g style="fill: #262626" transform="translate(107.783036 303.028562) scale(0.1 -0.1)">
       <defs>
        <path id="DejaVuSans-32" d="M 1228 531 
L 3431 531 
L 3431 0 
L 469 0 
L 469 531 
Q 828 903 1448 1529 
Q 2069 2156 2228 2338 
Q 2531 2678 2651 2914 
Q 2772 3150 2772 3378 
Q 2772 3750 2511 3984 
Q 2250 4219 1831 4219 
Q 1534 4219 1204 4116 
Q 875 4013 500 3803 
L 500 4441 
Q 881 4594 1212 4672 
Q 1544 4750 1819 4750 
Q 2544 4750 2975 4387 
Q 3406 4025 3406 3419 
Q 3406 3131 3298 2873 
Q 3191 2616 2906 2266 
Q 2828 2175 2409 1742 
Q 1991 1309 1228 531 
z
" transform="scale(0.015625)"/>
        <path id="DejaVuSans-35" d="M 691 4666 
L 3169 4666 
L 3169 4134 
L 1269 4134 
L 1269 2991 
Q 1406 3038 1543 3061 
Q 1681 3084 1819 3084 
Q 2600 3084 3056 2656 
Q 3513 2228 3513 1497 
Q 3513 744 3044 326 
Q 2575 -91 1722 -91 
Q 1428 -91 1123 -41 
Q 819 9 494 109 
L 494 744 
Q 775 591 1075 516 
Q 1375 441 1709 441 
Q 2250 441 2565 725 
Q 2881 1009 2881 1497 
Q 2881 1984 2565 2268 
Q 2250 2553 1709 2553 
Q 1456 2553 1204 2497 
Q 953 2441 691 2322 
L 691 4666 
z
" transform="scale(0.015625)"/>
       </defs>
       <use xlink:href="#DejaVuSans-32"/>
       <use xlink:href="#DejaVuSans-2e" x="63.623047"/>
       <use xlink:href="#DejaVuSans-35" x="95.410156"/>
      </g>
     </g>
    </g>
    <g id="xtick_3">
     <g id="text_3">
      <!-- 5.0 -->
      <g style="fill: #262626" transform="translate(150.297321 303.028562) scale(0.1 -0.1)">
       <use xlink:href="#DejaVuSans-35"/>
       <use xlink:href="#DejaVuSans-2e" x="63.623047"/>
       <use xlink:href="#DejaVuSans-30" x="95.410156"/>
      </g>
     </g>
    </g>
    <g id="xtick_4">
     <g id="text_4">
      <!-- 7.5 -->
      <g style="fill: #262626" transform="translate(192.811607 303.028562) scale(0.1 -0.1)">
       <defs>
        <path id="DejaVuSans-37" d="M 525 4666 
L 3525 4666 
L 3525 4397 
L 1831 0 
L 1172 0 
L 2766 4134 
L 525 4134 
L 525 4666 
z
" transform="scale(0.015625)"/>
       </defs>
       <use xlink:href="#DejaVuSans-37"/>
       <use xlink:href="#DejaVuSans-2e" x="63.623047"/>
       <use xlink:href="#DejaVuSans-35" x="95.410156"/>
      </g>
     </g>
    </g>
    <g id="xtick_5">
     <g id="text_5">
      <!-- 10.0 -->
      <g style="fill: #262626" transform="translate(232.144643 303.028562) scale(0.1 -0.1)">
       <defs>
        <path id="DejaVuSans-31" d="M 794 531 
L 1825 531 
L 1825 4091 
L 703 3866 
L 703 4441 
L 1819 4666 
L 2450 4666 
L 2450 531 
L 3481 531 
L 3481 0 
L 794 0 
L 794 531 
z
" transform="scale(0.015625)"/>
       </defs>
       <use xlink:href="#DejaVuSans-31"/>
       <use xlink:href="#DejaVuSans-30" x="63.623047"/>
       <use xlink:href="#DejaVuSans-2e" x="127.246094"/>
       <use xlink:href="#DejaVuSans-30" x="159.033203"/>
      </g>
     </g>
    </g>
    <g id="xtick_6">
     <g id="text_6">
      <!-- 12.5 -->
      <g style="fill: #262626" transform="translate(274.658929 303.028562) scale(0.1 -0.1)">
       <use xlink:href="#DejaVuSans-31"/>
       <use xlink:href="#DejaVuSans-32" x="63.623047"/>
       <use xlink:href="#DejaVuSans-2e" x="127.246094"/>
       <use xlink:href="#DejaVuSans-35" x="159.033203"/>
      </g>
     </g>
    </g>
    <g id="xtick_7">
     <g id="text_7">
      <!-- 15.0 -->
      <g style="fill: #262626" transform="translate(317.173214 303.028562) scale(0.1 -0.1)">
       <use xlink:href="#DejaVuSans-31"/>
       <use xlink:href="#DejaVuSans-35" x="63.623047"/>
       <use xlink:href="#DejaVuSans-2e" x="127.246094"/>
       <use xlink:href="#DejaVuSans-30" x="159.033203"/>
      </g>
     </g>
    </g>
    <g id="xtick_8">
     <g id="text_8">
      <!-- 17.5 -->
      <g style="fill: #262626" transform="translate(359.6875 303.028562) scale(0.1 -0.1)">
       <use xlink:href="#DejaVuSans-31"/>
       <use xlink:href="#DejaVuSans-37" x="63.623047"/>
       <use xlink:href="#DejaVuSans-2e" x="127.246094"/>
       <use xlink:href="#DejaVuSans-35" x="159.033203"/>
      </g>
     </g>
    </g>
    <g id="xtick_9">
     <g id="text_9">
      <!-- 20.0 -->
      <g style="fill: #262626" transform="translate(402.201786 303.028562) scale(0.1 -0.1)">
       <use xlink:href="#DejaVuSans-32"/>
       <use xlink:href="#DejaVuSans-30" x="63.623047"/>
       <use xlink:href="#DejaVuSans-2e" x="127.246094"/>
       <use xlink:href="#DejaVuSans-30" x="159.033203"/>
      </g>
     </g>
    </g>
   </g>
   <g id="matplotlib.axis_2">
    <g id="ytick_1">
     <g id="text_10">
      <!-- thoughts -->
      <g style="fill: #262626" transform="translate(21.690625 285.576544) scale(0.1 -0.1)">
       <defs>
        <path id="DejaVuSans-74" d="M 1172 4494 
L 1172 3500 
L 2356 3500 
L 2356 3053 
L 1172 3053 
L 1172 1153 
Q 1172 725 1289 603 
Q 1406 481 1766 481 
L 2356 481 
L 2356 0 
L 1766 0 
Q 1100 0 847 248 
Q 594 497 594 1153 
L 594 3053 
L 172 3053 
L 172 3500 
L 594 3500 
L 594 4494 
L 1172 4494 
z
" transform="scale(0.015625)"/>
        <path id="DejaVuSans-68" d="M 3513 2113 
L 3513 0 
L 2938 0 
L 2938 2094 
Q 2938 2591 2744 2837 
Q 2550 3084 2163 3084 
Q 1697 3084 1428 2787 
Q 1159 2491 1159 1978 
L 1159 0 
L 581 0 
L 581 4863 
L 1159 4863 
L 1159 2956 
Q 1366 3272 1645 3428 
Q 1925 3584 2291 3584 
Q 2894 3584 3203 3211 
Q 3513 2838 3513 2113 
z
" transform="scale(0.015625)"/>
        <path id="DejaVuSans-6f" d="M 1959 3097 
Q 1497 3097 1228 2736 
Q 959 2375 959 1747 
Q 959 1119 1226 758 
Q 1494 397 1959 397 
Q 2419 397 2687 759 
Q 2956 1122 2956 1747 
Q 2956 2369 2687 2733 
Q 2419 3097 1959 3097 
z
M 1959 3584 
Q 2709 3584 3137 3096 
Q 3566 2609 3566 1747 
Q 3566 888 3137 398 
Q 2709 -91 1959 -91 
Q 1206 -91 779 398 
Q 353 888 353 1747 
Q 353 2609 779 3096 
Q 1206 3584 1959 3584 
z
" transform="scale(0.015625)"/>
        <path id="DejaVuSans-75" d="M 544 1381 
L 544 3500 
L 1119 3500 
L 1119 1403 
Q 1119 906 1312 657 
Q 1506 409 1894 409 
Q 2359 409 2629 706 
Q 2900 1003 2900 1516 
L 2900 3500 
L 3475 3500 
L 3475 0 
L 2900 0 
L 2900 538 
Q 2691 219 2414 64 
Q 2138 -91 1772 -91 
Q 1169 -91 856 284 
Q 544 659 544 1381 
z
M 1991 3584 
L 1991 3584 
z
" transform="scale(0.015625)"/>
        <path id="DejaVuSans-67" d="M 2906 1791 
Q 2906 2416 2648 2759 
Q 2391 3103 1925 3103 
Q 1463 3103 1205 2759 
Q 947 2416 947 1791 
Q 947 1169 1205 825 
Q 1463 481 1925 481 
Q 2391 481 2648 825 
Q 2906 1169 2906 1791 
z
M 3481 434 
Q 3481 -459 3084 -895 
Q 2688 -1331 1869 -1331 
Q 1566 -1331 1297 -1286 
Q 1028 -1241 775 -1147 
L 775 -588 
Q 1028 -725 1275 -790 
Q 1522 -856 1778 -856 
Q 2344 -856 2625 -561 
Q 2906 -266 2906 331 
L 2906 616 
Q 2728 306 2450 153 
Q 2172 0 1784 0 
Q 1141 0 747 490 
Q 353 981 353 1791 
Q 353 2603 747 3093 
Q 1141 3584 1784 3584 
Q 2172 3584 2450 3431 
Q 2728 3278 2906 2969 
L 2906 3500 
L 3481 3500 
L 3481 434 
z
" transform="scale(0.015625)"/>
        <path id="DejaVuSans-73" d="M 2834 3397 
L 2834 2853 
Q 2591 2978 2328 3040 
Q 2066 3103 1784 3103 
Q 1356 3103 1142 2972 
Q 928 2841 928 2578 
Q 928 2378 1081 2264 
Q 1234 2150 1697 2047 
L 1894 2003 
Q 2506 1872 2764 1633 
Q 3022 1394 3022 966 
Q 3022 478 2636 193 
Q 2250 -91 1575 -91 
Q 1294 -91 989 -36 
Q 684 19 347 128 
L 347 722 
Q 666 556 975 473 
Q 1284 391 1588 391 
Q 1994 391 2212 530 
Q 2431 669 2431 922 
Q 2431 1156 2273 1281 
Q 2116 1406 1581 1522 
L 1381 1569 
Q 847 1681 609 1914 
Q 372 2147 372 2553 
Q 372 3047 722 3315 
Q 1072 3584 1716 3584 
Q 2034 3584 2315 3537 
Q 2597 3491 2834 3397 
z
" transform="scale(0.015625)"/>
       </defs>
       <use xlink:href="#DejaVuSans-74"/>
       <use xlink:href="#DejaVuSans-68" x="39.208984"/>
       <use xlink:href="#DejaVuSans-6f" x="102.587891"/>
       <use xlink:href="#DejaVuSans-75" x="163.769531"/>
       <use xlink:href="#DejaVuSans-67" x="227.148438"/>
       <use xlink:href="#DejaVuSans-68" x="290.625"/>
       <use xlink:href="#DejaVuSans-74" x="354.003906"/>
       <use xlink:href="#DejaVuSans-73" x="393.212891"/>
      </g>
     </g>
    </g>
    <g id="ytick_2">
     <g id="text_11">
      <!-- whatever -->
      <g style="fill: #262626" transform="translate(19.320312 272.270944) scale(0.1 -0.1)">
       <defs>
        <path id="DejaVuSans-77" d="M 269 3500 
L 844 3500 
L 1563 769 
L 2278 3500 
L 2956 3500 
L 3675 769 
L 4391 3500 
L 4966 3500 
L 4050 0 
L 3372 0 
L 2619 2869 
L 1863 0 
L 1184 0 
L 269 3500 
z
" transform="scale(0.015625)"/>
        <path id="DejaVuSans-61" d="M 2194 1759 
Q 1497 1759 1228 1600 
Q 959 1441 959 1056 
Q 959 750 1161 570 
Q 1363 391 1709 391 
Q 2188 391 2477 730 
Q 2766 1069 2766 1631 
L 2766 1759 
L 2194 1759 
z
M 3341 1997 
L 3341 0 
L 2766 0 
L 2766 531 
Q 2569 213 2275 61 
Q 1981 -91 1556 -91 
Q 1019 -91 701 211 
Q 384 513 384 1019 
Q 384 1609 779 1909 
Q 1175 2209 1959 2209 
L 2766 2209 
L 2766 2266 
Q 2766 2663 2505 2880 
Q 2244 3097 1772 3097 
Q 1472 3097 1187 3025 
Q 903 2953 641 2809 
L 641 3341 
Q 956 3463 1253 3523 
Q 1550 3584 1831 3584 
Q 2591 3584 2966 3190 
Q 3341 2797 3341 1997 
z
" transform="scale(0.015625)"/>
        <path id="DejaVuSans-65" d="M 3597 1894 
L 3597 1613 
L 953 1613 
Q 991 1019 1311 708 
Q 1631 397 2203 397 
Q 2534 397 2845 478 
Q 3156 559 3463 722 
L 3463 178 
Q 3153 47 2828 -22 
Q 2503 -91 2169 -91 
Q 1331 -91 842 396 
Q 353 884 353 1716 
Q 353 2575 817 3079 
Q 1281 3584 2069 3584 
Q 2775 3584 3186 3129 
Q 3597 2675 3597 1894 
z
M 3022 2063 
Q 3016 2534 2758 2815 
Q 2500 3097 2075 3097 
Q 1594 3097 1305 2825 
Q 1016 2553 972 2059 
L 3022 2063 
z
" transform="scale(0.015625)"/>
        <path id="DejaVuSans-76" d="M 191 3500 
L 800 3500 
L 1894 563 
L 2988 3500 
L 3597 3500 
L 2284 0 
L 1503 0 
L 191 3500 
z
" transform="scale(0.015625)"/>
        <path id="DejaVuSans-72" d="M 2631 2963 
Q 2534 3019 2420 3045 
Q 2306 3072 2169 3072 
Q 1681 3072 1420 2755 
Q 1159 2438 1159 1844 
L 1159 0 
L 581 0 
L 581 3500 
L 1159 3500 
L 1159 2956 
Q 1341 3275 1631 3429 
Q 1922 3584 2338 3584 
Q 2397 3584 2469 3576 
Q 2541 3569 2628 3553 
L 2631 2963 
z
" transform="scale(0.015625)"/>
       </defs>
       <use xlink:href="#DejaVuSans-77"/>
       <use xlink:href="#DejaVuSans-68" x="81.787109"/>
       <use xlink:href="#DejaVuSans-61" x="145.166016"/>
       <use xlink:href="#DejaVuSans-74" x="206.445312"/>
       <use xlink:href="#DejaVuSans-65" x="245.654297"/>
       <use xlink:href="#DejaVuSans-76" x="307.177734"/>
       <use xlink:href="#DejaVuSans-65" x="366.357422"/>
       <use xlink:href="#DejaVuSans-72" x="427.880859"/>
      </g>
     </g>
    </g>
    <g id="ytick_3">
     <g id="text_12">
      <!-- sleeping -->
      <g style="fill: #262626" transform="translate(24.114063 258.965344) scale(0.1 -0.1)">
       <defs>
        <path id="DejaVuSans-6c" d="M 603 4863 
L 1178 4863 
L 1178 0 
L 603 0 
L 603 4863 
z
" transform="scale(0.015625)"/>
        <path id="DejaVuSans-70" d="M 1159 525 
L 1159 -1331 
L 581 -1331 
L 581 3500 
L 1159 3500 
L 1159 2969 
Q 1341 3281 1617 3432 
Q 1894 3584 2278 3584 
Q 2916 3584 3314 3078 
Q 3713 2572 3713 1747 
Q 3713 922 3314 415 
Q 2916 -91 2278 -91 
Q 1894 -91 1617 61 
Q 1341 213 1159 525 
z
M 3116 1747 
Q 3116 2381 2855 2742 
Q 2594 3103 2138 3103 
Q 1681 3103 1420 2742 
Q 1159 2381 1159 1747 
Q 1159 1113 1420 752 
Q 1681 391 2138 391 
Q 2594 391 2855 752 
Q 3116 1113 3116 1747 
z
" transform="scale(0.015625)"/>
        <path id="DejaVuSans-69" d="M 603 3500 
L 1178 3500 
L 1178 0 
L 603 0 
L 603 3500 
z
M 603 4863 
L 1178 4863 
L 1178 4134 
L 603 4134 
L 603 4863 
z
" transform="scale(0.015625)"/>
        <path id="DejaVuSans-6e" d="M 3513 2113 
L 3513 0 
L 2938 0 
L 2938 2094 
Q 2938 2591 2744 2837 
Q 2550 3084 2163 3084 
Q 1697 3084 1428 2787 
Q 1159 2491 1159 1978 
L 1159 0 
L 581 0 
L 581 3500 
L 1159 3500 
L 1159 2956 
Q 1366 3272 1645 3428 
Q 1925 3584 2291 3584 
Q 2894 3584 3203 3211 
Q 3513 2838 3513 2113 
z
" transform="scale(0.015625)"/>
       </defs>
       <use xlink:href="#DejaVuSans-73"/>
       <use xlink:href="#DejaVuSans-6c" x="52.099609"/>
       <use xlink:href="#DejaVuSans-65" x="79.882812"/>
       <use xlink:href="#DejaVuSans-65" x="141.40625"/>
       <use xlink:href="#DejaVuSans-70" x="202.929688"/>
       <use xlink:href="#DejaVuSans-69" x="266.40625"/>
       <use xlink:href="#DejaVuSans-6e" x="294.189453"/>
       <use xlink:href="#DejaVuSans-67" x="357.568359"/>
      </g>
     </g>
    </g>
    <g id="ytick_4">
     <g id="text_13">
      <!-- everybody -->
      <g style="fill: #262626" transform="translate(13.23125 245.659744) scale(0.1 -0.1)">
       <defs>
        <path id="DejaVuSans-79" d="M 2059 -325 
Q 1816 -950 1584 -1140 
Q 1353 -1331 966 -1331 
L 506 -1331 
L 506 -850 
L 844 -850 
Q 1081 -850 1212 -737 
Q 1344 -625 1503 -206 
L 1606 56 
L 191 3500 
L 800 3500 
L 1894 763 
L 2988 3500 
L 3597 3500 
L 2059 -325 
z
" transform="scale(0.015625)"/>
        <path id="DejaVuSans-62" d="M 3116 1747 
Q 3116 2381 2855 2742 
Q 2594 3103 2138 3103 
Q 1681 3103 1420 2742 
Q 1159 2381 1159 1747 
Q 1159 1113 1420 752 
Q 1681 391 2138 391 
Q 2594 391 2855 752 
Q 3116 1113 3116 1747 
z
M 1159 2969 
Q 1341 3281 1617 3432 
Q 1894 3584 2278 3584 
Q 2916 3584 3314 3078 
Q 3713 2572 3713 1747 
Q 3713 922 3314 415 
Q 2916 -91 2278 -91 
Q 1894 -91 1617 61 
Q 1341 213 1159 525 
L 1159 0 
L 581 0 
L 581 4863 
L 1159 4863 
L 1159 2969 
z
" transform="scale(0.015625)"/>
        <path id="DejaVuSans-64" d="M 2906 2969 
L 2906 4863 
L 3481 4863 
L 3481 0 
L 2906 0 
L 2906 525 
Q 2725 213 2448 61 
Q 2172 -91 1784 -91 
Q 1150 -91 751 415 
Q 353 922 353 1747 
Q 353 2572 751 3078 
Q 1150 3584 1784 3584 
Q 2172 3584 2448 3432 
Q 2725 3281 2906 2969 
z
M 947 1747 
Q 947 1113 1208 752 
Q 1469 391 1925 391 
Q 2381 391 2643 752 
Q 2906 1113 2906 1747 
Q 2906 2381 2643 2742 
Q 2381 3103 1925 3103 
Q 1469 3103 1208 2742 
Q 947 2381 947 1747 
z
" transform="scale(0.015625)"/>
       </defs>
       <use xlink:href="#DejaVuSans-65"/>
       <use xlink:href="#DejaVuSans-76" x="61.523438"/>
       <use xlink:href="#DejaVuSans-65" x="120.703125"/>
       <use xlink:href="#DejaVuSans-72" x="182.226562"/>
       <use xlink:href="#DejaVuSans-79" x="223.339844"/>
       <use xlink:href="#DejaVuSans-62" x="282.519531"/>
       <use xlink:href="#DejaVuSans-6f" x="345.996094"/>
       <use xlink:href="#DejaVuSans-64" x="407.177734"/>
       <use xlink:href="#DejaVuSans-79" x="470.654297"/>
      </g>
     </g>
    </g>
    <g id="ytick_5">
     <g id="text_14">
      <!-- champagne -->
      <g style="fill: #262626" transform="translate(7.2 232.354144) scale(0.1 -0.1)">
       <defs>
        <path id="DejaVuSans-63" d="M 3122 3366 
L 3122 2828 
Q 2878 2963 2633 3030 
Q 2388 3097 2138 3097 
Q 1578 3097 1268 2742 
Q 959 2388 959 1747 
Q 959 1106 1268 751 
Q 1578 397 2138 397 
Q 2388 397 2633 464 
Q 2878 531 3122 666 
L 3122 134 
Q 2881 22 2623 -34 
Q 2366 -91 2075 -91 
Q 1284 -91 818 406 
Q 353 903 353 1747 
Q 353 2603 823 3093 
Q 1294 3584 2113 3584 
Q 2378 3584 2631 3529 
Q 2884 3475 3122 3366 
z
" transform="scale(0.015625)"/>
        <path id="DejaVuSans-6d" d="M 3328 2828 
Q 3544 3216 3844 3400 
Q 4144 3584 4550 3584 
Q 5097 3584 5394 3201 
Q 5691 2819 5691 2113 
L 5691 0 
L 5113 0 
L 5113 2094 
Q 5113 2597 4934 2840 
Q 4756 3084 4391 3084 
Q 3944 3084 3684 2787 
Q 3425 2491 3425 1978 
L 3425 0 
L 2847 0 
L 2847 2094 
Q 2847 2600 2669 2842 
Q 2491 3084 2119 3084 
Q 1678 3084 1418 2786 
Q 1159 2488 1159 1978 
L 1159 0 
L 581 0 
L 581 3500 
L 1159 3500 
L 1159 2956 
Q 1356 3278 1631 3431 
Q 1906 3584 2284 3584 
Q 2666 3584 2933 3390 
Q 3200 3197 3328 2828 
z
" transform="scale(0.015625)"/>
       </defs>
       <use xlink:href="#DejaVuSans-63"/>
       <use xlink:href="#DejaVuSans-68" x="54.980469"/>
       <use xlink:href="#DejaVuSans-61" x="118.359375"/>
       <use xlink:href="#DejaVuSans-6d" x="179.638672"/>
       <use xlink:href="#DejaVuSans-70" x="277.050781"/>
       <use xlink:href="#DejaVuSans-61" x="340.527344"/>
       <use xlink:href="#DejaVuSans-67" x="401.806641"/>
       <use xlink:href="#DejaVuSans-6e" x="465.283203"/>
       <use xlink:href="#DejaVuSans-65" x="528.662109"/>
      </g>
     </g>
    </g>
    <g id="ytick_6">
     <g id="text_15">
      <!-- hericane -->
      <g style="fill: #262626" transform="translate(22.723438 219.048544) scale(0.1 -0.1)">
       <use xlink:href="#DejaVuSans-68"/>
       <use xlink:href="#DejaVuSans-65" x="63.378906"/>
       <use xlink:href="#DejaVuSans-72" x="124.902344"/>
       <use xlink:href="#DejaVuSans-69" x="166.015625"/>
       <use xlink:href="#DejaVuSans-63" x="193.798828"/>
       <use xlink:href="#DejaVuSans-61" x="248.779297"/>
       <use xlink:href="#DejaVuSans-6e" x="310.058594"/>
       <use xlink:href="#DejaVuSans-65" x="373.4375"/>
      </g>
     </g>
    </g>
    <g id="ytick_7">
     <g id="text_16">
      <!-- remember -->
      <g style="fill: #262626" transform="translate(13.934375 205.742944) scale(0.1 -0.1)">
       <use xlink:href="#DejaVuSans-72"/>
       <use xlink:href="#DejaVuSans-65" x="38.863281"/>
       <use xlink:href="#DejaVuSans-6d" x="100.386719"/>
       <use xlink:href="#DejaVuSans-65" x="197.798828"/>
       <use xlink:href="#DejaVuSans-6d" x="259.322266"/>
       <use xlink:href="#DejaVuSans-62" x="356.734375"/>
       <use xlink:href="#DejaVuSans-65" x="420.210938"/>
       <use xlink:href="#DejaVuSans-72" x="481.734375"/>
      </g>
     </g>
    </g>
    <g id="ytick_8">
     <g id="text_17">
      <!-- probably -->
      <g style="fill: #262626" transform="translate(22.345313 192.437344) scale(0.1 -0.1)">
       <use xlink:href="#DejaVuSans-70"/>
       <use xlink:href="#DejaVuSans-72" x="63.476562"/>
       <use xlink:href="#DejaVuSans-6f" x="102.339844"/>
       <use xlink:href="#DejaVuSans-62" x="163.521484"/>
       <use xlink:href="#DejaVuSans-61" x="226.998047"/>
       <use xlink:href="#DejaVuSans-62" x="288.277344"/>
       <use xlink:href="#DejaVuSans-6c" x="351.753906"/>
       <use xlink:href="#DejaVuSans-79" x="379.537109"/>
      </g>
     </g>
    </g>
    <g id="ytick_9">
     <g id="text_18">
      <!-- pancakes -->
      <g style="fill: #262626" transform="translate(18.989063 179.131744) scale(0.1 -0.1)">
       <defs>
        <path id="DejaVuSans-6b" d="M 581 4863 
L 1159 4863 
L 1159 1991 
L 2875 3500 
L 3609 3500 
L 1753 1863 
L 3688 0 
L 2938 0 
L 1159 1709 
L 1159 0 
L 581 0 
L 581 4863 
z
" transform="scale(0.015625)"/>
       </defs>
       <use xlink:href="#DejaVuSans-70"/>
       <use xlink:href="#DejaVuSans-61" x="63.476562"/>
       <use xlink:href="#DejaVuSans-6e" x="124.755859"/>
       <use xlink:href="#DejaVuSans-63" x="188.134766"/>
       <use xlink:href="#DejaVuSans-61" x="243.115234"/>
       <use xlink:href="#DejaVuSans-6b" x="304.394531"/>
       <use xlink:href="#DejaVuSans-65" x="358.679688"/>
       <use xlink:href="#DejaVuSans-73" x="420.203125"/>
      </g>
     </g>
    </g>
    <g id="ytick_10">
     <g id="text_19">
      <!-- different -->
      <g style="fill: #262626" transform="translate(23.603125 165.826144) scale(0.1 -0.1)">
       <defs>
        <path id="DejaVuSans-66" d="M 2375 4863 
L 2375 4384 
L 1825 4384 
Q 1516 4384 1395 4259 
Q 1275 4134 1275 3809 
L 1275 3500 
L 2222 3500 
L 2222 3053 
L 1275 3053 
L 1275 0 
L 697 0 
L 697 3053 
L 147 3053 
L 147 3500 
L 697 3500 
L 697 3744 
Q 697 4328 969 4595 
Q 1241 4863 1831 4863 
L 2375 4863 
z
" transform="scale(0.015625)"/>
       </defs>
       <use xlink:href="#DejaVuSans-64"/>
       <use xlink:href="#DejaVuSans-69" x="63.476562"/>
       <use xlink:href="#DejaVuSans-66" x="91.259766"/>
       <use xlink:href="#DejaVuSans-66" x="126.464844"/>
       <use xlink:href="#DejaVuSans-65" x="161.669922"/>
       <use xlink:href="#DejaVuSans-72" x="223.193359"/>
       <use xlink:href="#DejaVuSans-65" x="262.056641"/>
       <use xlink:href="#DejaVuSans-6e" x="323.580078"/>
       <use xlink:href="#DejaVuSans-74" x="386.958984"/>
      </g>
     </g>
    </g>
    <g id="ytick_11">
     <g id="text_20">
      <!-- together -->
      <g style="fill: #262626" transform="translate(23.157813 152.520544) scale(0.1 -0.1)">
       <use xlink:href="#DejaVuSans-74"/>
       <use xlink:href="#DejaVuSans-6f" x="39.208984"/>
       <use xlink:href="#DejaVuSans-67" x="100.390625"/>
       <use xlink:href="#DejaVuSans-65" x="163.867188"/>
       <use xlink:href="#DejaVuSans-74" x="225.390625"/>
       <use xlink:href="#DejaVuSans-68" x="264.599609"/>
       <use xlink:href="#DejaVuSans-65" x="327.978516"/>
       <use xlink:href="#DejaVuSans-72" x="389.501953"/>
      </g>
     </g>
    </g>
    <g id="ytick_12">
     <g id="text_21">
      <!-- somebody -->
      <g style="fill: #262626" transform="translate(14.264063 139.214944) scale(0.1 -0.1)">
       <use xlink:href="#DejaVuSans-73"/>
       <use xlink:href="#DejaVuSans-6f" x="52.099609"/>
       <use xlink:href="#DejaVuSans-6d" x="113.28125"/>
       <use xlink:href="#DejaVuSans-65" x="210.693359"/>
       <use xlink:href="#DejaVuSans-62" x="272.216797"/>
       <use xlink:href="#DejaVuSans-6f" x="335.693359"/>
       <use xlink:href="#DejaVuSans-64" x="396.875"/>
       <use xlink:href="#DejaVuSans-79" x="460.351562"/>
      </g>
     </g>
    </g>
    <g id="ytick_13">
     <g id="text_22">
      <!-- starting -->
      <g style="fill: #262626" transform="translate(27.467188 125.909344) scale(0.1 -0.1)">
       <use xlink:href="#DejaVuSans-73"/>
       <use xlink:href="#DejaVuSans-74" x="52.099609"/>
       <use xlink:href="#DejaVuSans-61" x="91.308594"/>
       <use xlink:href="#DejaVuSans-72" x="152.587891"/>
       <use xlink:href="#DejaVuSans-74" x="193.701172"/>
       <use xlink:href="#DejaVuSans-69" x="232.910156"/>
       <use xlink:href="#DejaVuSans-6e" x="260.693359"/>
       <use xlink:href="#DejaVuSans-67" x="324.072266"/>
      </g>
     </g>
    </g>
    <g id="ytick_14">
     <g id="text_23">
      <!-- overtime -->
      <g style="fill: #262626" transform="translate(21.326563 112.603744) scale(0.1 -0.1)">
       <use xlink:href="#DejaVuSans-6f"/>
       <use xlink:href="#DejaVuSans-76" x="61.181641"/>
       <use xlink:href="#DejaVuSans-65" x="120.361328"/>
       <use xlink:href="#DejaVuSans-72" x="181.884766"/>
       <use xlink:href="#DejaVuSans-74" x="222.998047"/>
       <use xlink:href="#DejaVuSans-69" x="262.207031"/>
       <use xlink:href="#DejaVuSans-6d" x="289.990234"/>
       <use xlink:href="#DejaVuSans-65" x="387.402344"/>
      </g>
     </g>
    </g>
    <g id="ytick_15">
     <g id="text_24">
      <!-- location -->
      <g style="fill: #262626" transform="translate(26.542188 99.298144) scale(0.1 -0.1)">
       <use xlink:href="#DejaVuSans-6c"/>
       <use xlink:href="#DejaVuSans-6f" x="27.783203"/>
       <use xlink:href="#DejaVuSans-63" x="88.964844"/>
       <use xlink:href="#DejaVuSans-61" x="143.945312"/>
       <use xlink:href="#DejaVuSans-74" x="205.224609"/>
       <use xlink:href="#DejaVuSans-69" x="244.433594"/>
       <use xlink:href="#DejaVuSans-6f" x="272.216797"/>
       <use xlink:href="#DejaVuSans-6e" x="333.398438"/>
      </g>
     </g>
    </g>
    <g id="ytick_16">
     <g id="text_25">
      <!-- thinking -->
      <g style="fill: #262626" transform="translate(25.592188 85.992544) scale(0.1 -0.1)">
       <use xlink:href="#DejaVuSans-74"/>
       <use xlink:href="#DejaVuSans-68" x="39.208984"/>
       <use xlink:href="#DejaVuSans-69" x="102.587891"/>
       <use xlink:href="#DejaVuSans-6e" x="130.371094"/>
       <use xlink:href="#DejaVuSans-6b" x="193.75"/>
       <use xlink:href="#DejaVuSans-69" x="251.660156"/>
       <use xlink:href="#DejaVuSans-6e" x="279.443359"/>
       <use xlink:href="#DejaVuSans-67" x="342.822266"/>
      </g>
     </g>
    </g>
    <g id="ytick_17">
     <g id="text_26">
      <!-- something -->
      <g style="fill: #262626" transform="translate(13.276563 72.686944) scale(0.1 -0.1)">
       <use xlink:href="#DejaVuSans-73"/>
       <use xlink:href="#DejaVuSans-6f" x="52.099609"/>
       <use xlink:href="#DejaVuSans-6d" x="113.28125"/>
       <use xlink:href="#DejaVuSans-65" x="210.693359"/>
       <use xlink:href="#DejaVuSans-74" x="272.216797"/>
       <use xlink:href="#DejaVuSans-68" x="311.425781"/>
       <use xlink:href="#DejaVuSans-69" x="374.804688"/>
       <use xlink:href="#DejaVuSans-6e" x="402.587891"/>
       <use xlink:href="#DejaVuSans-67" x="465.966797"/>
      </g>
     </g>
    </g>
    <g id="ytick_18">
     <g id="text_27">
      <!-- california -->
      <g style="fill: #262626" transform="translate(20.21875 59.381344) scale(0.1 -0.1)">
       <use xlink:href="#DejaVuSans-63"/>
       <use xlink:href="#DejaVuSans-61" x="54.980469"/>
       <use xlink:href="#DejaVuSans-6c" x="116.259766"/>
       <use xlink:href="#DejaVuSans-69" x="144.042969"/>
       <use xlink:href="#DejaVuSans-66" x="171.826172"/>
       <use xlink:href="#DejaVuSans-6f" x="207.03125"/>
       <use xlink:href="#DejaVuSans-72" x="268.212891"/>
       <use xlink:href="#DejaVuSans-6e" x="307.576172"/>
       <use xlink:href="#DejaVuSans-69" x="370.955078"/>
       <use xlink:href="#DejaVuSans-61" x="398.738281"/>
      </g>
     </g>
    </g>
    <g id="ytick_19">
     <g id="text_28">
      <!-- everything -->
      <g style="fill: #262626" transform="translate(12.24375 46.075744) scale(0.1 -0.1)">
       <use xlink:href="#DejaVuSans-65"/>
       <use xlink:href="#DejaVuSans-76" x="61.523438"/>
       <use xlink:href="#DejaVuSans-65" x="120.703125"/>
       <use xlink:href="#DejaVuSans-72" x="182.226562"/>
       <use xlink:href="#DejaVuSans-79" x="223.339844"/>
       <use xlink:href="#DejaVuSans-74" x="282.519531"/>
       <use xlink:href="#DejaVuSans-68" x="321.728516"/>
       <use xlink:href="#DejaVuSans-69" x="385.107422"/>
       <use xlink:href="#DejaVuSans-6e" x="412.890625"/>
       <use xlink:href="#DejaVuSans-67" x="476.269531"/>
      </g>
     </g>
    </g>
    <g id="ytick_20">
     <g id="text_29">
      <!-- anything -->
      <g style="fill: #262626" transform="translate(22.114063 32.770144) scale(0.1 -0.1)">
       <use xlink:href="#DejaVuSans-61"/>
       <use xlink:href="#DejaVuSans-6e" x="61.279297"/>
       <use xlink:href="#DejaVuSans-79" x="124.658203"/>
       <use xlink:href="#DejaVuSans-74" x="183.837891"/>
       <use xlink:href="#DejaVuSans-68" x="223.046875"/>
       <use xlink:href="#DejaVuSans-69" x="286.425781"/>
       <use xlink:href="#DejaVuSans-6e" x="314.208984"/>
       <use xlink:href="#DejaVuSans-67" x="377.587891"/>
      </g>
     </g>
    </g>
   </g>
   <g id="patch_3">
    <path d="M 73.220313 285.103725 
L 141.24317 285.103725 
L 141.24317 278.450925 
L 73.220313 278.450925 
z
" clip-path="url(#p175a69fc2f)" style="fill: #1f77b4; stroke: #ffffff; stroke-linejoin: miter"/>
   </g>
   <g id="patch_4">
    <path d="M 73.220313 271.798125 
L 158.248884 271.798125 
L 158.248884 265.145325 
L 73.220313 265.145325 
z
" clip-path="url(#p175a69fc2f)" style="fill: #1f77b4; stroke: #ffffff; stroke-linejoin: miter"/>
   </g>
   <g id="patch_5">
    <path d="M 73.220313 258.492525 
L 158.248884 258.492525 
L 158.248884 251.839725 
L 73.220313 251.839725 
z
" clip-path="url(#p175a69fc2f)" style="fill: #1f77b4; stroke: #ffffff; stroke-linejoin: miter"/>
   </g>
   <g id="patch_6">
    <path d="M 73.220313 245.186925 
L 175.254598 245.186925 
L 175.254598 238.534125 
L 73.220313 238.534125 
z
" clip-path="url(#p175a69fc2f)" style="fill: #1f77b4; stroke: #ffffff; stroke-linejoin: miter"/>
   </g>
   <g id="patch_7">
    <path d="M 73.220313 231.881325 
L 175.254598 231.881325 
L 175.254598 225.228525 
L 73.220313 225.228525 
z
" clip-path="url(#p175a69fc2f)" style="fill: #1f77b4; stroke: #ffffff; stroke-linejoin: miter"/>
   </g>
   <g id="patch_8">
    <path d="M 73.220313 218.575725 
L 175.254598 218.575725 
L 175.254598 211.922925 
L 73.220313 211.922925 
z
" clip-path="url(#p175a69fc2f)" style="fill: #1f77b4; stroke: #ffffff; stroke-linejoin: miter"/>
   </g>
   <g id="patch_9">
    <path d="M 73.220313 205.270125 
L 175.254598 205.270125 
L 175.254598 198.617325 
L 73.220313 198.617325 
z
" clip-path="url(#p175a69fc2f)" style="fill: #1f77b4; stroke: #ffffff; stroke-linejoin: miter"/>
   </g>
   <g id="patch_10">
    <path d="M 73.220313 191.964525 
L 175.254598 191.964525 
L 175.254598 185.311725 
L 73.220313 185.311725 
z
" clip-path="url(#p175a69fc2f)" style="fill: #1f77b4; stroke: #ffffff; stroke-linejoin: miter"/>
   </g>
   <g id="patch_11">
    <path d="M 73.220313 178.658925 
L 192.260312 178.658925 
L 192.260312 172.006125 
L 73.220313 172.006125 
z
" clip-path="url(#p175a69fc2f)" style="fill: #1f77b4; stroke: #ffffff; stroke-linejoin: miter"/>
   </g>
   <g id="patch_12">
    <path d="M 73.220313 165.353325 
L 192.260312 165.353325 
L 192.260312 158.700525 
L 73.220313 158.700525 
z
" clip-path="url(#p175a69fc2f)" style="fill: #1f77b4; stroke: #ffffff; stroke-linejoin: miter"/>
   </g>
   <g id="patch_13">
    <path d="M 73.220313 152.047725 
L 209.266027 152.047725 
L 209.266027 145.394925 
L 73.220313 145.394925 
z
" clip-path="url(#p175a69fc2f)" style="fill: #1f77b4; stroke: #ffffff; stroke-linejoin: miter"/>
   </g>
   <g id="patch_14">
    <path d="M 73.220313 138.742125 
L 209.266027 138.742125 
L 209.266027 132.089325 
L 73.220313 132.089325 
z
" clip-path="url(#p175a69fc2f)" style="fill: #1f77b4; stroke: #ffffff; stroke-linejoin: miter"/>
   </g>
   <g id="patch_15">
    <path d="M 73.220313 125.436525 
L 277.288884 125.436525 
L 277.288884 118.783725 
L 73.220313 118.783725 
z
" clip-path="url(#p175a69fc2f)" style="fill: #1f77b4; stroke: #ffffff; stroke-linejoin: miter"/>
   </g>
   <g id="patch_16">
    <path d="M 73.220313 112.130925 
L 277.288884 112.130925 
L 277.288884 105.478125 
L 73.220313 105.478125 
z
" clip-path="url(#p175a69fc2f)" style="fill: #1f77b4; stroke: #ffffff; stroke-linejoin: miter"/>
   </g>
   <g id="patch_17">
    <path d="M 73.220313 98.825325 
L 311.300313 98.825325 
L 311.300313 92.172525 
L 73.220313 92.172525 
z
" clip-path="url(#p175a69fc2f)" style="fill: #1f77b4; stroke: #ffffff; stroke-linejoin: miter"/>
   </g>
   <g id="patch_18">
    <path d="M 73.220313 85.519725 
L 311.300313 85.519725 
L 311.300313 78.866925 
L 73.220313 78.866925 
z
" clip-path="url(#p175a69fc2f)" style="fill: #1f77b4; stroke: #ffffff; stroke-linejoin: miter"/>
   </g>
   <g id="patch_19">
    <path d="M 73.220313 72.214125 
L 328.306027 72.214125 
L 328.306027 65.561325 
L 73.220313 65.561325 
z
" clip-path="url(#p175a69fc2f)" style="fill: #1f77b4; stroke: #ffffff; stroke-linejoin: miter"/>
   </g>
   <g id="patch_20">
    <path d="M 73.220313 58.908525 
L 345.311741 58.908525 
L 345.311741 52.255725 
L 73.220313 52.255725 
z
" clip-path="url(#p175a69fc2f)" style="fill: #1f77b4; stroke: #ffffff; stroke-linejoin: miter"/>
   </g>
   <g id="patch_21">
    <path d="M 73.220313 45.602925 
L 379.32317 45.602925 
L 379.32317 38.950125 
L 73.220313 38.950125 
z
" clip-path="url(#p175a69fc2f)" style="fill: #1f77b4; stroke: #ffffff; stroke-linejoin: miter"/>
   </g>
   <g id="patch_22">
    <path d="M 73.220313 32.297325 
L 413.334598 32.297325 
L 413.334598 25.644525 
L 73.220313 25.644525 
z
" clip-path="url(#p175a69fc2f)" style="fill: #1f77b4; stroke: #ffffff; stroke-linejoin: miter"/>
   </g>
   <g id="patch_23">
    <path d="M 73.220313 288.430125 
L 73.220313 22.318125 
" style="fill: none; stroke: #262626; stroke-width: 0.8; stroke-linejoin: miter; stroke-linecap: square"/>
   </g>
   <g id="patch_24">
    <path d="M 430.340312 288.430125 
L 430.340312 22.318125 
" style="fill: none; stroke: #262626; stroke-width: 0.8; stroke-linejoin: miter; stroke-linecap: square"/>
   </g>
   <g id="patch_25">
    <path d="M 73.220313 288.430125 
L 430.340312 288.430125 
" style="fill: none; stroke: #262626; stroke-width: 0.8; stroke-linejoin: miter; stroke-linecap: square"/>
   </g>
   <g id="patch_26">
    <path d="M 73.220313 22.318125 
L 430.340312 22.318125 
" style="fill: none; stroke: #262626; stroke-width: 0.8; stroke-linejoin: miter; stroke-linecap: square"/>
   </g>
   <g id="text_30">
    <!-- Longer common word -->
    <g style="fill: #262626" transform="translate(186.405625 16.318125) scale(0.12 -0.12)">
     <defs>
      <path id="DejaVuSans-4c" d="M 628 4666 
L 1259 4666 
L 1259 531 
L 3531 531 
L 3531 0 
L 628 0 
L 628 4666 
z
" transform="scale(0.015625)"/>
      <path id="DejaVuSans-20" transform="scale(0.015625)"/>
     </defs>
     <use xlink:href="#DejaVuSans-4c"/>
     <use xlink:href="#DejaVuSans-6f" x="53.962891"/>
     <use xlink:href="#DejaVuSans-6e" x="115.144531"/>
     <use xlink:href="#DejaVuSans-67" x="178.523438"/>
     <use xlink:href="#DejaVuSans-65" x="242"/>
     <use xlink:href="#DejaVuSans-72" x="303.523438"/>
     <use xlink:href="#DejaVuSans-20" x="344.636719"/>
     <use xlink:href="#DejaVuSans-63" x="376.423828"/>
     <use xlink:href="#DejaVuSans-6f" x="431.404297"/>
     <use xlink:href="#DejaVuSans-6d" x="492.585938"/>
     <use xlink:href="#DejaVuSans-6d" x="589.998047"/>
     <use xlink:href="#DejaVuSans-6f" x="687.410156"/>
     <use xlink:href="#DejaVuSans-6e" x="748.591797"/>
     <use xlink:href="#DejaVuSans-20" x="811.970703"/>
     <use xlink:href="#DejaVuSans-77" x="843.757812"/>
     <use xlink:href="#DejaVuSans-6f" x="925.544922"/>
     <use xlink:href="#DejaVuSans-72" x="986.726562"/>
     <use xlink:href="#DejaVuSans-64" x="1026.089844"/>
    </g>
   </g>
  </g>
 </g>
 <defs>
  <clipPath id="p175a69fc2f">
   <rect x="73.220313" y="22.318125" width="357.12" height="266.112"/>
  </clipPath>
 </defs>
</svg>
