<?xml version="1.0" encoding="utf-8" standalone="no"?>
<!DOCTYPE svg PUBLIC "-//W3C//DTD SVG 1.1//EN"
  "http://www.w3.org/Graphics/SVG/1.1/DTD/svg11.dtd">
<svg xmlns:xlink="http://www.w3.org/1999/xlink" width="946.965625pt" height="503.394375pt" viewBox="0 0 946.965625 503.394375" xmlns="http://www.w3.org/2000/svg" version="1.1">
 <metadata>
  <rdf:RDF xmlns:dc="http://purl.org/dc/elements/1.1/" xmlns:cc="http://creativecommons.org/ns#" xmlns:rdf="http://www.w3.org/1999/02/22-rdf-syntax-ns#">
   <cc:Work>
    <dc:type rdf:resource="http://purl.org/dc/dcmitype/StillImage"/>
    <dc:date>2023-12-25T18:04:10.909611</dc:date>
    <dc:format>image/svg+xml</dc:format>
    <dc:creator>
     <cc:Agent>
      <dc:title>Matplotlib v3.7.1, https://matplotlib.org/</dc:title>
     </cc:Agent>
    </dc:creator>
   </cc:Work>
  </rdf:RDF>
 </metadata>
 <defs>
  <style type="text/css">*{stroke-linejoin: round; stroke-linecap: butt}</style>
 </defs>
 <g id="figure_1">
  <g id="patch_1">
   <path d="M 0 503.394375 
L 946.965625 503.394375 
L 946.965625 0 
L 0 0 
z
" style="fill: #ffffff"/>
  </g>
  <g id="axes_1">
   <g id="patch_2">
    <path d="M 46.965625 465.838125 
L 939.765625 465.838125 
L 939.765625 22.318125 
L 46.965625 22.318125 
z
" style="fill: #ffffff"/>
   </g>
   <g id="matplotlib.axis_1">
    <g id="xtick_1">
     <g id="line2d_1">
      <defs>
       <path id="m922e2e0099" d="M 0 0 
L 0 3.5 
" style="stroke: #000000; stroke-width: 0.8"/>
      </defs>
      <g>
       <use xlink:href="#m922e2e0099" x="87.547443" y="465.838125" style="stroke: #000000; stroke-width: 0.8"/>
      </g>
     </g>
     <g id="text_1">
      <!-- 0 -->
      <g transform="translate(84.366193 480.436562) scale(0.1 -0.1)">
       <defs>
        <path id="DejaVuSans-30" d="M 2034 4250 
Q 1547 4250 1301 3770 
Q 1056 3291 1056 2328 
Q 1056 1369 1301 889 
Q 1547 409 2034 409 
Q 2525 409 2770 889 
Q 3016 1369 3016 2328 
Q 3016 3291 2770 3770 
Q 2525 4250 2034 4250 
z
M 2034 4750 
Q 2819 4750 3233 4129 
Q 3647 3509 3647 2328 
Q 3647 1150 3233 529 
Q 2819 -91 2034 -91 
Q 1250 -91 836 529 
Q 422 1150 422 2328 
Q 422 3509 836 4129 
Q 1250 4750 2034 4750 
z
" transform="scale(0.015625)"/>
       </defs>
       <use xlink:href="#DejaVuSans-30"/>
      </g>
     </g>
    </g>
    <g id="xtick_2">
     <g id="line2d_2">
      <g>
       <use xlink:href="#m922e2e0099" x="210.709259" y="465.838125" style="stroke: #000000; stroke-width: 0.8"/>
      </g>
     </g>
     <g id="text_2">
      <!-- 100 -->
      <g transform="translate(201.165509 480.436562) scale(0.1 -0.1)">
       <defs>
        <path id="DejaVuSans-31" d="M 794 531 
L 1825 531 
L 1825 4091 
L 703 3866 
L 703 4441 
L 1819 4666 
L 2450 4666 
L 2450 531 
L 3481 531 
L 3481 0 
L 794 0 
L 794 531 
z
" transform="scale(0.015625)"/>
       </defs>
       <use xlink:href="#DejaVuSans-31"/>
       <use xlink:href="#DejaVuSans-30" x="63.623047"/>
       <use xlink:href="#DejaVuSans-30" x="127.246094"/>
      </g>
     </g>
    </g>
    <g id="xtick_3">
     <g id="line2d_3">
      <g>
       <use xlink:href="#m922e2e0099" x="333.871074" y="465.838125" style="stroke: #000000; stroke-width: 0.8"/>
      </g>
     </g>
     <g id="text_3">
      <!-- 200 -->
      <g transform="translate(324.327324 480.436562) scale(0.1 -0.1)">
       <defs>
        <path id="DejaVuSans-32" d="M 1228 531 
L 3431 531 
L 3431 0 
L 469 0 
L 469 531 
Q 828 903 1448 1529 
Q 2069 2156 2228 2338 
Q 2531 2678 2651 2914 
Q 2772 3150 2772 3378 
Q 2772 3750 2511 3984 
Q 2250 4219 1831 4219 
Q 1534 4219 1204 4116 
Q 875 4013 500 3803 
L 500 4441 
Q 881 4594 1212 4672 
Q 1544 4750 1819 4750 
Q 2544 4750 2975 4387 
Q 3406 4025 3406 3419 
Q 3406 3131 3298 2873 
Q 3191 2616 2906 2266 
Q 2828 2175 2409 1742 
Q 1991 1309 1228 531 
z
" transform="scale(0.015625)"/>
       </defs>
       <use xlink:href="#DejaVuSans-32"/>
       <use xlink:href="#DejaVuSans-30" x="63.623047"/>
       <use xlink:href="#DejaVuSans-30" x="127.246094"/>
      </g>
     </g>
    </g>
    <g id="xtick_4">
     <g id="line2d_4">
      <g>
       <use xlink:href="#m922e2e0099" x="457.032889" y="465.838125" style="stroke: #000000; stroke-width: 0.8"/>
      </g>
     </g>
     <g id="text_4">
      <!-- 300 -->
      <g transform="translate(447.489139 480.436562) scale(0.1 -0.1)">
       <defs>
        <path id="DejaVuSans-33" d="M 2597 2516 
Q 3050 2419 3304 2112 
Q 3559 1806 3559 1356 
Q 3559 666 3084 287 
Q 2609 -91 1734 -91 
Q 1441 -91 1130 -33 
Q 819 25 488 141 
L 488 750 
Q 750 597 1062 519 
Q 1375 441 1716 441 
Q 2309 441 2620 675 
Q 2931 909 2931 1356 
Q 2931 1769 2642 2001 
Q 2353 2234 1838 2234 
L 1294 2234 
L 1294 2753 
L 1863 2753 
Q 2328 2753 2575 2939 
Q 2822 3125 2822 3475 
Q 2822 3834 2567 4026 
Q 2313 4219 1838 4219 
Q 1578 4219 1281 4162 
Q 984 4106 628 3988 
L 628 4550 
Q 988 4650 1302 4700 
Q 1616 4750 1894 4750 
Q 2613 4750 3031 4423 
Q 3450 4097 3450 3541 
Q 3450 3153 3228 2886 
Q 3006 2619 2597 2516 
z
" transform="scale(0.015625)"/>
       </defs>
       <use xlink:href="#DejaVuSans-33"/>
       <use xlink:href="#DejaVuSans-30" x="63.623047"/>
       <use xlink:href="#DejaVuSans-30" x="127.246094"/>
      </g>
     </g>
    </g>
    <g id="xtick_5">
     <g id="line2d_5">
      <g>
       <use xlink:href="#m922e2e0099" x="580.194705" y="465.838125" style="stroke: #000000; stroke-width: 0.8"/>
      </g>
     </g>
     <g id="text_5">
      <!-- 400 -->
      <g transform="translate(570.650955 480.436562) scale(0.1 -0.1)">
       <defs>
        <path id="DejaVuSans-34" d="M 2419 4116 
L 825 1625 
L 2419 1625 
L 2419 4116 
z
M 2253 4666 
L 3047 4666 
L 3047 1625 
L 3713 1625 
L 3713 1100 
L 3047 1100 
L 3047 0 
L 2419 0 
L 2419 1100 
L 313 1100 
L 313 1709 
L 2253 4666 
z
" transform="scale(0.015625)"/>
       </defs>
       <use xlink:href="#DejaVuSans-34"/>
       <use xlink:href="#DejaVuSans-30" x="63.623047"/>
       <use xlink:href="#DejaVuSans-30" x="127.246094"/>
      </g>
     </g>
    </g>
    <g id="xtick_6">
     <g id="line2d_6">
      <g>
       <use xlink:href="#m922e2e0099" x="703.35652" y="465.838125" style="stroke: #000000; stroke-width: 0.8"/>
      </g>
     </g>
     <g id="text_6">
      <!-- 500 -->
      <g transform="translate(693.81277 480.436562) scale(0.1 -0.1)">
       <defs>
        <path id="DejaVuSans-35" d="M 691 4666 
L 3169 4666 
L 3169 4134 
L 1269 4134 
L 1269 2991 
Q 1406 3038 1543 3061 
Q 1681 3084 1819 3084 
Q 2600 3084 3056 2656 
Q 3513 2228 3513 1497 
Q 3513 744 3044 326 
Q 2575 -91 1722 -91 
Q 1428 -91 1123 -41 
Q 819 9 494 109 
L 494 744 
Q 775 591 1075 516 
Q 1375 441 1709 441 
Q 2250 441 2565 725 
Q 2881 1009 2881 1497 
Q 2881 1984 2565 2268 
Q 2250 2553 1709 2553 
Q 1456 2553 1204 2497 
Q 953 2441 691 2322 
L 691 4666 
z
" transform="scale(0.015625)"/>
       </defs>
       <use xlink:href="#DejaVuSans-35"/>
       <use xlink:href="#DejaVuSans-30" x="63.623047"/>
       <use xlink:href="#DejaVuSans-30" x="127.246094"/>
      </g>
     </g>
    </g>
    <g id="xtick_7">
     <g id="line2d_7">
      <g>
       <use xlink:href="#m922e2e0099" x="826.518336" y="465.838125" style="stroke: #000000; stroke-width: 0.8"/>
      </g>
     </g>
     <g id="text_7">
      <!-- 600 -->
      <g transform="translate(816.974586 480.436562) scale(0.1 -0.1)">
       <defs>
        <path id="DejaVuSans-36" d="M 2113 2584 
Q 1688 2584 1439 2293 
Q 1191 2003 1191 1497 
Q 1191 994 1439 701 
Q 1688 409 2113 409 
Q 2538 409 2786 701 
Q 3034 994 3034 1497 
Q 3034 2003 2786 2293 
Q 2538 2584 2113 2584 
z
M 3366 4563 
L 3366 3988 
Q 3128 4100 2886 4159 
Q 2644 4219 2406 4219 
Q 1781 4219 1451 3797 
Q 1122 3375 1075 2522 
Q 1259 2794 1537 2939 
Q 1816 3084 2150 3084 
Q 2853 3084 3261 2657 
Q 3669 2231 3669 1497 
Q 3669 778 3244 343 
Q 2819 -91 2113 -91 
Q 1303 -91 875 529 
Q 447 1150 447 2328 
Q 447 3434 972 4092 
Q 1497 4750 2381 4750 
Q 2619 4750 2861 4703 
Q 3103 4656 3366 4563 
z
" transform="scale(0.015625)"/>
       </defs>
       <use xlink:href="#DejaVuSans-36"/>
       <use xlink:href="#DejaVuSans-30" x="63.623047"/>
       <use xlink:href="#DejaVuSans-30" x="127.246094"/>
      </g>
     </g>
    </g>
    <g id="text_8">
     <!-- Time -->
     <g transform="translate(481.132031 494.114687) scale(0.1 -0.1)">
      <defs>
       <path id="DejaVuSans-54" d="M -19 4666 
L 3928 4666 
L 3928 4134 
L 2272 4134 
L 2272 0 
L 1638 0 
L 1638 4134 
L -19 4134 
L -19 4666 
z
" transform="scale(0.015625)"/>
       <path id="DejaVuSans-69" d="M 603 3500 
L 1178 3500 
L 1178 0 
L 603 0 
L 603 3500 
z
M 603 4863 
L 1178 4863 
L 1178 4134 
L 603 4134 
L 603 4863 
z
" transform="scale(0.015625)"/>
       <path id="DejaVuSans-6d" d="M 3328 2828 
Q 3544 3216 3844 3400 
Q 4144 3584 4550 3584 
Q 5097 3584 5394 3201 
Q 5691 2819 5691 2113 
L 5691 0 
L 5113 0 
L 5113 2094 
Q 5113 2597 4934 2840 
Q 4756 3084 4391 3084 
Q 3944 3084 3684 2787 
Q 3425 2491 3425 1978 
L 3425 0 
L 2847 0 
L 2847 2094 
Q 2847 2600 2669 2842 
Q 2491 3084 2119 3084 
Q 1678 3084 1418 2786 
Q 1159 2488 1159 1978 
L 1159 0 
L 581 0 
L 581 3500 
L 1159 3500 
L 1159 2956 
Q 1356 3278 1631 3431 
Q 1906 3584 2284 3584 
Q 2666 3584 2933 3390 
Q 3200 3197 3328 2828 
z
" transform="scale(0.015625)"/>
       <path id="DejaVuSans-65" d="M 3597 1894 
L 3597 1613 
L 953 1613 
Q 991 1019 1311 708 
Q 1631 397 2203 397 
Q 2534 397 2845 478 
Q 3156 559 3463 722 
L 3463 178 
Q 3153 47 2828 -22 
Q 2503 -91 2169 -91 
Q 1331 -91 842 396 
Q 353 884 353 1716 
Q 353 2575 817 3079 
Q 1281 3584 2069 3584 
Q 2775 3584 3186 3129 
Q 3597 2675 3597 1894 
z
M 3022 2063 
Q 3016 2534 2758 2815 
Q 2500 3097 2075 3097 
Q 1594 3097 1305 2825 
Q 1016 2553 972 2059 
L 3022 2063 
z
" transform="scale(0.015625)"/>
      </defs>
      <use xlink:href="#DejaVuSans-54"/>
      <use xlink:href="#DejaVuSans-69" x="57.958984"/>
      <use xlink:href="#DejaVuSans-6d" x="85.742188"/>
      <use xlink:href="#DejaVuSans-65" x="183.154297"/>
     </g>
    </g>
   </g>
   <g id="matplotlib.axis_2">
    <g id="ytick_1">
     <g id="line2d_8">
      <defs>
       <path id="m6e9f0867b1" d="M 0 0 
L -3.5 0 
" style="stroke: #000000; stroke-width: 0.8"/>
      </defs>
      <g>
       <use xlink:href="#m6e9f0867b1" x="46.965625" y="457.345431" style="stroke: #000000; stroke-width: 0.8"/>
      </g>
     </g>
     <g id="text_9">
      <!-- 120 -->
      <g transform="translate(20.878125 461.14465) scale(0.1 -0.1)">
       <use xlink:href="#DejaVuSans-31"/>
       <use xlink:href="#DejaVuSans-32" x="63.623047"/>
       <use xlink:href="#DejaVuSans-30" x="127.246094"/>
      </g>
     </g>
    </g>
    <g id="ytick_2">
     <g id="line2d_9">
      <g>
       <use xlink:href="#m6e9f0867b1" x="46.965625" y="403.078941" style="stroke: #000000; stroke-width: 0.8"/>
      </g>
     </g>
     <g id="text_10">
      <!-- 130 -->
      <g transform="translate(20.878125 406.878159) scale(0.1 -0.1)">
       <use xlink:href="#DejaVuSans-31"/>
       <use xlink:href="#DejaVuSans-33" x="63.623047"/>
       <use xlink:href="#DejaVuSans-30" x="127.246094"/>
      </g>
     </g>
    </g>
    <g id="ytick_3">
     <g id="line2d_10">
      <g>
       <use xlink:href="#m6e9f0867b1" x="46.965625" y="348.81245" style="stroke: #000000; stroke-width: 0.8"/>
      </g>
     </g>
     <g id="text_11">
      <!-- 140 -->
      <g transform="translate(20.878125 352.611668) scale(0.1 -0.1)">
       <use xlink:href="#DejaVuSans-31"/>
       <use xlink:href="#DejaVuSans-34" x="63.623047"/>
       <use xlink:href="#DejaVuSans-30" x="127.246094"/>
      </g>
     </g>
    </g>
    <g id="ytick_4">
     <g id="line2d_11">
      <g>
       <use xlink:href="#m6e9f0867b1" x="46.965625" y="294.545959" style="stroke: #000000; stroke-width: 0.8"/>
      </g>
     </g>
     <g id="text_12">
      <!-- 150 -->
      <g transform="translate(20.878125 298.345178) scale(0.1 -0.1)">
       <use xlink:href="#DejaVuSans-31"/>
       <use xlink:href="#DejaVuSans-35" x="63.623047"/>
       <use xlink:href="#DejaVuSans-30" x="127.246094"/>
      </g>
     </g>
    </g>
    <g id="ytick_5">
     <g id="line2d_12">
      <g>
       <use xlink:href="#m6e9f0867b1" x="46.965625" y="240.279468" style="stroke: #000000; stroke-width: 0.8"/>
      </g>
     </g>
     <g id="text_13">
      <!-- 160 -->
      <g transform="translate(20.878125 244.078687) scale(0.1 -0.1)">
       <use xlink:href="#DejaVuSans-31"/>
       <use xlink:href="#DejaVuSans-36" x="63.623047"/>
       <use xlink:href="#DejaVuSans-30" x="127.246094"/>
      </g>
     </g>
    </g>
    <g id="ytick_6">
     <g id="line2d_13">
      <g>
       <use xlink:href="#m6e9f0867b1" x="46.965625" y="186.012977" style="stroke: #000000; stroke-width: 0.8"/>
      </g>
     </g>
     <g id="text_14">
      <!-- 170 -->
      <g transform="translate(20.878125 189.812196) scale(0.1 -0.1)">
       <defs>
        <path id="DejaVuSans-37" d="M 525 4666 
L 3525 4666 
L 3525 4397 
L 1831 0 
L 1172 0 
L 2766 4134 
L 525 4134 
L 525 4666 
z
" transform="scale(0.015625)"/>
       </defs>
       <use xlink:href="#DejaVuSans-31"/>
       <use xlink:href="#DejaVuSans-37" x="63.623047"/>
       <use xlink:href="#DejaVuSans-30" x="127.246094"/>
      </g>
     </g>
    </g>
    <g id="ytick_7">
     <g id="line2d_14">
      <g>
       <use xlink:href="#m6e9f0867b1" x="46.965625" y="131.746486" style="stroke: #000000; stroke-width: 0.8"/>
      </g>
     </g>
     <g id="text_15">
      <!-- 180 -->
      <g transform="translate(20.878125 135.545705) scale(0.1 -0.1)">
       <defs>
        <path id="DejaVuSans-38" d="M 2034 2216 
Q 1584 2216 1326 1975 
Q 1069 1734 1069 1313 
Q 1069 891 1326 650 
Q 1584 409 2034 409 
Q 2484 409 2743 651 
Q 3003 894 3003 1313 
Q 3003 1734 2745 1975 
Q 2488 2216 2034 2216 
z
M 1403 2484 
Q 997 2584 770 2862 
Q 544 3141 544 3541 
Q 544 4100 942 4425 
Q 1341 4750 2034 4750 
Q 2731 4750 3128 4425 
Q 3525 4100 3525 3541 
Q 3525 3141 3298 2862 
Q 3072 2584 2669 2484 
Q 3125 2378 3379 2068 
Q 3634 1759 3634 1313 
Q 3634 634 3220 271 
Q 2806 -91 2034 -91 
Q 1263 -91 848 271 
Q 434 634 434 1313 
Q 434 1759 690 2068 
Q 947 2378 1403 2484 
z
M 1172 3481 
Q 1172 3119 1398 2916 
Q 1625 2713 2034 2713 
Q 2441 2713 2670 2916 
Q 2900 3119 2900 3481 
Q 2900 3844 2670 4047 
Q 2441 4250 2034 4250 
Q 1625 4250 1398 4047 
Q 1172 3844 1172 3481 
z
" transform="scale(0.015625)"/>
       </defs>
       <use xlink:href="#DejaVuSans-31"/>
       <use xlink:href="#DejaVuSans-38" x="63.623047"/>
       <use xlink:href="#DejaVuSans-30" x="127.246094"/>
      </g>
     </g>
    </g>
    <g id="ytick_8">
     <g id="line2d_15">
      <g>
       <use xlink:href="#m6e9f0867b1" x="46.965625" y="77.479995" style="stroke: #000000; stroke-width: 0.8"/>
      </g>
     </g>
     <g id="text_16">
      <!-- 190 -->
      <g transform="translate(20.878125 81.279214) scale(0.1 -0.1)">
       <defs>
        <path id="DejaVuSans-39" d="M 703 97 
L 703 672 
Q 941 559 1184 500 
Q 1428 441 1663 441 
Q 2288 441 2617 861 
Q 2947 1281 2994 2138 
Q 2813 1869 2534 1725 
Q 2256 1581 1919 1581 
Q 1219 1581 811 2004 
Q 403 2428 403 3163 
Q 403 3881 828 4315 
Q 1253 4750 1959 4750 
Q 2769 4750 3195 4129 
Q 3622 3509 3622 2328 
Q 3622 1225 3098 567 
Q 2575 -91 1691 -91 
Q 1453 -91 1209 -44 
Q 966 3 703 97 
z
M 1959 2075 
Q 2384 2075 2632 2365 
Q 2881 2656 2881 3163 
Q 2881 3666 2632 3958 
Q 2384 4250 1959 4250 
Q 1534 4250 1286 3958 
Q 1038 3666 1038 3163 
Q 1038 2656 1286 2365 
Q 1534 2075 1959 2075 
z
" transform="scale(0.015625)"/>
       </defs>
       <use xlink:href="#DejaVuSans-31"/>
       <use xlink:href="#DejaVuSans-39" x="63.623047"/>
       <use xlink:href="#DejaVuSans-30" x="127.246094"/>
      </g>
     </g>
    </g>
    <g id="ytick_9">
     <g id="line2d_16">
      <g>
       <use xlink:href="#m6e9f0867b1" x="46.965625" y="23.213504" style="stroke: #000000; stroke-width: 0.8"/>
      </g>
     </g>
     <g id="text_17">
      <!-- 200 -->
      <g transform="translate(20.878125 27.012723) scale(0.1 -0.1)">
       <use xlink:href="#DejaVuSans-32"/>
       <use xlink:href="#DejaVuSans-30" x="63.623047"/>
       <use xlink:href="#DejaVuSans-30" x="127.246094"/>
      </g>
     </g>
    </g>
    <g id="text_18">
     <!-- Stock Price -->
     <g transform="translate(14.798438 271.703125) rotate(-90) scale(0.1 -0.1)">
      <defs>
       <path id="DejaVuSans-53" d="M 3425 4513 
L 3425 3897 
Q 3066 4069 2747 4153 
Q 2428 4238 2131 4238 
Q 1616 4238 1336 4038 
Q 1056 3838 1056 3469 
Q 1056 3159 1242 3001 
Q 1428 2844 1947 2747 
L 2328 2669 
Q 3034 2534 3370 2195 
Q 3706 1856 3706 1288 
Q 3706 609 3251 259 
Q 2797 -91 1919 -91 
Q 1588 -91 1214 -16 
Q 841 59 441 206 
L 441 856 
Q 825 641 1194 531 
Q 1563 422 1919 422 
Q 2459 422 2753 634 
Q 3047 847 3047 1241 
Q 3047 1584 2836 1778 
Q 2625 1972 2144 2069 
L 1759 2144 
Q 1053 2284 737 2584 
Q 422 2884 422 3419 
Q 422 4038 858 4394 
Q 1294 4750 2059 4750 
Q 2388 4750 2728 4690 
Q 3069 4631 3425 4513 
z
" transform="scale(0.015625)"/>
       <path id="DejaVuSans-74" d="M 1172 4494 
L 1172 3500 
L 2356 3500 
L 2356 3053 
L 1172 3053 
L 1172 1153 
Q 1172 725 1289 603 
Q 1406 481 1766 481 
L 2356 481 
L 2356 0 
L 1766 0 
Q 1100 0 847 248 
Q 594 497 594 1153 
L 594 3053 
L 172 3053 
L 172 3500 
L 594 3500 
L 594 4494 
L 1172 4494 
z
" transform="scale(0.015625)"/>
       <path id="DejaVuSans-6f" d="M 1959 3097 
Q 1497 3097 1228 2736 
Q 959 2375 959 1747 
Q 959 1119 1226 758 
Q 1494 397 1959 397 
Q 2419 397 2687 759 
Q 2956 1122 2956 1747 
Q 2956 2369 2687 2733 
Q 2419 3097 1959 3097 
z
M 1959 3584 
Q 2709 3584 3137 3096 
Q 3566 2609 3566 1747 
Q 3566 888 3137 398 
Q 2709 -91 1959 -91 
Q 1206 -91 779 398 
Q 353 888 353 1747 
Q 353 2609 779 3096 
Q 1206 3584 1959 3584 
z
" transform="scale(0.015625)"/>
       <path id="DejaVuSans-63" d="M 3122 3366 
L 3122 2828 
Q 2878 2963 2633 3030 
Q 2388 3097 2138 3097 
Q 1578 3097 1268 2742 
Q 959 2388 959 1747 
Q 959 1106 1268 751 
Q 1578 397 2138 397 
Q 2388 397 2633 464 
Q 2878 531 3122 666 
L 3122 134 
Q 2881 22 2623 -34 
Q 2366 -91 2075 -91 
Q 1284 -91 818 406 
Q 353 903 353 1747 
Q 353 2603 823 3093 
Q 1294 3584 2113 3584 
Q 2378 3584 2631 3529 
Q 2884 3475 3122 3366 
z
" transform="scale(0.015625)"/>
       <path id="DejaVuSans-6b" d="M 581 4863 
L 1159 4863 
L 1159 1991 
L 2875 3500 
L 3609 3500 
L 1753 1863 
L 3688 0 
L 2938 0 
L 1159 1709 
L 1159 0 
L 581 0 
L 581 4863 
z
" transform="scale(0.015625)"/>
       <path id="DejaVuSans-20" transform="scale(0.015625)"/>
       <path id="DejaVuSans-50" d="M 1259 4147 
L 1259 2394 
L 2053 2394 
Q 2494 2394 2734 2622 
Q 2975 2850 2975 3272 
Q 2975 3691 2734 3919 
Q 2494 4147 2053 4147 
L 1259 4147 
z
M 628 4666 
L 2053 4666 
Q 2838 4666 3239 4311 
Q 3641 3956 3641 3272 
Q 3641 2581 3239 2228 
Q 2838 1875 2053 1875 
L 1259 1875 
L 1259 0 
L 628 0 
L 628 4666 
z
" transform="scale(0.015625)"/>
       <path id="DejaVuSans-72" d="M 2631 2963 
Q 2534 3019 2420 3045 
Q 2306 3072 2169 3072 
Q 1681 3072 1420 2755 
Q 1159 2438 1159 1844 
L 1159 0 
L 581 0 
L 581 3500 
L 1159 3500 
L 1159 2956 
Q 1341 3275 1631 3429 
Q 1922 3584 2338 3584 
Q 2397 3584 2469 3576 
Q 2541 3569 2628 3553 
L 2631 2963 
z
" transform="scale(0.015625)"/>
      </defs>
      <use xlink:href="#DejaVuSans-53"/>
      <use xlink:href="#DejaVuSans-74" x="63.476562"/>
      <use xlink:href="#DejaVuSans-6f" x="102.685547"/>
      <use xlink:href="#DejaVuSans-63" x="163.867188"/>
      <use xlink:href="#DejaVuSans-6b" x="218.847656"/>
      <use xlink:href="#DejaVuSans-20" x="276.757812"/>
      <use xlink:href="#DejaVuSans-50" x="308.544922"/>
      <use xlink:href="#DejaVuSans-72" x="367.097656"/>
      <use xlink:href="#DejaVuSans-69" x="408.210938"/>
      <use xlink:href="#DejaVuSans-63" x="435.994141"/>
      <use xlink:href="#DejaVuSans-65" x="490.974609"/>
     </g>
    </g>
   </g>
   <g id="line2d_17">
    <path d="M 87.547443 445.678125 
L 88.779061 441.065484 
L 90.010679 425.328191 
L 91.242298 423.645946 
L 92.473916 414.474893 
L 94.937152 386.798993 
L 96.16877 396.349869 
L 97.400388 379.038923 
L 98.632007 392.062848 
L 99.863625 378.65902 
L 101.095243 380.504059 
L 102.326861 376.813981 
L 103.558479 386.202056 
L 104.790097 384.085669 
L 106.021715 392.55123 
L 107.253334 379.635778 
L 108.484952 377.465151 
L 109.71657 379.255956 
L 110.948188 383.651526 
L 112.179806 384.194223 
L 113.411424 395.155995 
L 114.643043 389.29529 
L 115.874661 414.746247 
L 117.106279 413.389541 
L 118.337897 404.489842 
L 119.569515 401.939306 
L 120.801133 420.172896 
L 122.032752 425.273914 
L 123.26437 442.31363 
L 124.495988 430.37498 
L 125.727606 416.916912 
L 126.959224 423.320358 
L 128.190842 431.026194 
L 129.42246 431.894436 
L 130.654079 417.676637 
L 131.885697 427.878727 
L 133.117315 418.816234 
L 134.348933 419.901542 
L 135.580551 420.172896 
L 136.812169 428.69273 
L 138.043788 432.328574 
L 139.275406 434.119379 
L 140.507024 429.886598 
L 141.738642 438.135088 
L 142.97026 425.382474 
L 144.201878 425.328191 
L 145.433496 420.769827 
L 146.665115 418.65344 
L 147.896733 424.1886 
L 149.128351 417.459571 
L 150.359969 400.474171 
L 151.591587 405.03254 
L 152.823205 402.264976 
L 154.054824 393.365277 
L 155.286442 400.582644 
L 157.749678 381.480899 
L 161.444532 386.202056 
L 163.907769 368.728241 
L 165.139387 365.309425 
L 166.371005 363.62718 
L 167.602623 349.029478 
L 168.834241 337.850597 
L 170.06586 324.012625 
L 171.297478 331.230079 
L 172.529096 321.082267 
L 173.760714 324.392529 
L 174.992332 318.206154 
L 176.22395 299.158643 
L 177.455568 302.794487 
L 178.687187 314.136167 
L 179.918805 335.517176 
L 181.150423 315.43859 
L 182.382041 319.508577 
L 183.613659 311.91122 
L 184.845277 302.360344 
L 186.076896 300.026847 
L 187.308514 312.074014 
L 188.540132 321.787759 
L 189.77175 318.206154 
L 191.003368 317.012281 
L 192.234986 318.857325 
L 193.466604 308.872307 
L 194.698223 311.097255 
L 195.929841 310.500318 
L 197.161459 315.49283 
L 198.393077 315.764178 
L 199.624695 318.423182 
L 200.856313 317.012281 
L 202.087932 300.569545 
L 203.31955 299.42991 
L 204.551168 288.468139 
L 205.782786 293.514885 
L 207.014404 314.298956 
L 208.246022 312.453917 
L 210.709259 296.119649 
L 211.940877 296.608113 
L 213.172495 303.445658 
L 214.404113 307.895554 
L 215.635731 302.143235 
L 216.867349 277.614841 
L 218.098968 284.61518 
L 219.330586 280.925097 
L 220.562204 274.738722 
L 221.793822 271.211351 
L 223.02544 258.241666 
L 224.257058 266.815777 
L 225.488676 272.459459 
L 226.720295 300.135402 
L 227.951913 296.987935 
L 229.183531 304.748086 
L 230.415149 299.809814 
L 231.646767 301.112242 
L 232.878385 315.926967 
L 234.110004 332.85809 
L 235.341622 330.199081 
L 236.57324 317.06652 
L 237.804858 311.748426 
L 239.036476 311.260049 
L 240.268094 319.671371 
L 241.499712 338.447528 
L 242.731331 333.455022 
L 243.962949 340.672476 
L 245.194567 334.431862 
L 246.426185 353.479373 
L 247.657803 342.788864 
L 248.889421 337.959151 
L 250.12104 330.958812 
L 251.352658 333.0752 
L 252.584276 333.563577 
L 253.815894 340.618237 
L 255.047512 343.874177 
L 256.27913 328.408276 
L 257.510748 322.54749 
L 258.742367 313.267882 
L 259.973985 301.275031 
L 261.205603 298.561706 
L 262.437221 297.367838 
L 263.668839 301.654858 
L 264.900457 301.926207 
L 266.132076 298.236042 
L 267.363694 300.786573 
L 268.595312 280.599433 
L 269.82693 295.631272 
L 271.058548 300.189636 
L 272.290166 294.437404 
L 273.521784 286.460225 
L 274.753403 289.336338 
L 275.985021 287.599853 
L 277.216639 292.158222 
L 278.448257 290.150384 
L 279.679875 305.8334 
L 280.911493 306.104748 
L 282.143112 294.600198 
L 283.37473 294.545959 
L 284.606348 289.11931 
L 285.837966 275.606926 
L 287.069584 251.838258 
L 288.301202 237.294795 
L 289.53282 234.744264 
L 290.764439 232.627871 
L 291.996057 229.751758 
L 293.227675 257.590489 
L 294.459293 238.977045 
L 295.690911 211.518211 
L 296.922529 214.39433 
L 298.154148 219.875294 
L 299.385766 230.294455 
L 300.617384 211.409657 
L 301.849002 179.609569 
L 303.08062 158.445589 
L 304.312238 161.267468 
L 305.543856 134.731159 
L 306.775475 154.863984 
L 308.007093 162.515576 
L 309.238711 135.545124 
L 310.470329 173.748777 
L 311.701947 179.826603 
L 312.933565 187.369639 
L 314.165184 169.787269 
L 315.396802 155.406682 
L 316.62842 151.933626 
L 317.860038 129.955681 
L 319.091656 135.599445 
L 320.323274 135.110981 
L 321.554892 141.514471 
L 322.786511 144.933205 
L 324.018129 120.838949 
L 325.249747 133.374497 
L 326.481365 159.313874 
L 327.712983 175.159679 
L 328.944601 174.237159 
L 330.17622 174.128605 
L 331.407838 158.445589 
L 332.639456 156.003613 
L 333.871074 174.128605 
L 335.102692 169.353126 
L 336.33431 187.098291 
L 337.565928 206.471466 
L 338.797547 215.805308 
L 340.029165 227.201222 
L 341.260783 231.488324 
L 342.492401 241.473336 
L 343.724019 241.961718 
L 344.955637 244.512249 
L 346.187256 184.222172 
L 347.418874 160.0736 
L 348.650492 160.996119 
L 349.88211 154.321368 
L 351.113728 170.275727 
L 352.345346 173.043291 
L 353.576964 177.004718 
L 354.808583 159.802251 
L 356.040201 151.933626 
L 357.271819 174.508508 
L 358.503437 193.393225 
L 359.735055 192.090797 
L 360.966673 170.872664 
L 362.198292 172.175006 
L 363.42991 192.090797 
L 364.661528 200.664913 
L 365.893146 216.836306 
L 367.124764 239.899565 
L 368.356382 225.410422 
L 369.588001 213.960187 
L 370.819619 212.495052 
L 372.051237 222.914207 
L 373.282855 204.680661 
L 374.514473 206.471466 
L 375.746091 223.077001 
L 376.977709 244.078106 
L 378.209328 254.171679 
L 379.440946 224.270869 
L 380.672564 248.310887 
L 383.1358 291.181463 
L 385.599037 242.504416 
L 386.830655 236.914973 
L 388.062273 218.681426 
L 389.293891 211.084069 
L 390.525509 192.416385 
L 391.757127 184.873343 
L 392.988745 163.926477 
L 394.220364 160.399188 
L 395.451982 155.62371 
L 396.6836 137.390163 
L 397.915218 143.847892 
L 399.146836 160.996119 
L 400.378454 162.62413 
L 401.610073 140.212048 
L 404.073309 176.082198 
L 405.304927 174.399953 
L 406.536545 185.5246 
L 407.768163 209.076236 
L 408.999781 198.711314 
L 410.2314 183.84235 
L 411.463018 211.572532 
L 412.694636 212.766319 
L 413.926254 200.122297 
L 415.157872 201.044817 
L 416.38949 205.440392 
L 417.621109 230.565804 
L 418.852727 224.650691 
L 420.084345 257.644729 
L 421.315963 258.892836 
L 422.547581 220.526471 
L 423.779199 253.032126 
L 425.010817 251.349794 
L 426.242436 243.101347 
L 427.474054 207.611019 
L 428.705672 257.807523 
L 429.93729 255.039959 
L 431.168908 283.367073 
L 432.400526 270.071799 
L 433.632145 313.539231 
L 434.863763 334.920239 
L 436.095381 310.228969 
L 437.326999 318.748852 
L 438.558617 298.670185 
L 439.790235 344.362559 
L 441.021853 363.193037 
L 442.253472 361.890696 
L 443.48509 331.935566 
L 444.716708 346.858851 
L 445.948326 345.99057 
L 447.179944 328.299722 
L 448.411562 296.499558 
L 449.643181 300.840893 
L 450.874799 301.546298 
L 452.106417 287.979675 
L 453.338035 319.61705 
L 454.569653 315.49283 
L 455.801271 301.546298 
L 457.032889 305.616285 
L 460.727744 392.876813 
L 461.959362 388.101416 
L 463.19098 373.612274 
L 464.422598 402.753352 
L 465.654217 394.613379 
L 466.885835 371.224538 
L 468.117453 374.046335 
L 469.349071 358.200531 
L 470.580689 339.80419 
L 471.812307 339.80419 
L 473.043925 362.70466 
L 474.275544 352.990991 
L 475.507162 366.611853 
L 476.73878 354.619002 
L 477.970398 340.346888 
L 479.202016 332.966645 
L 480.433634 314.353195 
L 481.665253 310.608878 
L 482.896871 322.384696 
L 484.128489 317.012281 
L 485.360107 319.020119 
L 486.591725 302.848726 
L 487.823343 293.623439 
L 489.054961 310.446003 
L 490.28658 289.11931 
L 491.518198 278.048984 
L 492.749816 265.513354 
L 493.981434 272.350986 
L 495.213052 278.53736 
L 496.44467 285.863288 
L 497.676289 257.699049 
L 498.907907 254.660055 
L 500.139525 226.658606 
L 501.371143 232.085255 
L 502.602761 240.225229 
L 503.834379 207.014082 
L 505.065997 208.750648 
L 507.529234 213.851714 
L 508.760852 213.580365 
L 509.99247 190.137203 
L 511.224088 194.20719 
L 512.455706 174.616981 
L 513.687325 168.701956 
L 514.918943 169.570236 
L 516.150561 161.321707 
L 517.382179 163.492416 
L 518.613797 177.764449 
L 519.845415 199.199696 
L 521.077033 201.044817 
L 522.308652 199.416806 
L 523.54027 185.850183 
L 524.771888 220.635025 
L 526.003506 232.790665 
L 527.235124 246.194494 
L 528.466742 255.365547 
L 529.698361 251.349794 
L 530.929979 263.017138 
L 532.161597 269.963244 
L 533.393215 262.203092 
L 534.624833 270.343066 
L 535.856451 254.551582 
L 537.088069 221.6661 
L 538.319688 273.707648 
L 539.551306 265.730463 
L 540.782924 281.684828 
L 542.014542 290.747321 
L 543.24616 270.234593 
L 544.477778 257.102113 
L 545.709397 274.358819 
L 546.941015 279.676913 
L 548.172633 292.212538 
L 549.404251 290.367417 
L 550.635869 284.995084 
L 551.867487 295.414244 
L 553.099105 335.354382 
L 554.330724 358.580434 
L 555.562342 335.517176 
L 556.79396 315.709858 
L 558.025578 314.081928 
L 559.257196 319.345783 
L 560.488814 348.324073 
L 561.720433 346.533268 
L 562.952051 354.347653 
L 564.183669 357.820709 
L 565.415287 332.586742 
L 566.646905 357.603594 
L 567.878523 335.734204 
L 569.110141 328.462516 
L 570.34176 327.865579 
L 571.573378 330.416115 
L 572.804996 309.360689 
L 574.036614 297.530632 
L 575.268232 281.847622 
L 576.49985 298.073248 
L 577.731469 322.764518 
L 578.963087 263.396966 
L 580.194705 276.420973 
L 581.426323 291.018669 
L 582.657941 321.51641 
L 583.889559 354.89027 
L 585.121177 357.603594 
L 587.584414 351.525774 
L 588.816032 376.651187 
L 590.04765 311.531398 
L 591.279268 296.17397 
L 592.510886 303.879801 
L 593.742505 294.328931 
L 594.974123 301.112242 
L 596.205741 290.638766 
L 597.437359 287.545619 
L 598.668977 305.345018 
L 599.900595 293.5692 
L 601.132213 288.739406 
L 602.363832 304.80232 
L 603.59545 325.911985 
L 604.827068 342.463281 
L 606.058686 305.236463 
L 607.290304 303.717007 
L 608.521922 306.430331 
L 609.753541 312.833739 
L 610.985159 333.020879 
L 612.216777 343.711389 
L 613.448395 334.431862 
L 614.680013 337.090866 
L 615.911631 324.446768 
L 617.143249 319.128674 
L 618.374868 331.392868 
L 619.606486 367.805721 
L 622.069722 390.217809 
L 623.30134 390.597631 
L 624.532958 373.503719 
L 625.764577 390.977535 
L 626.996195 392.985368 
L 628.227813 402.916146 
L 629.459431 424.568465 
L 630.691049 405.195328 
L 631.922667 403.458844 
L 633.154286 429.832321 
L 634.385904 422.831938 
L 635.617522 430.103669 
L 636.84914 405.141094 
L 639.312376 399.117508 
L 640.543994 384.139908 
L 641.775613 384.574045 
L 643.007231 377.248118 
L 644.238849 370.844634 
L 645.470467 374.806061 
L 646.702085 374.480478 
L 647.933703 360.371239 
L 649.165322 342.788864 
L 650.39694 335.083033 
L 651.628558 338.718877 
L 654.091794 316.632459 
L 655.323412 332.532502 
L 656.55503 325.532163 
L 657.786649 319.345783 
L 659.018267 290.096069 
L 660.249885 270.126038 
L 661.481503 285.157878 
L 662.713121 269.312073 
L 663.944739 284.126803 
L 665.176358 289.824801 
L 666.407976 289.06507 
L 667.639594 273.653327 
L 668.871212 277.180698 
L 670.10283 265.621908 
L 671.334448 274.413053 
L 672.566066 280.707987 
L 673.797685 302.794487 
L 675.029303 300.460985 
L 676.260921 297.801981 
L 677.492539 312.399596 
L 678.724157 305.8334 
L 679.955775 308.600958 
L 681.187394 319.996954 
L 682.419012 316.740932 
L 683.65063 288.956516 
L 684.882248 273.761882 
L 686.113866 285.863288 
L 687.345484 278.971503 
L 689.808721 302.685932 
L 692.271957 280.490959 
L 693.503575 278.320251 
L 694.735193 262.800029 
L 695.966811 267.412713 
L 697.19843 254.388788 
L 698.430048 244.186661 
L 699.661666 252.055286 
L 700.893284 246.08602 
L 702.124902 238.922806 
L 703.35652 249.61331 
L 704.588138 253.032126 
L 705.819757 236.100926 
L 707.051375 227.472571 
L 708.282993 213.68892 
L 709.514611 206.797054 
L 710.746229 209.727406 
L 711.977847 219.875294 
L 713.209466 214.991261 
L 714.441084 229.263376 
L 715.672702 235.938132 
L 716.90432 239.73677 
L 718.135938 210.10731 
L 719.367556 212.006588 
L 720.599174 211.898115 
L 723.062411 198.874108 
L 724.294029 204.192284 
L 725.525647 213.037668 
L 726.757265 211.355417 
L 727.988883 219.820979 
L 729.220502 219.875294 
L 730.45212 194.641327 
L 731.683738 187.749543 
L 732.915356 188.237925 
L 735.378592 199.850949 
L 736.61021 208.859208 
L 737.841829 166.639802 
L 739.073447 167.019705 
L 740.305065 176.407786 
L 741.536683 166.694117 
L 742.768301 165.663043 
L 743.999919 172.066451 
L 745.231538 174.779775 
L 746.463156 174.779775 
L 747.694774 171.41528 
L 748.926392 158.608383 
L 750.15801 158.011446 
L 751.389628 163.221067 
L 752.621246 177.547415 
L 753.852865 176.027964 
L 755.084483 169.787269 
L 756.316101 156.546311 
L 757.547719 146.398422 
L 758.779337 146.669771 
L 760.010955 131.258109 
L 761.242574 126.591186 
L 762.474192 134.025668 
L 763.70581 136.033501 
L 764.937428 143.576543 
L 766.169046 128.653258 
L 767.400664 126.536865 
L 768.632282 111.179524 
L 769.863901 113.784289 
L 771.095519 110.311239 
L 772.327137 99.132352 
L 773.558755 105.047384 
L 774.790373 104.559001 
L 776.021991 110.256918 
L 777.25361 93.759943 
L 778.485228 95.496508 
L 779.716846 103.148024 
L 780.948464 88.007705 
L 782.180082 81.549982 
L 783.4117 79.704943 
L 784.643318 55.936193 
L 785.874937 64.130401 
L 787.106555 70.262541 
L 788.338173 67.657771 
L 789.569791 73.789912 
L 790.801409 85.023032 
L 792.033027 87.899151 
L 793.264646 78.728103 
L 794.496264 74.549643 
L 795.727882 73.735597 
L 796.9595 55.827638 
L 798.191118 57.238616 
L 799.422736 49.804052 
L 800.654354 60.494557 
L 801.885973 66.952285 
L 804.349209 57.835553 
L 805.580827 53.060074 
L 806.812445 60.00618 
L 808.044063 45.84262 
L 809.275682 42.478125 
L 810.5073 47.036489 
L 811.738918 63.47923 
L 812.970536 71.130827 
L 814.202154 120.947427 
L 815.433772 137.9871 
L 816.66539 132.8318 
L 817.897009 141.56871 
L 819.128627 142.762578 
L 820.360245 143.739419 
L 821.591863 134.676839 
L 822.823481 145.584458 
L 824.055099 150.359855 
L 825.286718 164.306381 
L 826.518336 161.647296 
L 828.981572 146.778326 
L 830.21319 125.668666 
L 831.444808 151.390929 
L 832.676426 139.289523 
L 833.908045 130.715412 
L 835.139663 109.388719 
L 836.371281 90.232653 
L 837.602899 89.038785 
L 838.834517 80.410348 
L 840.066135 79.108006 
L 841.297754 115.954916 
L 842.529372 144.987521 
L 843.76099 141.623026 
L 844.992608 135.219536 
L 846.224226 151.825072 
L 847.455844 163.166746 
L 848.687462 154.863984 
L 849.919081 158.825492 
L 851.150699 142.762578 
L 852.382317 136.793232 
L 853.613935 156.220646 
L 854.845553 164.686284 
L 856.077171 160.019366 
L 857.30879 153.01894 
L 858.540408 175.376707 
L 859.772026 183.679556 
L 861.003644 182.268578 
L 862.235262 179.446694 
L 863.46688 165.663043 
L 864.698498 172.989052 
L 867.161735 159.368108 
L 868.393353 145.367348 
L 869.624971 137.227375 
L 870.856589 140.483397 
L 872.088207 132.8318 
L 873.319826 127.893527 
L 874.551444 137.9871 
L 875.783062 138.692592 
L 877.01468 147.212469 
L 878.246298 154.321368 
L 879.477916 156.383435 
L 880.709535 170.384201 
L 881.941153 169.73303 
L 883.172771 167.345293 
L 884.404389 180.043631 
L 885.636007 202.889861 
L 886.867625 195.672407 
L 888.099243 184.439287 
L 889.330862 181.834436 
L 890.56248 164.469175 
L 891.794098 144.933205 
L 893.025716 149.925793 
L 895.488952 121.869947 
L 896.720571 116.063476 
L 897.952189 118.66824 
L 899.183807 97.015965 
L 899.183807 97.015965 
" clip-path="url(#p962a27e05f)" style="fill: none; stroke: #0000ff; stroke-width: 1.5; stroke-linecap: square"/>
   </g>
   <g id="line2d_18">
    <path d="M 87.547443 428.259334 
L 88.779061 429.538202 
L 90.010679 430.224565 
L 91.242298 429.78177 
L 92.473916 428.038454 
L 93.705534 424.960543 
L 94.937152 420.501708 
L 96.16877 414.607092 
L 98.632007 400.728464 
L 101.095243 387.496121 
L 102.326861 381.970355 
L 103.558479 377.306498 
L 104.790097 373.765795 
L 106.021715 371.376151 
L 107.253334 370.240907 
L 108.484952 369.90199 
L 112.179806 369.902238 
L 113.411424 369.989017 
L 114.643043 370.445516 
L 115.874661 371.233811 
L 117.106279 372.891383 
L 118.337897 375.532834 
L 123.26437 388.233243 
L 126.959224 400.034814 
L 128.190842 403.001187 
L 129.42246 405.263064 
L 130.654079 406.999466 
L 131.885697 407.984172 
L 133.117315 408.403409 
L 134.348933 408.240451 
L 135.580551 407.594248 
L 138.043788 405.769577 
L 139.275406 405.362098 
L 140.507024 405.593204 
L 141.738642 406.317491 
L 144.201878 408.800952 
L 145.433496 409.789715 
L 146.665115 410.220959 
L 147.896733 409.976439 
L 149.128351 409.279725 
L 150.359969 408.214202 
L 151.591587 406.451965 
L 152.823205 404.046589 
L 154.054824 401.170886 
L 158.981296 387.719775 
L 161.444532 380.898125 
L 162.676151 377.988555 
L 166.371005 370.240079 
L 167.602623 367.380854 
L 168.834241 364.052792 
L 170.06586 359.962849 
L 171.297478 354.826594 
L 173.760714 342.877052 
L 176.22395 331.307995 
L 178.687187 320.63256 
L 179.918805 316.042316 
L 181.150423 313.040419 
L 182.382041 311.43816 
L 183.613659 310.947628 
L 184.845277 311.003686 
L 186.076896 310.923698 
L 187.308514 310.293227 
L 188.540132 309.361681 
L 189.77175 308.677637 
L 191.003368 308.448766 
L 192.234986 308.64377 
L 194.698223 309.644706 
L 195.929841 309.84799 
L 197.161459 309.719643 
L 199.624695 309.149703 
L 200.856313 309.031459 
L 202.087932 309.097785 
L 203.31955 308.861379 
L 204.551168 308.035574 
L 205.782786 306.309605 
L 208.246022 301.63697 
L 209.47764 300.159 
L 210.709259 299.39389 
L 214.404113 298.068776 
L 215.635731 297.922627 
L 216.867349 297.956494 
L 218.098968 297.411974 
L 219.330586 296.122135 
L 220.562204 294.119104 
L 221.793822 291.473679 
L 223.02544 288.334327 
L 226.720295 277.225164 
L 227.951913 275.221967 
L 229.183531 275.063646 
L 230.415149 276.751276 
L 231.646767 279.728249 
L 232.878385 283.362107 
L 234.110004 287.473496 
L 235.341622 292.253527 
L 237.804858 302.520407 
L 239.036476 306.567374 
L 240.268094 309.284591 
L 241.499712 310.876168 
L 243.962949 313.520931 
L 245.194567 315.252779 
L 246.426185 317.205961 
L 248.889421 322.349835 
L 250.12104 324.837766 
L 251.352658 326.630061 
L 252.584276 327.575767 
L 253.815894 327.761579 
L 257.510748 327.146013 
L 258.742367 326.399866 
L 259.973985 324.878423 
L 261.205603 322.261151 
L 262.437221 318.581503 
L 266.132076 305.500692 
L 267.363694 302.011162 
L 268.595312 299.330131 
L 269.82693 296.929806 
L 271.058548 294.905825 
L 272.290166 293.487474 
L 273.521784 292.607515 
L 277.216639 290.627835 
L 279.679875 289.531343 
L 280.911493 289.571089 
L 282.143112 290.32088 
L 284.606348 292.424104 
L 285.837966 293.045052 
L 287.069584 292.741409 
L 288.301202 290.750385 
L 289.53282 286.602479 
L 290.764439 280.527226 
L 294.459293 258.843318 
L 295.690911 253.695139 
L 298.154148 245.151826 
L 299.385766 241.387552 
L 300.617384 238.403127 
L 301.849002 235.909151 
L 303.08062 232.831405 
L 304.312238 228.169204 
L 305.543856 221.94275 
L 310.470329 190.898915 
L 311.701947 185.846044 
L 312.933565 183.253779 
L 314.165184 183.215358 
L 315.396802 184.781515 
L 316.62842 186.649741 
L 317.860038 187.902649 
L 319.091656 187.573669 
L 320.323274 185.640938 
L 321.554892 182.524027 
L 324.018129 175.760423 
L 326.481365 169.663474 
L 327.712983 167.928811 
L 328.944601 168.121911 
L 330.17622 170.218841 
L 333.871074 180.697948 
L 335.102692 183.374921 
L 337.565928 187.576732 
L 338.797547 190.344708 
L 340.029165 194.222589 
L 341.260783 199.359506 
L 342.492401 205.505889 
L 346.187256 226.235894 
L 347.418874 230.708143 
L 348.650492 231.250592 
L 349.88211 227.745909 
L 351.113728 220.969305 
L 353.576964 204.69681 
L 354.808583 198.062049 
L 356.040201 192.876194 
L 357.271819 188.764309 
L 358.503437 186.055787 
L 359.735055 185.318665 
L 360.966673 186.502349 
L 363.42991 190.762703 
L 364.661528 193.089995 
L 365.893146 195.788249 
L 367.124764 199.275792 
L 368.356382 204.132831 
L 370.819619 215.474922 
L 372.051237 220.172233 
L 373.282855 223.837556 
L 374.514473 226.038571 
L 375.746091 226.770642 
L 376.977709 226.749279 
L 378.209328 227.110802 
L 379.440946 228.66727 
L 380.672564 230.736379 
L 381.904182 233.310675 
L 383.1358 236.791759 
L 384.367418 241.755285 
L 385.599037 247.455519 
L 386.830655 252.42658 
L 388.062273 255.623398 
L 389.293891 256.238963 
L 390.525509 254.11744 
L 391.757127 249.300726 
L 392.988745 242.294257 
L 394.220364 233.476366 
L 399.146836 194.27931 
L 400.378454 186.86619 
L 401.610073 181.765789 
L 402.841691 178.342006 
L 404.073309 176.501933 
L 405.304927 176.47171 
L 406.536545 178.021885 
L 407.768163 180.967724 
L 408.999781 185.483362 
L 411.463018 196.27671 
L 413.926254 206.225788 
L 415.157872 210.325004 
L 416.38949 213.41161 
L 420.084345 219.678637 
L 421.315963 222.854506 
L 425.010817 235.817155 
L 426.242436 239.685514 
L 427.474054 242.909078 
L 428.705672 244.345232 
L 431.168908 245.450335 
L 432.400526 247.00316 
L 433.632145 249.640388 
L 434.863763 254.163479 
L 436.095381 261.120761 
L 439.790235 286.243027 
L 444.716708 315.583995 
L 445.948326 321.417543 
L 447.179944 325.945437 
L 448.411562 328.715813 
L 449.643181 328.814185 
L 450.874799 326.257774 
L 452.106417 321.71274 
L 454.569653 309.973272 
L 455.801271 305.38725 
L 457.032889 302.025818 
L 458.264508 299.809401 
L 459.496126 299.328475 
L 460.727744 301.482706 
L 461.959362 307.026606 
L 463.19098 315.48521 
L 465.654217 336.001497 
L 466.885835 346.430921 
L 468.117453 355.255188 
L 469.349071 361.722602 
L 470.580689 365.25668 
L 471.812307 365.452015 
L 473.043925 362.652409 
L 474.275544 358.342787 
L 475.507162 353.587431 
L 476.73878 349.509577 
L 477.970398 346.385627 
L 480.433634 341.289946 
L 481.665253 338.082447 
L 482.896871 333.910528 
L 485.360107 324.719191 
L 487.823343 316.842866 
L 489.054961 313.067827 
L 492.749816 302.845662 
L 493.981434 298.591684 
L 496.44467 289.294689 
L 497.676289 285.538943 
L 500.139525 278.859386 
L 501.371143 274.68904 
L 503.834379 264.236845 
L 506.297616 251.846455 
L 508.760852 239.617532 
L 509.99247 234.762811 
L 512.455706 226.393801 
L 513.687325 222.207971 
L 516.150561 212.641946 
L 518.613797 202.59665 
L 519.845415 198.548689 
L 521.077033 196.343202 
L 522.308652 196.255015 
L 523.54027 197.93304 
L 524.771888 200.386112 
L 526.003506 203.757729 
L 527.235124 208.238341 
L 528.466742 213.951575 
L 530.929979 228.105941 
L 533.393215 242.770215 
L 534.624833 249.278865 
L 535.856451 254.869715 
L 537.088069 259.020684 
L 538.319688 260.65325 
L 539.551306 260.932548 
L 540.782924 260.680741 
L 542.014542 260.861502 
L 543.24616 262.134035 
L 544.477778 264.024121 
L 545.709397 265.647661 
L 549.404251 269.660679 
L 550.635869 271.679029 
L 553.099105 276.388594 
L 554.330724 280.04307 
L 555.562342 285.786859 
L 558.025578 300.067584 
L 559.257196 305.956197 
L 560.488814 310.18906 
L 562.952051 316.585842 
L 564.183669 319.767837 
L 565.415287 323.287922 
L 566.646905 326.378751 
L 567.878523 329.163783 
L 569.110141 331.172197 
L 570.34176 331.979785 
L 571.573378 331.519063 
L 572.804996 330.097648 
L 574.036614 327.569805 
L 575.268232 323.765371 
L 576.49985 318.499279 
L 577.731469 312.548397 
L 581.426323 297.396241 
L 582.657941 292.961834 
L 583.889559 290.338103 
L 585.121177 290.918394 
L 586.352796 294.944826 
L 587.584414 301.643843 
L 588.816032 309.751192 
L 590.04765 318.712085 
L 591.279268 326.168097 
L 592.510886 330.271454 
L 593.742505 330.68034 
L 594.974123 327.744273 
L 596.205741 322.609591 
L 599.900595 303.441106 
L 601.132213 298.588372 
L 602.363832 294.836932 
L 603.59545 292.467907 
L 604.827068 292.062912 
L 606.058686 294.0806 
L 608.521922 300.507025 
L 609.753541 303.087532 
L 612.216777 306.672287 
L 613.448395 308.981031 
L 614.680013 311.803326 
L 615.911631 314.924212 
L 617.143249 317.706926 
L 618.374868 319.588484 
L 619.606486 320.691186 
L 620.838104 322.229934 
L 622.069722 325.138097 
L 623.30134 329.880287 
L 625.764577 342.978073 
L 628.227813 355.933022 
L 631.922667 373.113547 
L 634.385904 382.388764 
L 636.84914 390.610052 
L 638.080758 393.800411 
L 639.312376 395.644292 
L 640.543994 395.953897 
L 641.775613 394.513354 
L 643.007231 391.552362 
L 644.238849 387.397418 
L 652.860176 352.219838 
L 656.55503 335.141245 
L 657.786649 330.365022 
L 660.249885 322.20915 
L 661.481503 317.068589 
L 662.713121 311.155798 
L 665.176358 298.294417 
L 666.407976 293.000503 
L 667.639594 289.144565 
L 668.871212 286.340487 
L 670.10283 284.302927 
L 672.566066 280.872105 
L 673.797685 279.650827 
L 675.029303 279.54194 
L 676.260921 280.706331 
L 677.492539 282.844664 
L 678.724157 285.893676 
L 683.65063 299.981302 
L 684.882248 302.306027 
L 686.113866 302.640721 
L 687.345484 301.162337 
L 688.577102 298.248958 
L 689.808721 294.820868 
L 691.040339 291.923305 
L 692.271957 289.825877 
L 695.966811 284.800662 
L 697.19843 282.379139 
L 698.430048 279.295101 
L 699.661666 275.408691 
L 703.35652 262.561636 
L 704.588138 258.850936 
L 705.819757 256.075094 
L 708.282993 251.810766 
L 709.514611 249.201857 
L 710.746229 245.741557 
L 713.209466 237.612182 
L 714.441084 234.052848 
L 715.672702 231.577669 
L 716.90432 230.572344 
L 718.135938 231.082666 
L 719.367556 232.00353 
L 720.599174 232.607172 
L 721.830793 232.56519 
L 723.062411 231.688212 
L 724.294029 229.909166 
L 726.757265 225.323641 
L 727.988883 223.518677 
L 729.220502 222.533226 
L 731.683738 222.372006 
L 732.915356 221.650369 
L 734.146974 220.058708 
L 736.61021 215.759188 
L 737.841829 214.235345 
L 739.073447 212.452738 
L 740.305065 209.952386 
L 741.536683 206.986592 
L 745.231538 197.135554 
L 746.463156 194.701114 
L 747.694774 193.084198 
L 748.926392 192.14727 
L 750.15801 191.354835 
L 752.621246 189.304109 
L 753.852865 188.621223 
L 755.084483 188.547196 
L 756.316101 188.888598 
L 757.547719 189.060168 
L 758.779337 188.475157 
L 760.010955 186.99818 
L 761.242574 184.397469 
L 762.474192 180.736866 
L 764.937428 172.644339 
L 766.169046 169.489834 
L 767.400664 167.015399 
L 769.863901 162.888609 
L 772.327137 157.963836 
L 776.021991 149.069682 
L 777.25361 146.736677 
L 779.716846 142.779883 
L 783.4117 138.010036 
L 784.643318 135.923207 
L 785.874937 132.960311 
L 789.569791 122.319406 
L 790.801409 119.730287 
L 792.033027 118.342491 
L 793.264646 118.263413 
L 794.496264 119.025293 
L 796.9595 120.935501 
L 798.191118 120.996196 
L 799.422736 120.085682 
L 800.654354 118.184666 
L 803.117591 113.759367 
L 804.349209 112.137897 
L 805.580827 110.922581 
L 806.812445 109.886123 
L 809.275682 108.189964 
L 810.5073 106.956845 
L 811.738918 105.522595 
L 812.970536 104.510564 
L 814.202154 104.416001 
L 815.433772 106.621654 
L 816.66539 111.75203 
L 817.897009 119.191978 
L 821.591863 146.170959 
L 822.823481 153.560728 
L 824.055099 159.3619 
L 825.286718 163.747536 
L 826.518336 167.315896 
L 827.749954 170.350914 
L 828.981572 172.76366 
L 830.21319 174.293051 
L 831.444808 174.322695 
L 832.676426 173.485463 
L 833.908045 172.05908 
L 835.139663 170.113432 
L 836.371281 167.25578 
L 837.602899 163.013643 
L 838.834517 157.539133 
L 841.297754 144.513967 
L 842.529372 139.191237 
L 843.76099 136.804409 
L 844.992608 137.568525 
L 846.224226 140.700507 
L 847.455844 145.61228 
L 851.150699 164.661196 
L 852.382317 169.724501 
L 853.613935 172.971001 
L 854.845553 174.856864 
L 856.077171 176.1082 
L 857.30879 177.069058 
L 858.540408 177.708472 
L 859.772026 178.603501 
L 861.003644 180.218843 
L 862.235262 182.557479 
L 863.46688 185.290097 
L 864.698498 187.676925 
L 865.930117 189.483379 
L 867.161735 190.486303 
L 868.393353 190.516361 
L 869.624971 189.295911 
L 870.856589 186.734449 
L 872.088207 183.236639 
L 875.783062 170.755909 
L 877.01468 167.540791 
L 878.246298 165.537678 
L 879.477916 164.981234 
L 880.709535 165.77988 
L 881.941153 167.959697 
L 883.172771 171.187401 
L 885.636007 178.927845 
L 888.099243 188.681587 
L 889.330862 193.441746 
L 890.56248 197.289818 
L 891.794098 199.481725 
L 893.025716 199.319098 
L 894.257334 197.020374 
L 895.488952 192.870564 
L 896.720571 187.148884 
L 899.183807 173.247732 
L 899.183807 173.247732 
" clip-path="url(#p962a27e05f)" style="fill: none; stroke: #ff0000; stroke-width: 1.5; stroke-linecap: square"/>
   </g>
   <g id="patch_3">
    <path d="M 46.965625 465.838125 
L 46.965625 22.318125 
" style="fill: none; stroke: #000000; stroke-width: 0.8; stroke-linejoin: miter; stroke-linecap: square"/>
   </g>
   <g id="patch_4">
    <path d="M 939.765625 465.838125 
L 939.765625 22.318125 
" style="fill: none; stroke: #000000; stroke-width: 0.8; stroke-linejoin: miter; stroke-linecap: square"/>
   </g>
   <g id="patch_5">
    <path d="M 46.965625 465.838125 
L 939.765625 465.838125 
" style="fill: none; stroke: #000000; stroke-width: 0.8; stroke-linejoin: miter; stroke-linecap: square"/>
   </g>
   <g id="patch_6">
    <path d="M 46.965625 22.318125 
L 939.765625 22.318125 
" style="fill: none; stroke: #000000; stroke-width: 0.8; stroke-linejoin: miter; stroke-linecap: square"/>
   </g>
   <g id="text_19">
    <!-- stock price prediction -->
    <g transform="translate(428.595625 16.318125) scale(0.12 -0.12)">
     <defs>
      <path id="DejaVuSans-73" d="M 2834 3397 
L 2834 2853 
Q 2591 2978 2328 3040 
Q 2066 3103 1784 3103 
Q 1356 3103 1142 2972 
Q 928 2841 928 2578 
Q 928 2378 1081 2264 
Q 1234 2150 1697 2047 
L 1894 2003 
Q 2506 1872 2764 1633 
Q 3022 1394 3022 966 
Q 3022 478 2636 193 
Q 2250 -91 1575 -91 
Q 1294 -91 989 -36 
Q 684 19 347 128 
L 347 722 
Q 666 556 975 473 
Q 1284 391 1588 391 
Q 1994 391 2212 530 
Q 2431 669 2431 922 
Q 2431 1156 2273 1281 
Q 2116 1406 1581 1522 
L 1381 1569 
Q 847 1681 609 1914 
Q 372 2147 372 2553 
Q 372 3047 722 3315 
Q 1072 3584 1716 3584 
Q 2034 3584 2315 3537 
Q 2597 3491 2834 3397 
z
" transform="scale(0.015625)"/>
      <path id="DejaVuSans-70" d="M 1159 525 
L 1159 -1331 
L 581 -1331 
L 581 3500 
L 1159 3500 
L 1159 2969 
Q 1341 3281 1617 3432 
Q 1894 3584 2278 3584 
Q 2916 3584 3314 3078 
Q 3713 2572 3713 1747 
Q 3713 922 3314 415 
Q 2916 -91 2278 -91 
Q 1894 -91 1617 61 
Q 1341 213 1159 525 
z
M 3116 1747 
Q 3116 2381 2855 2742 
Q 2594 3103 2138 3103 
Q 1681 3103 1420 2742 
Q 1159 2381 1159 1747 
Q 1159 1113 1420 752 
Q 1681 391 2138 391 
Q 2594 391 2855 752 
Q 3116 1113 3116 1747 
z
" transform="scale(0.015625)"/>
      <path id="DejaVuSans-64" d="M 2906 2969 
L 2906 4863 
L 3481 4863 
L 3481 0 
L 2906 0 
L 2906 525 
Q 2725 213 2448 61 
Q 2172 -91 1784 -91 
Q 1150 -91 751 415 
Q 353 922 353 1747 
Q 353 2572 751 3078 
Q 1150 3584 1784 3584 
Q 2172 3584 2448 3432 
Q 2725 3281 2906 2969 
z
M 947 1747 
Q 947 1113 1208 752 
Q 1469 391 1925 391 
Q 2381 391 2643 752 
Q 2906 1113 2906 1747 
Q 2906 2381 2643 2742 
Q 2381 3103 1925 3103 
Q 1469 3103 1208 2742 
Q 947 2381 947 1747 
z
" transform="scale(0.015625)"/>
      <path id="DejaVuSans-6e" d="M 3513 2113 
L 3513 0 
L 2938 0 
L 2938 2094 
Q 2938 2591 2744 2837 
Q 2550 3084 2163 3084 
Q 1697 3084 1428 2787 
Q 1159 2491 1159 1978 
L 1159 0 
L 581 0 
L 581 3500 
L 1159 3500 
L 1159 2956 
Q 1366 3272 1645 3428 
Q 1925 3584 2291 3584 
Q 2894 3584 3203 3211 
Q 3513 2838 3513 2113 
z
" transform="scale(0.015625)"/>
     </defs>
     <use xlink:href="#DejaVuSans-73"/>
     <use xlink:href="#DejaVuSans-74" x="52.099609"/>
     <use xlink:href="#DejaVuSans-6f" x="91.308594"/>
     <use xlink:href="#DejaVuSans-63" x="152.490234"/>
     <use xlink:href="#DejaVuSans-6b" x="207.470703"/>
     <use xlink:href="#DejaVuSans-20" x="265.380859"/>
     <use xlink:href="#DejaVuSans-70" x="297.167969"/>
     <use xlink:href="#DejaVuSans-72" x="360.644531"/>
     <use xlink:href="#DejaVuSans-69" x="401.757812"/>
     <use xlink:href="#DejaVuSans-63" x="429.541016"/>
     <use xlink:href="#DejaVuSans-65" x="484.521484"/>
     <use xlink:href="#DejaVuSans-20" x="546.044922"/>
     <use xlink:href="#DejaVuSans-70" x="577.832031"/>
     <use xlink:href="#DejaVuSans-72" x="641.308594"/>
     <use xlink:href="#DejaVuSans-65" x="680.171875"/>
     <use xlink:href="#DejaVuSans-64" x="741.695312"/>
     <use xlink:href="#DejaVuSans-69" x="805.171875"/>
     <use xlink:href="#DejaVuSans-63" x="832.955078"/>
     <use xlink:href="#DejaVuSans-74" x="887.935547"/>
     <use xlink:href="#DejaVuSans-69" x="927.144531"/>
     <use xlink:href="#DejaVuSans-6f" x="954.927734"/>
     <use xlink:href="#DejaVuSans-6e" x="1016.109375"/>
    </g>
   </g>
   <g id="legend_1">
    <g id="patch_7">
     <path d="M 53.965625 59.674375 
L 191.334375 59.674375 
Q 193.334375 59.674375 193.334375 57.674375 
L 193.334375 29.318125 
Q 193.334375 27.318125 191.334375 27.318125 
L 53.965625 27.318125 
Q 51.965625 27.318125 51.965625 29.318125 
L 51.965625 57.674375 
Q 51.965625 59.674375 53.965625 59.674375 
z
" style="fill: #ffffff; opacity: 0.8; stroke: #cccccc; stroke-linejoin: miter"/>
    </g>
    <g id="line2d_19">
     <path d="M 55.965625 35.416562 
L 65.965625 35.416562 
L 75.965625 35.416562 
" style="fill: none; stroke: #0000ff; stroke-width: 1.5; stroke-linecap: square"/>
    </g>
    <g id="text_20">
     <!-- Actual Stock Price -->
     <g transform="translate(83.965625 38.916562) scale(0.1 -0.1)">
      <defs>
       <path id="DejaVuSans-41" d="M 2188 4044 
L 1331 1722 
L 3047 1722 
L 2188 4044 
z
M 1831 4666 
L 2547 4666 
L 4325 0 
L 3669 0 
L 3244 1197 
L 1141 1197 
L 716 0 
L 50 0 
L 1831 4666 
z
" transform="scale(0.015625)"/>
       <path id="DejaVuSans-75" d="M 544 1381 
L 544 3500 
L 1119 3500 
L 1119 1403 
Q 1119 906 1312 657 
Q 1506 409 1894 409 
Q 2359 409 2629 706 
Q 2900 1003 2900 1516 
L 2900 3500 
L 3475 3500 
L 3475 0 
L 2900 0 
L 2900 538 
Q 2691 219 2414 64 
Q 2138 -91 1772 -91 
Q 1169 -91 856 284 
Q 544 659 544 1381 
z
M 1991 3584 
L 1991 3584 
z
" transform="scale(0.015625)"/>
       <path id="DejaVuSans-61" d="M 2194 1759 
Q 1497 1759 1228 1600 
Q 959 1441 959 1056 
Q 959 750 1161 570 
Q 1363 391 1709 391 
Q 2188 391 2477 730 
Q 2766 1069 2766 1631 
L 2766 1759 
L 2194 1759 
z
M 3341 1997 
L 3341 0 
L 2766 0 
L 2766 531 
Q 2569 213 2275 61 
Q 1981 -91 1556 -91 
Q 1019 -91 701 211 
Q 384 513 384 1019 
Q 384 1609 779 1909 
Q 1175 2209 1959 2209 
L 2766 2209 
L 2766 2266 
Q 2766 2663 2505 2880 
Q 2244 3097 1772 3097 
Q 1472 3097 1187 3025 
Q 903 2953 641 2809 
L 641 3341 
Q 956 3463 1253 3523 
Q 1550 3584 1831 3584 
Q 2591 3584 2966 3190 
Q 3341 2797 3341 1997 
z
" transform="scale(0.015625)"/>
       <path id="DejaVuSans-6c" d="M 603 4863 
L 1178 4863 
L 1178 0 
L 603 0 
L 603 4863 
z
" transform="scale(0.015625)"/>
      </defs>
      <use xlink:href="#DejaVuSans-41"/>
      <use xlink:href="#DejaVuSans-63" x="66.658203"/>
      <use xlink:href="#DejaVuSans-74" x="121.638672"/>
      <use xlink:href="#DejaVuSans-75" x="160.847656"/>
      <use xlink:href="#DejaVuSans-61" x="224.226562"/>
      <use xlink:href="#DejaVuSans-6c" x="285.505859"/>
      <use xlink:href="#DejaVuSans-20" x="313.289062"/>
      <use xlink:href="#DejaVuSans-53" x="345.076172"/>
      <use xlink:href="#DejaVuSans-74" x="408.552734"/>
      <use xlink:href="#DejaVuSans-6f" x="447.761719"/>
      <use xlink:href="#DejaVuSans-63" x="508.943359"/>
      <use xlink:href="#DejaVuSans-6b" x="563.923828"/>
      <use xlink:href="#DejaVuSans-20" x="621.833984"/>
      <use xlink:href="#DejaVuSans-50" x="653.621094"/>
      <use xlink:href="#DejaVuSans-72" x="712.173828"/>
      <use xlink:href="#DejaVuSans-69" x="753.287109"/>
      <use xlink:href="#DejaVuSans-63" x="781.070312"/>
      <use xlink:href="#DejaVuSans-65" x="836.050781"/>
     </g>
    </g>
    <g id="line2d_20">
     <path d="M 55.965625 50.094687 
L 65.965625 50.094687 
L 75.965625 50.094687 
" style="fill: none; stroke: #ff0000; stroke-width: 1.5; stroke-linecap: square"/>
    </g>
    <g id="text_21">
     <!-- Predicted Stock Price -->
     <g transform="translate(83.965625 53.594687) scale(0.1 -0.1)">
      <use xlink:href="#DejaVuSans-50"/>
      <use xlink:href="#DejaVuSans-72" x="58.552734"/>
      <use xlink:href="#DejaVuSans-65" x="97.416016"/>
      <use xlink:href="#DejaVuSans-64" x="158.939453"/>
      <use xlink:href="#DejaVuSans-69" x="222.416016"/>
      <use xlink:href="#DejaVuSans-63" x="250.199219"/>
      <use xlink:href="#DejaVuSans-74" x="305.179688"/>
      <use xlink:href="#DejaVuSans-65" x="344.388672"/>
      <use xlink:href="#DejaVuSans-64" x="405.912109"/>
      <use xlink:href="#DejaVuSans-20" x="469.388672"/>
      <use xlink:href="#DejaVuSans-53" x="501.175781"/>
      <use xlink:href="#DejaVuSans-74" x="564.652344"/>
      <use xlink:href="#DejaVuSans-6f" x="603.861328"/>
      <use xlink:href="#DejaVuSans-63" x="665.042969"/>
      <use xlink:href="#DejaVuSans-6b" x="720.023438"/>
      <use xlink:href="#DejaVuSans-20" x="777.933594"/>
      <use xlink:href="#DejaVuSans-50" x="809.720703"/>
      <use xlink:href="#DejaVuSans-72" x="868.273438"/>
      <use xlink:href="#DejaVuSans-69" x="909.386719"/>
      <use xlink:href="#DejaVuSans-63" x="937.169922"/>
      <use xlink:href="#DejaVuSans-65" x="992.150391"/>
     </g>
    </g>
   </g>
  </g>
 </g>
 <defs>
  <clipPath id="p962a27e05f">
   <rect x="46.965625" y="22.318125" width="892.8" height="443.52"/>
  </clipPath>
 </defs>
</svg>
