<svg xmlns="http://www.w3.org/2000/svg" xmlns:xlink="http://www.w3.org/1999/xlink" width="640" height="320" viewBox="0 0 576 288" version="1.1"><defs><filter id="alpha" filterUnits="objectBoundingBox" x="0%" y="0%" width="100%" height="100%"><feColorMatrix type="matrix" in="SourceGraphic" values="0 0 0 0 1 0 0 0 0 1 0 0 0 0 1 0 0 0 1 0" /></filter><mask id="mask0"><g filter="url(#alpha)"><rect x="0" y="0" width="576" height="288" style="fill:rgb(0%,0%,0%);fill-opacity:0.8;stroke:none;" /></g></mask><clipPath id="clip1"><rect x="0" y="0" width="576" height="288" /></clipPath><g id="surface5" clip-path="url(#clip1)"><path style="fill-rule:nonzero;fill:rgb(100%,100%,100%);fill-opacity:1;stroke-width:1;stroke-linecap:butt;stroke-linejoin:miter;stroke:rgb(80%,80%,80%);stroke-opacity:1;stroke-miterlimit:4;" d="M 151 91.796875 L 206.273438 91.796875 C 207.609375 91.796875 208.273438 91.132812 208.273438 89.796875 L 208.273438 76.117188 C 208.273438 74.789062 207.609375 74.117188 206.273438 74.117188 L 151 74.117188 C 149.664062 74.117188 149 74.789062 149 76.117188 L 149 89.796875 C 149 91.132812 149.664062 91.796875 151 91.796875 Z M 151 91.796875 " transform="matrix(0.5,0,0,0.5,0,0)" /></g></defs><g id="surface1"><rect x="0" y="0" width="576" height="288" style="fill:rgb(100%,100%,100%);fill-opacity:1;stroke:none;" /><path style=" stroke:none;fill-rule:nonzero;fill:rgb(100%,100%,100%);fill-opacity:1;" d="M 72 256.320312 L 518.398438 256.320312 L 518.398438 34.558594 L 72 34.558594 Z M 72 256.320312 " /><path style="fill:none;stroke-width:0.8;stroke-linecap:butt;stroke-linejoin:round;stroke:rgb(0%,0%,0%);stroke-opacity:1;stroke-miterlimit:4;" d="M -0.003693 0.000625 L -0.003693 3.500625 " transform="matrix(0.5,0,0,0.5,92.290909,256.32)" /><path style=" stroke:none;fill-rule:nonzero;fill:rgb(0%,0%,0%);fill-opacity:1;" d="M 89.902344 260.300781 C 89.652344 260.300781 89.460938 260.425781 89.332031 260.675781 C 89.203125 260.921875 89.140625 261.300781 89.140625 261.800781 C 89.140625 262.300781 89.203125 262.675781 89.332031 262.925781 C 89.460938 263.175781 89.652344 263.300781 89.902344 263.300781 C 90.160156 263.300781 90.351562 263.175781 90.480469 262.925781 C 90.605469 262.675781 90.671875 262.300781 90.671875 261.800781 C 90.671875 261.300781 90.605469 260.921875 90.480469 260.675781 C 90.351562 260.425781 90.160156 260.300781 89.902344 260.300781 Z M 89.902344 259.910156 C 90.3125 259.910156 90.625 260.070312 90.839844 260.394531 C 91.054688 260.714844 91.164062 261.183594 91.164062 261.800781 C 91.164062 262.414062 91.054688 262.882812 90.839844 263.207031 C 90.625 263.527344 90.3125 263.691406 89.902344 263.691406 C 89.496094 263.691406 89.183594 263.527344 88.96875 263.207031 C 88.753906 262.882812 88.644531 262.414062 88.644531 261.800781 C 88.644531 261.183594 88.753906 260.714844 88.96875 260.394531 C 89.183594 260.070312 89.496094 259.910156 89.902344 259.910156 Z M 89.902344 259.910156 " /><path style=" stroke:none;fill-rule:nonzero;fill:rgb(0%,0%,0%);fill-opacity:1;" d="M 92.03125 263 L 92.546875 263 L 92.546875 263.621094 L 92.03125 263.621094 Z M 92.03125 263 " /><path style=" stroke:none;fill-rule:nonzero;fill:rgb(0%,0%,0%);fill-opacity:1;" d="M 94.675781 260.300781 C 94.421875 260.300781 94.230469 260.425781 94.101562 260.675781 C 93.972656 260.921875 93.910156 261.300781 93.910156 261.800781 C 93.910156 262.300781 93.972656 262.675781 94.101562 262.925781 C 94.230469 263.175781 94.421875 263.300781 94.675781 263.300781 C 94.929688 263.300781 95.121094 263.175781 95.25 262.925781 C 95.378906 262.675781 95.441406 262.300781 95.441406 261.800781 C 95.441406 261.300781 95.378906 260.921875 95.25 260.675781 C 95.121094 260.425781 94.929688 260.300781 94.675781 260.300781 Z M 94.675781 259.910156 C 95.082031 259.910156 95.394531 260.070312 95.613281 260.394531 C 95.828125 260.714844 95.933594 261.183594 95.933594 261.800781 C 95.933594 262.414062 95.828125 262.882812 95.613281 263.207031 C 95.394531 263.527344 95.082031 263.691406 94.675781 263.691406 C 94.265625 263.691406 93.953125 263.527344 93.738281 263.207031 C 93.523438 262.882812 93.414062 262.414062 93.414062 261.800781 C 93.414062 261.183594 93.523438 260.714844 93.738281 260.394531 C 93.953125 260.070312 94.265625 259.910156 94.675781 259.910156 Z M 94.675781 259.910156 " /><path style="fill:none;stroke-width:0.8;stroke-linecap:butt;stroke-linejoin:round;stroke:rgb(0%,0%,0%);stroke-opacity:1;stroke-miterlimit:4;" d="M -0.001077 0.000625 L -0.001077 3.500625 " transform="matrix(0.5,0,0,0.5,145.688039,256.32)" /><path style=" stroke:none;fill-rule:nonzero;fill:rgb(0%,0%,0%);fill-opacity:1;" d="M 142.671875 263.203125 L 144.394531 263.203125 L 144.394531 263.621094 L 142.078125 263.621094 L 142.078125 263.203125 C 142.265625 263.011719 142.519531 262.75 142.84375 262.425781 C 143.167969 262.097656 143.371094 261.886719 143.453125 261.792969 C 143.609375 261.617188 143.722656 261.464844 143.785156 261.34375 C 143.847656 261.21875 143.878906 261.097656 143.878906 260.980469 C 143.878906 260.785156 143.808594 260.628906 143.675781 260.507812 C 143.539062 260.382812 143.359375 260.324219 143.144531 260.324219 C 142.988281 260.324219 142.824219 260.351562 142.652344 260.402344 C 142.480469 260.457031 142.296875 260.539062 142.101562 260.648438 L 142.101562 260.148438 C 142.300781 260.070312 142.488281 260.011719 142.660156 259.96875 C 142.832031 259.929688 142.988281 259.910156 143.132812 259.910156 C 143.511719 259.910156 143.8125 260.003906 144.035156 260.191406 C 144.261719 260.378906 144.375 260.632812 144.375 260.949219 C 144.375 261.097656 144.34375 261.242188 144.289062 261.375 C 144.234375 261.507812 144.132812 261.667969 143.984375 261.847656 C 143.941406 261.894531 143.8125 262.03125 143.59375 262.257812 C 143.375 262.484375 143.070312 262.800781 142.671875 263.203125 Z M 142.671875 263.203125 " /><path style=" stroke:none;fill-rule:nonzero;fill:rgb(0%,0%,0%);fill-opacity:1;" d="M 145.429688 263 L 145.945312 263 L 145.945312 263.621094 L 145.429688 263.621094 Z M 145.429688 263 " /><path style=" stroke:none;fill-rule:nonzero;fill:rgb(0%,0%,0%);fill-opacity:1;" d="M 147.023438 259.972656 L 148.957031 259.972656 L 148.957031 260.390625 L 147.472656 260.390625 L 147.472656 261.28125 C 147.546875 261.257812 147.617188 261.238281 147.6875 261.226562 C 147.761719 261.214844 147.832031 261.210938 147.902344 261.210938 C 148.3125 261.210938 148.632812 261.320312 148.871094 261.542969 C 149.109375 261.765625 149.226562 262.070312 149.226562 262.449219 C 149.226562 262.84375 149.105469 263.148438 148.859375 263.363281 C 148.617188 263.582031 148.273438 263.691406 147.828125 263.691406 C 147.675781 263.691406 147.519531 263.675781 147.359375 263.652344 C 147.203125 263.625 147.039062 263.585938 146.867188 263.535156 L 146.867188 263.039062 C 147.015625 263.117188 147.167969 263.175781 147.324219 263.214844 C 147.480469 263.253906 147.644531 263.273438 147.816406 263.273438 C 148.101562 263.273438 148.324219 263.199219 148.488281 263.054688 C 148.652344 262.90625 148.734375 262.703125 148.734375 262.449219 C 148.734375 262.195312 148.652344 261.996094 148.488281 261.847656 C 148.324219 261.699219 148.101562 261.625 147.816406 261.625 C 147.6875 261.625 147.554688 261.640625 147.421875 261.667969 C 147.292969 261.699219 147.160156 261.742188 147.023438 261.804688 Z M 147.023438 259.972656 " /><path style="fill:none;stroke-width:0.8;stroke-linecap:butt;stroke-linejoin:round;stroke:rgb(0%,0%,0%);stroke-opacity:1;stroke-miterlimit:4;" d="M 0.00154 0.000625 L 0.00154 3.500625 " transform="matrix(0.5,0,0,0.5,199.085168,256.32)" /><path style=" stroke:none;fill-rule:nonzero;fill:rgb(0%,0%,0%);fill-opacity:1;" d="M 195.648438 259.972656 L 197.585938 259.972656 L 197.585938 260.390625 L 196.101562 260.390625 L 196.101562 261.28125 C 196.171875 261.257812 196.242188 261.238281 196.316406 261.226562 C 196.386719 261.214844 196.457031 261.210938 196.53125 261.210938 C 196.9375 261.210938 197.257812 261.320312 197.496094 261.542969 C 197.734375 261.765625 197.855469 262.070312 197.855469 262.449219 C 197.855469 262.84375 197.730469 263.148438 197.488281 263.363281 C 197.242188 263.582031 196.898438 263.691406 196.453125 263.691406 C 196.300781 263.691406 196.144531 263.675781 195.988281 263.652344 C 195.828125 263.625 195.664062 263.585938 195.496094 263.535156 L 195.496094 263.039062 C 195.640625 263.117188 195.792969 263.175781 195.949219 263.214844 C 196.105469 263.253906 196.269531 263.273438 196.445312 263.273438 C 196.726562 263.273438 196.949219 263.199219 197.113281 263.054688 C 197.277344 262.90625 197.359375 262.703125 197.359375 262.449219 C 197.359375 262.195312 197.277344 261.996094 197.113281 261.847656 C 196.949219 261.699219 196.726562 261.625 196.445312 261.625 C 196.3125 261.625 196.179688 261.640625 196.050781 261.667969 C 195.917969 261.699219 195.785156 261.742188 195.648438 261.804688 Z M 195.648438 259.972656 " /><path style=" stroke:none;fill-rule:nonzero;fill:rgb(0%,0%,0%);fill-opacity:1;" d="M 198.824219 263 L 199.339844 263 L 199.339844 263.621094 L 198.824219 263.621094 Z M 198.824219 263 " /><path style=" stroke:none;fill-rule:nonzero;fill:rgb(0%,0%,0%);fill-opacity:1;" d="M 201.46875 260.300781 C 201.214844 260.300781 201.023438 260.425781 200.894531 260.675781 C 200.769531 260.921875 200.703125 261.300781 200.703125 261.800781 C 200.703125 262.300781 200.769531 262.675781 200.894531 262.925781 C 201.023438 263.175781 201.214844 263.300781 201.46875 263.300781 C 201.726562 263.300781 201.917969 263.175781 202.042969 262.925781 C 202.171875 262.675781 202.234375 262.300781 202.234375 261.800781 C 202.234375 261.300781 202.171875 260.921875 202.042969 260.675781 C 201.917969 260.425781 201.726562 260.300781 201.46875 260.300781 Z M 201.46875 259.910156 C 201.878906 259.910156 202.191406 260.070312 202.40625 260.394531 C 202.621094 260.714844 202.730469 261.183594 202.730469 261.800781 C 202.730469 262.414062 202.621094 262.882812 202.40625 263.207031 C 202.191406 263.527344 201.878906 263.691406 201.46875 263.691406 C 201.0625 263.691406 200.75 263.527344 200.53125 263.207031 C 200.316406 262.882812 200.210938 262.414062 200.210938 261.800781 C 200.210938 261.183594 200.316406 260.714844 200.53125 260.394531 C 200.75 260.070312 201.0625 259.910156 201.46875 259.910156 Z M 201.46875 259.910156 " /><path style="fill:none;stroke-width:0.8;stroke-linecap:butt;stroke-linejoin:round;stroke:rgb(0%,0%,0%);stroke-opacity:1;stroke-miterlimit:4;" d="M -0.0036555 0.000625 L -0.0036555 3.500625 " transform="matrix(0.5,0,0,0.5,252.482296,256.32)" /><path style=" stroke:none;fill-rule:nonzero;fill:rgb(0%,0%,0%);fill-opacity:1;" d="M 248.917969 259.972656 L 251.261719 259.972656 L 251.261719 260.183594 L 249.9375 263.621094 L 249.421875 263.621094 L 250.667969 260.390625 L 248.917969 260.390625 Z M 248.917969 259.972656 " /><path style=" stroke:none;fill-rule:nonzero;fill:rgb(0%,0%,0%);fill-opacity:1;" d="M 252.222656 263 L 252.738281 263 L 252.738281 263.621094 L 252.222656 263.621094 Z M 252.222656 263 " /><path style=" stroke:none;fill-rule:nonzero;fill:rgb(0%,0%,0%);fill-opacity:1;" d="M 253.816406 259.972656 L 255.753906 259.972656 L 255.753906 260.390625 L 254.269531 260.390625 L 254.269531 261.28125 C 254.339844 261.257812 254.410156 261.238281 254.484375 261.226562 C 254.554688 261.214844 254.625 261.210938 254.699219 261.210938 C 255.105469 261.210938 255.425781 261.320312 255.664062 261.542969 C 255.902344 261.765625 256.023438 262.070312 256.023438 262.449219 C 256.023438 262.84375 255.898438 263.148438 255.65625 263.363281 C 255.410156 263.582031 255.066406 263.691406 254.621094 263.691406 C 254.46875 263.691406 254.3125 263.675781 254.15625 263.652344 C 253.996094 263.625 253.832031 263.585938 253.664062 263.535156 L 253.664062 263.039062 C 253.808594 263.117188 253.960938 263.175781 254.117188 263.214844 C 254.273438 263.253906 254.4375 263.273438 254.613281 263.273438 C 254.894531 263.273438 255.117188 263.199219 255.28125 263.054688 C 255.445312 262.90625 255.527344 262.703125 255.527344 262.449219 C 255.527344 262.195312 255.445312 261.996094 255.28125 261.847656 C 255.117188 261.699219 254.894531 261.625 254.613281 261.625 C 254.480469 261.625 254.347656 261.640625 254.21875 261.667969 C 254.085938 261.699219 253.953125 261.742188 253.816406 261.804688 Z M 253.816406 259.972656 " /><path style="fill:none;stroke-width:0.8;stroke-linecap:butt;stroke-linejoin:round;stroke:rgb(0%,0%,0%);stroke-opacity:1;stroke-miterlimit:4;" d="M -0.0010395 0.000625 L -0.0010395 3.500625 " transform="matrix(0.5,0,0,0.5,305.879426,256.32)" /><path style=" stroke:none;fill-rule:nonzero;fill:rgb(0%,0%,0%);fill-opacity:1;" d="M 300.933594 263.203125 L 301.738281 263.203125 L 301.738281 260.421875 L 300.863281 260.597656 L 300.863281 260.148438 L 301.734375 259.972656 L 302.226562 259.972656 L 302.226562 263.203125 L 303.03125 263.203125 L 303.03125 263.621094 L 300.933594 263.621094 Z M 300.933594 263.203125 " /><path style=" stroke:none;fill-rule:nonzero;fill:rgb(0%,0%,0%);fill-opacity:1;" d="M 305.082031 260.300781 C 304.828125 260.300781 304.640625 260.425781 304.511719 260.675781 C 304.382812 260.921875 304.320312 261.300781 304.320312 261.800781 C 304.320312 262.300781 304.382812 262.675781 304.511719 262.925781 C 304.640625 263.175781 304.828125 263.300781 305.082031 263.300781 C 305.339844 263.300781 305.53125 263.175781 305.660156 262.925781 C 305.785156 262.675781 305.851562 262.300781 305.851562 261.800781 C 305.851562 261.300781 305.785156 260.921875 305.660156 260.675781 C 305.53125 260.425781 305.339844 260.300781 305.082031 260.300781 Z M 305.082031 259.910156 C 305.492188 259.910156 305.804688 260.070312 306.019531 260.394531 C 306.234375 260.714844 306.34375 261.183594 306.34375 261.800781 C 306.34375 262.414062 306.234375 262.882812 306.019531 263.207031 C 305.804688 263.527344 305.492188 263.691406 305.082031 263.691406 C 304.675781 263.691406 304.363281 263.527344 304.148438 263.207031 C 303.933594 262.882812 303.824219 262.414062 303.824219 261.800781 C 303.824219 261.183594 303.933594 260.714844 304.148438 260.394531 C 304.363281 260.070312 304.675781 259.910156 305.082031 259.910156 Z M 305.082031 259.910156 " /><path style=" stroke:none;fill-rule:nonzero;fill:rgb(0%,0%,0%);fill-opacity:1;" d="M 307.210938 263 L 307.726562 263 L 307.726562 263.621094 L 307.210938 263.621094 Z M 307.210938 263 " /><path style=" stroke:none;fill-rule:nonzero;fill:rgb(0%,0%,0%);fill-opacity:1;" d="M 309.855469 260.300781 C 309.601562 260.300781 309.410156 260.425781 309.28125 260.675781 C 309.152344 260.921875 309.089844 261.300781 309.089844 261.800781 C 309.089844 262.300781 309.152344 262.675781 309.28125 262.925781 C 309.410156 263.175781 309.601562 263.300781 309.855469 263.300781 C 310.109375 263.300781 310.300781 263.175781 310.429688 262.925781 C 310.558594 262.675781 310.621094 262.300781 310.621094 261.800781 C 310.621094 261.300781 310.558594 260.921875 310.429688 260.675781 C 310.300781 260.425781 310.109375 260.300781 309.855469 260.300781 Z M 309.855469 259.910156 C 310.261719 259.910156 310.574219 260.070312 310.789062 260.394531 C 311.007812 260.714844 311.113281 261.183594 311.113281 261.800781 C 311.113281 262.414062 311.007812 262.882812 310.789062 263.207031 C 310.574219 263.527344 310.261719 263.691406 309.855469 263.691406 C 309.445312 263.691406 309.132812 263.527344 308.917969 263.207031 C 308.703125 262.882812 308.59375 262.414062 308.59375 261.800781 C 308.59375 261.183594 308.703125 260.714844 308.917969 260.394531 C 309.132812 260.070312 309.445312 259.910156 309.855469 259.910156 Z M 309.855469 259.910156 " /><path style="fill:none;stroke-width:0.8;stroke-linecap:butt;stroke-linejoin:round;stroke:rgb(0%,0%,0%);stroke-opacity:1;stroke-miterlimit:4;" d="M 0.0015775 0.000625 L 0.0015775 3.500625 " transform="matrix(0.5,0,0,0.5,359.276555,256.32)" /><path style=" stroke:none;fill-rule:nonzero;fill:rgb(0%,0%,0%);fill-opacity:1;" d="M 354.332031 263.203125 L 355.136719 263.203125 L 355.136719 260.421875 L 354.257812 260.597656 L 354.257812 260.148438 L 355.132812 259.972656 L 355.625 259.972656 L 355.625 263.203125 L 356.429688 263.203125 L 356.429688 263.621094 L 354.332031 263.621094 Z M 354.332031 263.203125 " /><path style=" stroke:none;fill-rule:nonzero;fill:rgb(0%,0%,0%);fill-opacity:1;" d="M 357.851562 263.203125 L 359.570312 263.203125 L 359.570312 263.621094 L 357.257812 263.621094 L 357.257812 263.203125 C 357.445312 263.011719 357.699219 262.75 358.023438 262.425781 C 358.347656 262.097656 358.550781 261.886719 358.632812 261.792969 C 358.789062 261.617188 358.898438 261.464844 358.960938 261.34375 C 359.027344 261.21875 359.058594 261.097656 359.058594 260.980469 C 359.058594 260.785156 358.988281 260.628906 358.851562 260.507812 C 358.71875 260.382812 358.539062 260.324219 358.320312 260.324219 C 358.167969 260.324219 358.003906 260.351562 357.832031 260.402344 C 357.660156 260.457031 357.476562 260.539062 357.28125 260.648438 L 357.28125 260.148438 C 357.480469 260.070312 357.664062 260.011719 357.839844 259.96875 C 358.011719 259.929688 358.167969 259.910156 358.3125 259.910156 C 358.691406 259.910156 358.992188 260.003906 359.214844 260.191406 C 359.441406 260.378906 359.550781 260.632812 359.550781 260.949219 C 359.550781 261.097656 359.523438 261.242188 359.46875 261.375 C 359.414062 261.507812 359.308594 261.667969 359.160156 261.847656 C 359.121094 261.894531 358.992188 262.03125 358.773438 262.257812 C 358.554688 262.484375 358.25 262.800781 357.851562 263.203125 Z M 357.851562 263.203125 " /><path style=" stroke:none;fill-rule:nonzero;fill:rgb(0%,0%,0%);fill-opacity:1;" d="M 360.605469 263 L 361.121094 263 L 361.121094 263.621094 L 360.605469 263.621094 Z M 360.605469 263 " /><path style=" stroke:none;fill-rule:nonzero;fill:rgb(0%,0%,0%);fill-opacity:1;" d="M 362.203125 259.972656 L 364.136719 259.972656 L 364.136719 260.390625 L 362.652344 260.390625 L 362.652344 261.28125 C 362.722656 261.257812 362.796875 261.238281 362.867188 261.226562 C 362.9375 261.214844 363.011719 261.210938 363.082031 261.210938 C 363.488281 261.210938 363.8125 261.320312 364.050781 261.542969 C 364.289062 261.765625 364.40625 262.070312 364.40625 262.449219 C 364.40625 262.84375 364.285156 263.148438 364.039062 263.363281 C 363.796875 263.582031 363.453125 263.691406 363.007812 263.691406 C 362.855469 263.691406 362.699219 263.675781 362.539062 263.652344 C 362.378906 263.625 362.21875 263.585938 362.046875 263.535156 L 362.046875 263.039062 C 362.195312 263.117188 362.34375 263.175781 362.5 263.214844 C 362.65625 263.253906 362.824219 263.273438 362.996094 263.273438 C 363.277344 263.273438 363.5 263.199219 363.664062 263.054688 C 363.832031 262.90625 363.914062 262.703125 363.914062 262.449219 C 363.914062 262.195312 363.832031 261.996094 363.664062 261.847656 C 363.5 261.699219 363.277344 261.625 362.996094 261.625 C 362.863281 261.625 362.734375 261.640625 362.601562 261.667969 C 362.472656 261.699219 362.339844 261.742188 362.203125 261.804688 Z M 362.203125 259.972656 " /><path style="fill:none;stroke-width:0.8;stroke-linecap:butt;stroke-linejoin:round;stroke:rgb(0%,0%,0%);stroke-opacity:1;stroke-miterlimit:4;" d="M -0.003618 0.000625 L -0.003618 3.500625 " transform="matrix(0.5,0,0,0.5,412.673684,256.32)" /><path style=" stroke:none;fill-rule:nonzero;fill:rgb(0%,0%,0%);fill-opacity:1;" d="M 407.726562 263.203125 L 408.53125 263.203125 L 408.53125 260.421875 L 407.65625 260.597656 L 407.65625 260.148438 L 408.527344 259.972656 L 409.019531 259.972656 L 409.019531 263.203125 L 409.828125 263.203125 L 409.828125 263.621094 L 407.726562 263.621094 Z M 407.726562 263.203125 " /><path style=" stroke:none;fill-rule:nonzero;fill:rgb(0%,0%,0%);fill-opacity:1;" d="M 410.828125 259.972656 L 412.765625 259.972656 L 412.765625 260.390625 L 411.28125 260.390625 L 411.28125 261.28125 C 411.351562 261.257812 411.421875 261.238281 411.492188 261.226562 C 411.566406 261.214844 411.636719 261.210938 411.710938 261.210938 C 412.117188 261.210938 412.4375 261.320312 412.675781 261.542969 C 412.914062 261.765625 413.03125 262.070312 413.03125 262.449219 C 413.03125 262.84375 412.910156 263.148438 412.667969 263.363281 C 412.421875 263.582031 412.078125 263.691406 411.632812 263.691406 C 411.480469 263.691406 411.324219 263.675781 411.164062 263.652344 C 411.007812 263.625 410.84375 263.585938 410.675781 263.535156 L 410.675781 263.039062 C 410.820312 263.117188 410.972656 263.175781 411.128906 263.214844 C 411.285156 263.253906 411.449219 263.273438 411.625 263.273438 C 411.90625 263.273438 412.128906 263.199219 412.292969 263.054688 C 412.457031 262.90625 412.539062 262.703125 412.539062 262.449219 C 412.539062 262.195312 412.457031 261.996094 412.292969 261.847656 C 412.128906 261.699219 411.90625 261.625 411.625 261.625 C 411.492188 261.625 411.359375 261.640625 411.230469 261.667969 C 411.097656 261.699219 410.964844 261.742188 410.828125 261.804688 Z M 410.828125 259.972656 " /><path style=" stroke:none;fill-rule:nonzero;fill:rgb(0%,0%,0%);fill-opacity:1;" d="M 414.003906 263 L 414.519531 263 L 414.519531 263.621094 L 414.003906 263.621094 Z M 414.003906 263 " /><path style=" stroke:none;fill-rule:nonzero;fill:rgb(0%,0%,0%);fill-opacity:1;" d="M 416.648438 260.300781 C 416.394531 260.300781 416.203125 260.425781 416.074219 260.675781 C 415.949219 260.921875 415.882812 261.300781 415.882812 261.800781 C 415.882812 262.300781 415.949219 262.675781 416.074219 262.925781 C 416.203125 263.175781 416.394531 263.300781 416.648438 263.300781 C 416.902344 263.300781 417.09375 263.175781 417.222656 262.925781 C 417.351562 262.675781 417.414062 262.300781 417.414062 261.800781 C 417.414062 261.300781 417.351562 260.921875 417.222656 260.675781 C 417.09375 260.425781 416.902344 260.300781 416.648438 260.300781 Z M 416.648438 259.910156 C 417.058594 259.910156 417.367188 260.070312 417.585938 260.394531 C 417.800781 260.714844 417.90625 261.183594 417.90625 261.800781 C 417.90625 262.414062 417.800781 262.882812 417.585938 263.207031 C 417.367188 263.527344 417.058594 263.691406 416.648438 263.691406 C 416.238281 263.691406 415.925781 263.527344 415.710938 263.207031 C 415.496094 262.882812 415.386719 262.414062 415.386719 261.800781 C 415.386719 261.183594 415.496094 260.714844 415.710938 260.394531 C 415.925781 260.070312 416.238281 259.910156 416.648438 259.910156 Z M 416.648438 259.910156 " /><path style="fill:none;stroke-width:0.8;stroke-linecap:butt;stroke-linejoin:round;stroke:rgb(0%,0%,0%);stroke-opacity:1;stroke-miterlimit:4;" d="M -0.001002 0.000625 L -0.001002 3.500625 " transform="matrix(0.5,0,0,0.5,466.070813,256.32)" /><path style=" stroke:none;fill-rule:nonzero;fill:rgb(0%,0%,0%);fill-opacity:1;" d="M 461.125 263.203125 L 461.929688 263.203125 L 461.929688 260.421875 L 461.054688 260.597656 L 461.054688 260.148438 L 461.925781 259.972656 L 462.417969 259.972656 L 462.417969 263.203125 L 463.222656 263.203125 L 463.222656 263.621094 L 461.125 263.621094 Z M 461.125 263.203125 " /><path style=" stroke:none;fill-rule:nonzero;fill:rgb(0%,0%,0%);fill-opacity:1;" d="M 464.097656 259.972656 L 466.441406 259.972656 L 466.441406 260.183594 L 465.117188 263.621094 L 464.601562 263.621094 L 465.847656 260.390625 L 464.097656 260.390625 Z M 464.097656 259.972656 " /><path style=" stroke:none;fill-rule:nonzero;fill:rgb(0%,0%,0%);fill-opacity:1;" d="M 467.402344 263 L 467.917969 263 L 467.917969 263.621094 L 467.402344 263.621094 Z M 467.402344 263 " /><path style=" stroke:none;fill-rule:nonzero;fill:rgb(0%,0%,0%);fill-opacity:1;" d="M 468.996094 259.972656 L 470.933594 259.972656 L 470.933594 260.390625 L 469.449219 260.390625 L 469.449219 261.28125 C 469.519531 261.257812 469.589844 261.238281 469.660156 261.226562 C 469.734375 261.214844 469.804688 261.210938 469.878906 261.210938 C 470.285156 261.210938 470.605469 261.320312 470.84375 261.542969 C 471.082031 261.765625 471.199219 262.070312 471.199219 262.449219 C 471.199219 262.84375 471.078125 263.148438 470.835938 263.363281 C 470.589844 263.582031 470.246094 263.691406 469.800781 263.691406 C 469.648438 263.691406 469.492188 263.675781 469.332031 263.652344 C 469.175781 263.625 469.011719 263.585938 468.84375 263.535156 L 468.84375 263.039062 C 468.988281 263.117188 469.140625 263.175781 469.296875 263.214844 C 469.453125 263.253906 469.617188 263.273438 469.792969 263.273438 C 470.074219 263.273438 470.296875 263.199219 470.460938 263.054688 C 470.625 262.90625 470.707031 262.703125 470.707031 262.449219 C 470.707031 262.195312 470.625 261.996094 470.460938 261.847656 C 470.296875 261.699219 470.074219 261.625 469.792969 261.625 C 469.660156 261.625 469.527344 261.640625 469.398438 261.667969 C 469.265625 261.699219 469.132812 261.742188 468.996094 261.804688 Z M 468.996094 259.972656 " /><path style=" stroke:none;fill-rule:nonzero;fill:rgb(0%,0%,0%);fill-opacity:1;" d="M 290.394531 268.980469 L 290.394531 269.199219 L 288.332031 269.199219 C 288.351562 269.507812 288.445312 269.742188 288.609375 269.90625 C 288.777344 270.066406 289.007812 270.148438 289.308594 270.148438 C 289.480469 270.148438 289.648438 270.128906 289.808594 270.085938 C 289.96875 270.042969 290.132812 269.980469 290.292969 269.894531 L 290.292969 270.320312 C 290.128906 270.386719 289.964844 270.441406 289.796875 270.476562 C 289.625 270.511719 289.453125 270.53125 289.28125 270.53125 C 288.84375 270.53125 288.5 270.402344 288.242188 270.148438 C 287.988281 269.894531 287.863281 269.550781 287.863281 269.117188 C 287.863281 268.671875 287.984375 268.316406 288.222656 268.054688 C 288.464844 267.789062 288.792969 267.660156 289.203125 267.660156 C 289.570312 267.660156 289.859375 267.777344 290.074219 268.015625 C 290.289062 268.25 290.394531 268.570312 290.394531 268.980469 Z M 289.945312 268.847656 C 289.945312 268.601562 289.875 268.40625 289.742188 268.257812 C 289.605469 268.113281 289.429688 268.039062 289.207031 268.039062 C 288.957031 268.039062 288.757812 268.109375 288.605469 268.25 C 288.453125 268.394531 288.367188 268.59375 288.34375 268.851562 Z M 289.945312 268.847656 " /><path style=" stroke:none;fill-rule:nonzero;fill:rgb(0%,0%,0%);fill-opacity:1;" d="M 291.566406 270.046875 L 291.566406 271.5 L 291.117188 271.5 L 291.117188 267.722656 L 291.566406 267.722656 L 291.566406 268.140625 C 291.664062 267.976562 291.78125 267.855469 291.925781 267.777344 C 292.070312 267.699219 292.242188 267.660156 292.441406 267.660156 C 292.773438 267.660156 293.042969 267.789062 293.25 268.054688 C 293.460938 268.316406 293.5625 268.664062 293.5625 269.09375 C 293.5625 269.523438 293.460938 269.871094 293.25 270.132812 C 293.042969 270.398438 292.773438 270.53125 292.441406 270.53125 C 292.242188 270.53125 292.070312 270.488281 291.925781 270.410156 C 291.78125 270.332031 291.664062 270.210938 291.566406 270.046875 Z M 293.097656 269.09375 C 293.097656 268.761719 293.027344 268.503906 292.894531 268.316406 C 292.757812 268.128906 292.570312 268.035156 292.332031 268.035156 C 292.09375 268.035156 291.90625 268.128906 291.773438 268.316406 C 291.636719 268.503906 291.566406 268.761719 291.566406 269.09375 C 291.566406 269.421875 291.636719 269.683594 291.773438 269.871094 C 291.90625 270.058594 292.09375 270.152344 292.332031 270.152344 C 292.570312 270.152344 292.757812 270.058594 292.894531 269.871094 C 293.027344 269.683594 293.097656 269.421875 293.097656 269.09375 Z M 293.097656 269.09375 " /><path style=" stroke:none;fill-rule:nonzero;fill:rgb(0%,0%,0%);fill-opacity:1;" d="M 295.367188 268.039062 C 295.125 268.039062 294.933594 268.132812 294.796875 268.320312 C 294.65625 268.507812 294.585938 268.765625 294.585938 269.09375 C 294.585938 269.421875 294.65625 269.679688 294.792969 269.867188 C 294.933594 270.054688 295.125 270.148438 295.367188 270.148438 C 295.605469 270.148438 295.796875 270.054688 295.933594 269.867188 C 296.074219 269.675781 296.144531 269.417969 296.144531 269.09375 C 296.144531 268.769531 296.074219 268.511719 295.933594 268.324219 C 295.796875 268.132812 295.605469 268.039062 295.367188 268.039062 Z M 295.367188 267.660156 C 295.757812 267.660156 296.0625 267.785156 296.285156 268.039062 C 296.511719 268.292969 296.621094 268.644531 296.621094 269.09375 C 296.621094 269.539062 296.511719 269.890625 296.285156 270.148438 C 296.0625 270.402344 295.757812 270.53125 295.367188 270.53125 C 294.972656 270.53125 294.667969 270.402344 294.445312 270.148438 C 294.222656 269.890625 294.113281 269.539062 294.113281 269.09375 C 294.113281 268.644531 294.222656 268.292969 294.445312 268.039062 C 294.667969 267.785156 294.972656 267.660156 295.367188 267.660156 Z M 295.367188 267.660156 " /><path style=" stroke:none;fill-rule:nonzero;fill:rgb(0%,0%,0%);fill-opacity:1;" d="M 299.335938 267.828125 L 299.335938 268.25 C 299.207031 268.179688 299.078125 268.125 298.953125 268.089844 C 298.824219 268.054688 298.695312 268.039062 298.566406 268.039062 C 298.273438 268.039062 298.046875 268.132812 297.886719 268.316406 C 297.726562 268.5 297.644531 268.757812 297.644531 269.09375 C 297.644531 269.425781 297.726562 269.6875 297.886719 269.871094 C 298.046875 270.054688 298.273438 270.148438 298.566406 270.148438 C 298.695312 270.148438 298.824219 270.128906 298.953125 270.097656 C 299.078125 270.0625 299.207031 270.007812 299.335938 269.9375 L 299.335938 270.355469 C 299.207031 270.410156 299.078125 270.457031 298.945312 270.484375 C 298.808594 270.515625 298.667969 270.53125 298.515625 270.53125 C 298.105469 270.53125 297.777344 270.398438 297.535156 270.140625 C 297.292969 269.882812 297.171875 269.53125 297.171875 269.09375 C 297.171875 268.648438 297.292969 268.296875 297.539062 268.042969 C 297.785156 267.785156 298.121094 267.660156 298.546875 267.660156 C 298.683594 267.660156 298.820312 267.671875 298.949219 267.703125 C 299.082031 267.730469 299.210938 267.773438 299.335938 267.828125 Z M 299.335938 267.828125 " /><path style=" stroke:none;fill-rule:nonzero;fill:rgb(0%,0%,0%);fill-opacity:1;" d="M 302.386719 268.808594 L 302.386719 270.457031 L 301.9375 270.457031 L 301.9375 268.824219 C 301.9375 268.5625 301.890625 268.371094 301.789062 268.242188 C 301.6875 268.113281 301.535156 268.050781 301.332031 268.050781 C 301.089844 268.050781 300.898438 268.125 300.757812 268.28125 C 300.621094 268.433594 300.550781 268.644531 300.550781 268.914062 L 300.550781 270.457031 L 300.097656 270.457031 L 300.097656 266.660156 L 300.550781 266.660156 L 300.550781 268.148438 C 300.65625 267.984375 300.785156 267.863281 300.929688 267.78125 C 301.074219 267.699219 301.242188 267.660156 301.433594 267.660156 C 301.746094 267.660156 301.984375 267.753906 302.144531 267.949219 C 302.308594 268.144531 302.386719 268.429688 302.386719 268.808594 Z M 302.386719 268.808594 " /><path style="fill:none;stroke-width:0.8;stroke-linecap:butt;stroke-linejoin:round;stroke:rgb(0%,0%,0%);stroke-opacity:1;stroke-miterlimit:4;" d="M 0 0.002461 L -3.5 0.002461 " transform="matrix(0.5,0,0,0.5,72,221.358145)" /><path style=" stroke:none;fill-rule:nonzero;fill:rgb(0%,0%,0%);fill-opacity:1;" d="M 55.773438 219.9375 C 55.519531 219.9375 55.332031 220.0625 55.203125 220.3125 C 55.074219 220.5625 55.011719 220.9375 55.011719 221.4375 C 55.011719 221.9375 55.074219 222.3125 55.203125 222.5625 C 55.332031 222.8125 55.519531 222.9375 55.773438 222.9375 C 56.03125 222.9375 56.222656 222.8125 56.351562 222.5625 C 56.476562 222.3125 56.542969 221.9375 56.542969 221.4375 C 56.542969 220.9375 56.476562 220.5625 56.351562 220.3125 C 56.222656 220.0625 56.03125 219.9375 55.773438 219.9375 Z M 55.773438 219.546875 C 56.183594 219.546875 56.496094 219.707031 56.710938 220.03125 C 56.925781 220.355469 57.035156 220.824219 57.035156 221.4375 C 57.035156 222.050781 56.925781 222.519531 56.710938 222.84375 C 56.496094 223.167969 56.183594 223.328125 55.773438 223.328125 C 55.367188 223.328125 55.054688 223.167969 54.839844 222.84375 C 54.625 222.519531 54.515625 222.050781 54.515625 221.4375 C 54.515625 220.824219 54.625 220.355469 54.839844 220.03125 C 55.054688 219.707031 55.367188 219.546875 55.773438 219.546875 Z M 55.773438 219.546875 " /><path style=" stroke:none;fill-rule:nonzero;fill:rgb(0%,0%,0%);fill-opacity:1;" d="M 57.902344 222.636719 L 58.417969 222.636719 L 58.417969 223.257812 L 57.902344 223.257812 Z M 57.902344 222.636719 " /><path style=" stroke:none;fill-rule:nonzero;fill:rgb(0%,0%,0%);fill-opacity:1;" d="M 60.546875 219.9375 C 60.292969 219.9375 60.101562 220.0625 59.972656 220.3125 C 59.84375 220.5625 59.78125 220.9375 59.78125 221.4375 C 59.78125 221.9375 59.84375 222.3125 59.972656 222.5625 C 60.101562 222.8125 60.292969 222.9375 60.546875 222.9375 C 60.800781 222.9375 60.992188 222.8125 61.121094 222.5625 C 61.25 222.3125 61.3125 221.9375 61.3125 221.4375 C 61.3125 220.9375 61.25 220.5625 61.121094 220.3125 C 60.992188 220.0625 60.800781 219.9375 60.546875 219.9375 Z M 60.546875 219.546875 C 60.953125 219.546875 61.265625 219.707031 61.480469 220.03125 C 61.699219 220.355469 61.804688 220.824219 61.804688 221.4375 C 61.804688 222.050781 61.699219 222.519531 61.480469 222.84375 C 61.265625 223.167969 60.953125 223.328125 60.546875 223.328125 C 60.136719 223.328125 59.824219 223.167969 59.609375 222.84375 C 59.394531 222.519531 59.285156 222.050781 59.285156 221.4375 C 59.285156 220.824219 59.394531 220.355469 59.609375 220.03125 C 59.824219 219.707031 60.136719 219.546875 60.546875 219.546875 Z M 60.546875 219.546875 " /><path style=" stroke:none;fill-rule:nonzero;fill:rgb(0%,0%,0%);fill-opacity:1;" d="M 63.726562 219.9375 C 63.472656 219.9375 63.28125 220.0625 63.152344 220.3125 C 63.027344 220.5625 62.960938 220.9375 62.960938 221.4375 C 62.960938 221.9375 63.027344 222.3125 63.152344 222.5625 C 63.28125 222.8125 63.472656 222.9375 63.726562 222.9375 C 63.980469 222.9375 64.175781 222.8125 64.300781 222.5625 C 64.429688 222.3125 64.492188 221.9375 64.492188 221.4375 C 64.492188 220.9375 64.429688 220.5625 64.300781 220.3125 C 64.175781 220.0625 63.980469 219.9375 63.726562 219.9375 Z M 63.726562 219.546875 C 64.136719 219.546875 64.449219 219.707031 64.664062 220.03125 C 64.878906 220.355469 64.988281 220.824219 64.988281 221.4375 C 64.988281 222.050781 64.878906 222.519531 64.664062 222.84375 C 64.449219 223.167969 64.136719 223.328125 63.726562 223.328125 C 63.316406 223.328125 63.007812 223.167969 62.789062 222.84375 C 62.574219 222.519531 62.46875 222.050781 62.46875 221.4375 C 62.46875 220.824219 62.574219 220.355469 62.789062 220.03125 C 63.007812 219.707031 63.316406 219.546875 63.726562 219.546875 Z M 63.726562 219.546875 " /><path style=" stroke:none;fill-rule:nonzero;fill:rgb(0%,0%,0%);fill-opacity:1;" d="M 66.277344 222.84375 L 68 222.84375 L 68 223.257812 L 65.683594 223.257812 L 65.683594 222.84375 C 65.871094 222.648438 66.128906 222.390625 66.449219 222.0625 C 66.773438 221.738281 66.976562 221.527344 67.058594 221.429688 C 67.21875 221.253906 67.328125 221.105469 67.390625 220.980469 C 67.453125 220.859375 67.484375 220.738281 67.484375 220.617188 C 67.484375 220.425781 67.417969 220.265625 67.28125 220.144531 C 67.144531 220.023438 66.96875 219.960938 66.75 219.960938 C 66.59375 219.960938 66.429688 219.988281 66.257812 220.042969 C 66.089844 220.097656 65.90625 220.175781 65.710938 220.285156 L 65.710938 219.789062 C 65.90625 219.707031 66.09375 219.648438 66.265625 219.609375 C 66.4375 219.566406 66.597656 219.546875 66.738281 219.546875 C 67.117188 219.546875 67.417969 219.640625 67.644531 219.832031 C 67.867188 220.019531 67.980469 220.269531 67.980469 220.585938 C 67.980469 220.738281 67.953125 220.878906 67.894531 221.011719 C 67.839844 221.148438 67.738281 221.304688 67.589844 221.488281 C 67.546875 221.535156 67.417969 221.671875 67.199219 221.898438 C 66.984375 222.121094 66.675781 222.4375 66.277344 222.84375 Z M 66.277344 222.84375 " /><path style="fill:none;stroke-width:0.8;stroke-linecap:butt;stroke-linejoin:round;stroke:rgb(0%,0%,0%);stroke-opacity:1;stroke-miterlimit:4;" d="M 0 -0.003121 L -3.5 -0.003121 " transform="matrix(0.5,0,0,0.5,72,179.993748)" /><path style=" stroke:none;fill-rule:nonzero;fill:rgb(0%,0%,0%);fill-opacity:1;" d="M 55.773438 178.574219 C 55.519531 178.574219 55.332031 178.699219 55.203125 178.949219 C 55.074219 179.199219 55.011719 179.574219 55.011719 180.074219 C 55.011719 180.574219 55.074219 180.949219 55.203125 181.199219 C 55.332031 181.449219 55.519531 181.574219 55.773438 181.574219 C 56.03125 181.574219 56.222656 181.449219 56.351562 181.199219 C 56.476562 180.949219 56.542969 180.574219 56.542969 180.074219 C 56.542969 179.574219 56.476562 179.199219 56.351562 178.949219 C 56.222656 178.699219 56.03125 178.574219 55.773438 178.574219 Z M 55.773438 178.183594 C 56.183594 178.183594 56.496094 178.34375 56.710938 178.667969 C 56.925781 178.992188 57.035156 179.460938 57.035156 180.074219 C 57.035156 180.6875 56.925781 181.15625 56.710938 181.480469 C 56.496094 181.804688 56.183594 181.964844 55.773438 181.964844 C 55.367188 181.964844 55.054688 181.804688 54.839844 181.480469 C 54.625 181.15625 54.515625 180.6875 54.515625 180.074219 C 54.515625 179.460938 54.625 178.992188 54.839844 178.667969 C 55.054688 178.34375 55.367188 178.183594 55.773438 178.183594 Z M 55.773438 178.183594 " /><path style=" stroke:none;fill-rule:nonzero;fill:rgb(0%,0%,0%);fill-opacity:1;" d="M 57.902344 181.273438 L 58.417969 181.273438 L 58.417969 181.894531 L 57.902344 181.894531 Z M 57.902344 181.273438 " /><path style=" stroke:none;fill-rule:nonzero;fill:rgb(0%,0%,0%);fill-opacity:1;" d="M 60.546875 178.574219 C 60.292969 178.574219 60.101562 178.699219 59.972656 178.949219 C 59.84375 179.199219 59.78125 179.574219 59.78125 180.074219 C 59.78125 180.574219 59.84375 180.949219 59.972656 181.199219 C 60.101562 181.449219 60.292969 181.574219 60.546875 181.574219 C 60.800781 181.574219 60.992188 181.449219 61.121094 181.199219 C 61.25 180.949219 61.3125 180.574219 61.3125 180.074219 C 61.3125 179.574219 61.25 179.199219 61.121094 178.949219 C 60.992188 178.699219 60.800781 178.574219 60.546875 178.574219 Z M 60.546875 178.183594 C 60.953125 178.183594 61.265625 178.34375 61.480469 178.667969 C 61.699219 178.992188 61.804688 179.460938 61.804688 180.074219 C 61.804688 180.6875 61.699219 181.15625 61.480469 181.480469 C 61.265625 181.804688 60.953125 181.964844 60.546875 181.964844 C 60.136719 181.964844 59.824219 181.804688 59.609375 181.480469 C 59.394531 181.15625 59.285156 180.6875 59.285156 180.074219 C 59.285156 179.460938 59.394531 178.992188 59.609375 178.667969 C 59.824219 178.34375 60.136719 178.183594 60.546875 178.183594 Z M 60.546875 178.183594 " /><path style=" stroke:none;fill-rule:nonzero;fill:rgb(0%,0%,0%);fill-opacity:1;" d="M 63.726562 178.574219 C 63.472656 178.574219 63.28125 178.699219 63.152344 178.949219 C 63.027344 179.199219 62.960938 179.574219 62.960938 180.074219 C 62.960938 180.574219 63.027344 180.949219 63.152344 181.199219 C 63.28125 181.449219 63.472656 181.574219 63.726562 181.574219 C 63.980469 181.574219 64.175781 181.449219 64.300781 181.199219 C 64.429688 180.949219 64.492188 180.574219 64.492188 180.074219 C 64.492188 179.574219 64.429688 179.199219 64.300781 178.949219 C 64.175781 178.699219 63.980469 178.574219 63.726562 178.574219 Z M 63.726562 178.183594 C 64.136719 178.183594 64.449219 178.34375 64.664062 178.667969 C 64.878906 178.992188 64.988281 179.460938 64.988281 180.074219 C 64.988281 180.6875 64.878906 181.15625 64.664062 181.480469 C 64.449219 181.804688 64.136719 181.964844 63.726562 181.964844 C 63.316406 181.964844 63.007812 181.804688 62.789062 181.480469 C 62.574219 181.15625 62.46875 180.6875 62.46875 180.074219 C 62.46875 179.460938 62.574219 178.992188 62.789062 178.667969 C 63.007812 178.34375 63.316406 178.183594 63.726562 178.183594 Z M 63.726562 178.183594 " /><path style=" stroke:none;fill-rule:nonzero;fill:rgb(0%,0%,0%);fill-opacity:1;" d="M 67.207031 178.675781 L 65.964844 180.625 L 67.207031 180.625 Z M 67.078125 178.246094 L 67.699219 178.246094 L 67.699219 180.625 L 68.21875 180.625 L 68.21875 181.035156 L 67.699219 181.035156 L 67.699219 181.894531 L 67.207031 181.894531 L 67.207031 181.035156 L 65.5625 181.035156 L 65.5625 180.558594 Z M 67.078125 178.246094 " /><path style="fill:none;stroke-width:0.8;stroke-linecap:butt;stroke-linejoin:round;stroke:rgb(0%,0%,0%);stroke-opacity:1;stroke-miterlimit:4;" d="M 0 -0.0008905 L -3.5 -0.0008905 " transform="matrix(0.5,0,0,0.5,72,138.629352)" /><path style=" stroke:none;fill-rule:nonzero;fill:rgb(0%,0%,0%);fill-opacity:1;" d="M 55.773438 137.207031 C 55.519531 137.207031 55.332031 137.332031 55.203125 137.582031 C 55.074219 137.832031 55.011719 138.207031 55.011719 138.710938 C 55.011719 139.210938 55.074219 139.585938 55.203125 139.835938 C 55.332031 140.085938 55.519531 140.210938 55.773438 140.210938 C 56.03125 140.210938 56.222656 140.085938 56.351562 139.835938 C 56.476562 139.585938 56.542969 139.210938 56.542969 138.710938 C 56.542969 138.207031 56.476562 137.832031 56.351562 137.582031 C 56.222656 137.332031 56.03125 137.207031 55.773438 137.207031 Z M 55.773438 136.816406 C 56.183594 136.816406 56.496094 136.980469 56.710938 137.304688 C 56.925781 137.625 57.035156 138.09375 57.035156 138.710938 C 57.035156 139.324219 56.925781 139.792969 56.710938 140.117188 C 56.496094 140.4375 56.183594 140.601562 55.773438 140.601562 C 55.367188 140.601562 55.054688 140.4375 54.839844 140.117188 C 54.625 139.792969 54.515625 139.324219 54.515625 138.710938 C 54.515625 138.09375 54.625 137.625 54.839844 137.304688 C 55.054688 136.980469 55.367188 136.816406 55.773438 136.816406 Z M 55.773438 136.816406 " /><path style=" stroke:none;fill-rule:nonzero;fill:rgb(0%,0%,0%);fill-opacity:1;" d="M 57.902344 139.910156 L 58.417969 139.910156 L 58.417969 140.527344 L 57.902344 140.527344 Z M 57.902344 139.910156 " /><path style=" stroke:none;fill-rule:nonzero;fill:rgb(0%,0%,0%);fill-opacity:1;" d="M 60.546875 137.207031 C 60.292969 137.207031 60.101562 137.332031 59.972656 137.582031 C 59.84375 137.832031 59.78125 138.207031 59.78125 138.710938 C 59.78125 139.210938 59.84375 139.585938 59.972656 139.835938 C 60.101562 140.085938 60.292969 140.210938 60.546875 140.210938 C 60.800781 140.210938 60.992188 140.085938 61.121094 139.835938 C 61.25 139.585938 61.3125 139.210938 61.3125 138.710938 C 61.3125 138.207031 61.25 137.832031 61.121094 137.582031 C 60.992188 137.332031 60.800781 137.207031 60.546875 137.207031 Z M 60.546875 136.816406 C 60.953125 136.816406 61.265625 136.980469 61.480469 137.304688 C 61.699219 137.625 61.804688 138.09375 61.804688 138.710938 C 61.804688 139.324219 61.699219 139.792969 61.480469 140.117188 C 61.265625 140.4375 60.953125 140.601562 60.546875 140.601562 C 60.136719 140.601562 59.824219 140.4375 59.609375 140.117188 C 59.394531 139.792969 59.285156 139.324219 59.285156 138.710938 C 59.285156 138.09375 59.394531 137.625 59.609375 137.304688 C 59.824219 136.980469 60.136719 136.816406 60.546875 136.816406 Z M 60.546875 136.816406 " /><path style=" stroke:none;fill-rule:nonzero;fill:rgb(0%,0%,0%);fill-opacity:1;" d="M 63.726562 137.207031 C 63.472656 137.207031 63.28125 137.332031 63.152344 137.582031 C 63.027344 137.832031 62.960938 138.207031 62.960938 138.710938 C 62.960938 139.210938 63.027344 139.585938 63.152344 139.835938 C 63.28125 140.085938 63.472656 140.210938 63.726562 140.210938 C 63.980469 140.210938 64.175781 140.085938 64.300781 139.835938 C 64.429688 139.585938 64.492188 139.210938 64.492188 138.710938 C 64.492188 138.207031 64.429688 137.832031 64.300781 137.582031 C 64.175781 137.332031 63.980469 137.207031 63.726562 137.207031 Z M 63.726562 136.816406 C 64.136719 136.816406 64.449219 136.980469 64.664062 137.304688 C 64.878906 137.625 64.988281 138.09375 64.988281 138.710938 C 64.988281 139.324219 64.878906 139.792969 64.664062 140.117188 C 64.449219 140.4375 64.136719 140.601562 63.726562 140.601562 C 63.316406 140.601562 63.007812 140.4375 62.789062 140.117188 C 62.574219 139.792969 62.46875 139.324219 62.46875 138.710938 C 62.46875 138.09375 62.574219 137.625 62.789062 137.304688 C 63.007812 136.980469 63.316406 136.816406 63.726562 136.816406 Z M 63.726562 136.816406 " /><path style=" stroke:none;fill-rule:nonzero;fill:rgb(0%,0%,0%);fill-opacity:1;" d="M 66.96875 138.511719 C 66.75 138.511719 66.574219 138.585938 66.441406 138.738281 C 66.3125 138.886719 66.25 139.097656 66.25 139.359375 C 66.25 139.621094 66.3125 139.828125 66.441406 139.980469 C 66.574219 140.132812 66.75 140.210938 66.96875 140.210938 C 67.191406 140.210938 67.367188 140.132812 67.496094 139.980469 C 67.625 139.828125 67.6875 139.621094 67.6875 139.359375 C 67.6875 139.097656 67.625 138.886719 67.496094 138.738281 C 67.367188 138.585938 67.191406 138.511719 66.96875 138.511719 Z M 67.949219 136.964844 L 67.949219 137.414062 C 67.824219 137.355469 67.699219 137.308594 67.574219 137.28125 C 67.449219 137.25 67.324219 137.234375 67.199219 137.234375 C 66.871094 137.234375 66.625 137.34375 66.453125 137.5625 C 66.28125 137.78125 66.183594 138.113281 66.160156 138.558594 C 66.253906 138.417969 66.375 138.308594 66.519531 138.234375 C 66.664062 138.15625 66.824219 138.121094 67 138.121094 C 67.363281 138.121094 67.652344 138.230469 67.867188 138.453125 C 68.078125 138.675781 68.183594 138.976562 68.183594 139.359375 C 68.183594 139.734375 68.074219 140.035156 67.851562 140.261719 C 67.632812 140.488281 67.335938 140.601562 66.96875 140.601562 C 66.546875 140.601562 66.226562 140.4375 66.003906 140.117188 C 65.78125 139.792969 65.667969 139.324219 65.667969 138.710938 C 65.667969 138.132812 65.804688 137.675781 66.078125 137.332031 C 66.351562 136.988281 66.71875 136.816406 67.179688 136.816406 C 67.304688 136.816406 67.429688 136.832031 67.554688 136.855469 C 67.679688 136.878906 67.8125 136.914062 67.949219 136.964844 Z M 67.949219 136.964844 " /><path style="fill:none;stroke-width:0.8;stroke-linecap:butt;stroke-linejoin:round;stroke:rgb(0%,0%,0%);stroke-opacity:1;stroke-miterlimit:4;" d="M 0 0.001341 L -3.5 0.001341 " transform="matrix(0.5,0,0,0.5,72,97.264955)" /><path style=" stroke:none;fill-rule:nonzero;fill:rgb(0%,0%,0%);fill-opacity:1;" d="M 55.773438 95.84375 C 55.519531 95.84375 55.332031 95.96875 55.203125 96.21875 C 55.074219 96.46875 55.011719 96.84375 55.011719 97.347656 C 55.011719 97.84375 55.074219 98.21875 55.203125 98.46875 C 55.332031 98.71875 55.519531 98.84375 55.773438 98.84375 C 56.03125 98.84375 56.222656 98.71875 56.351562 98.46875 C 56.476562 98.21875 56.542969 97.84375 56.542969 97.347656 C 56.542969 96.84375 56.476562 96.46875 56.351562 96.21875 C 56.222656 95.96875 56.03125 95.84375 55.773438 95.84375 Z M 55.773438 95.453125 C 56.183594 95.453125 56.496094 95.617188 56.710938 95.9375 C 56.925781 96.261719 57.035156 96.730469 57.035156 97.347656 C 57.035156 97.960938 56.925781 98.429688 56.710938 98.75 C 56.496094 99.074219 56.183594 99.234375 55.773438 99.234375 C 55.367188 99.234375 55.054688 99.074219 54.839844 98.75 C 54.625 98.429688 54.515625 97.960938 54.515625 97.347656 C 54.515625 96.730469 54.625 96.261719 54.839844 95.9375 C 55.054688 95.617188 55.367188 95.453125 55.773438 95.453125 Z M 55.773438 95.453125 " /><path style=" stroke:none;fill-rule:nonzero;fill:rgb(0%,0%,0%);fill-opacity:1;" d="M 57.902344 98.542969 L 58.417969 98.542969 L 58.417969 99.164062 L 57.902344 99.164062 Z M 57.902344 98.542969 " /><path style=" stroke:none;fill-rule:nonzero;fill:rgb(0%,0%,0%);fill-opacity:1;" d="M 60.546875 95.84375 C 60.292969 95.84375 60.101562 95.96875 59.972656 96.21875 C 59.84375 96.46875 59.78125 96.84375 59.78125 97.347656 C 59.78125 97.84375 59.84375 98.21875 59.972656 98.46875 C 60.101562 98.71875 60.292969 98.84375 60.546875 98.84375 C 60.800781 98.84375 60.992188 98.71875 61.121094 98.46875 C 61.25 98.21875 61.3125 97.84375 61.3125 97.347656 C 61.3125 96.84375 61.25 96.46875 61.121094 96.21875 C 60.992188 95.96875 60.800781 95.84375 60.546875 95.84375 Z M 60.546875 95.453125 C 60.953125 95.453125 61.265625 95.617188 61.480469 95.9375 C 61.699219 96.261719 61.804688 96.730469 61.804688 97.347656 C 61.804688 97.960938 61.699219 98.429688 61.480469 98.75 C 61.265625 99.074219 60.953125 99.234375 60.546875 99.234375 C 60.136719 99.234375 59.824219 99.074219 59.609375 98.75 C 59.394531 98.429688 59.285156 97.960938 59.285156 97.347656 C 59.285156 96.730469 59.394531 96.261719 59.609375 95.9375 C 59.824219 95.617188 60.136719 95.453125 60.546875 95.453125 Z M 60.546875 95.453125 " /><path style=" stroke:none;fill-rule:nonzero;fill:rgb(0%,0%,0%);fill-opacity:1;" d="M 63.726562 95.84375 C 63.472656 95.84375 63.28125 95.96875 63.152344 96.21875 C 63.027344 96.46875 62.960938 96.84375 62.960938 97.347656 C 62.960938 97.84375 63.027344 98.21875 63.152344 98.46875 C 63.28125 98.71875 63.472656 98.84375 63.726562 98.84375 C 63.980469 98.84375 64.175781 98.71875 64.300781 98.46875 C 64.429688 98.21875 64.492188 97.84375 64.492188 97.347656 C 64.492188 96.84375 64.429688 96.46875 64.300781 96.21875 C 64.175781 95.96875 63.980469 95.84375 63.726562 95.84375 Z M 63.726562 95.453125 C 64.136719 95.453125 64.449219 95.617188 64.664062 95.9375 C 64.878906 96.261719 64.988281 96.730469 64.988281 97.347656 C 64.988281 97.960938 64.878906 98.429688 64.664062 98.75 C 64.449219 99.074219 64.136719 99.234375 63.726562 99.234375 C 63.316406 99.234375 63.007812 99.074219 62.789062 98.75 C 62.574219 98.429688 62.46875 97.960938 62.46875 97.347656 C 62.46875 96.730469 62.574219 96.261719 62.789062 95.9375 C 63.007812 95.617188 63.316406 95.453125 63.726562 95.453125 Z M 63.726562 95.453125 " /><path style=" stroke:none;fill-rule:nonzero;fill:rgb(0%,0%,0%);fill-opacity:1;" d="M 66.90625 97.433594 C 66.671875 97.433594 66.488281 97.496094 66.355469 97.621094 C 66.222656 97.746094 66.152344 97.917969 66.152344 98.140625 C 66.152344 98.359375 66.222656 98.53125 66.355469 98.65625 C 66.488281 98.78125 66.671875 98.84375 66.90625 98.84375 C 67.140625 98.84375 67.328125 98.78125 67.460938 98.65625 C 67.597656 98.53125 67.664062 98.355469 67.664062 98.140625 C 67.664062 97.917969 67.597656 97.746094 67.464844 97.621094 C 67.328125 97.496094 67.144531 97.433594 66.90625 97.433594 Z M 66.414062 97.222656 C 66.203125 97.171875 66.039062 97.074219 65.921875 96.929688 C 65.800781 96.785156 65.742188 96.605469 65.742188 96.398438 C 65.742188 96.105469 65.847656 95.875 66.054688 95.707031 C 66.261719 95.539062 66.546875 95.453125 66.90625 95.453125 C 67.269531 95.453125 67.554688 95.539062 67.761719 95.707031 C 67.96875 95.875 68.074219 96.105469 68.074219 96.398438 C 68.074219 96.605469 68.011719 96.785156 67.894531 96.929688 C 67.777344 97.074219 67.613281 97.171875 67.402344 97.222656 C 67.640625 97.277344 67.828125 97.386719 67.957031 97.550781 C 68.089844 97.710938 68.15625 97.90625 68.15625 98.140625 C 68.15625 98.492188 68.050781 98.765625 67.835938 98.953125 C 67.617188 99.140625 67.308594 99.234375 66.90625 99.234375 C 66.507812 99.234375 66.199219 99.140625 65.980469 98.953125 C 65.765625 98.765625 65.65625 98.492188 65.65625 98.140625 C 65.65625 97.90625 65.722656 97.710938 65.859375 97.550781 C 65.992188 97.386719 66.175781 97.277344 66.414062 97.222656 Z M 66.234375 96.445312 C 66.234375 96.632812 66.292969 96.78125 66.410156 96.886719 C 66.527344 96.992188 66.695312 97.046875 66.90625 97.046875 C 67.121094 97.046875 67.285156 96.992188 67.40625 96.886719 C 67.523438 96.78125 67.585938 96.632812 67.585938 96.445312 C 67.585938 96.257812 67.523438 96.109375 67.40625 96.003906 C 67.285156 95.898438 67.121094 95.84375 66.90625 95.84375 C 66.695312 95.84375 66.527344 95.898438 66.410156 96.003906 C 66.292969 96.109375 66.234375 96.257812 66.234375 96.445312 Z M 66.234375 96.445312 " /><path style="fill:none;stroke-width:0.8;stroke-linecap:butt;stroke-linejoin:round;stroke:rgb(0%,0%,0%);stroke-opacity:1;stroke-miterlimit:4;" d="M 0 0.0035715 L -3.5 0.0035715 " transform="matrix(0.5,0,0,0.5,72,55.900558)" /><path style=" stroke:none;fill-rule:nonzero;fill:rgb(0%,0%,0%);fill-opacity:1;" d="M 55.773438 54.480469 C 55.519531 54.480469 55.332031 54.605469 55.203125 54.855469 C 55.074219 55.105469 55.011719 55.480469 55.011719 55.980469 C 55.011719 56.480469 55.074219 56.855469 55.203125 57.105469 C 55.332031 57.355469 55.519531 57.480469 55.773438 57.480469 C 56.03125 57.480469 56.222656 57.355469 56.351562 57.105469 C 56.476562 56.855469 56.542969 56.480469 56.542969 55.980469 C 56.542969 55.480469 56.476562 55.105469 56.351562 54.855469 C 56.222656 54.605469 56.03125 54.480469 55.773438 54.480469 Z M 55.773438 54.089844 C 56.183594 54.089844 56.496094 54.25 56.710938 54.574219 C 56.925781 54.898438 57.035156 55.367188 57.035156 55.980469 C 57.035156 56.59375 56.925781 57.0625 56.710938 57.386719 C 56.496094 57.710938 56.183594 57.871094 55.773438 57.871094 C 55.367188 57.871094 55.054688 57.710938 54.839844 57.386719 C 54.625 57.0625 54.515625 56.59375 54.515625 55.980469 C 54.515625 55.367188 54.625 54.898438 54.839844 54.574219 C 55.054688 54.25 55.367188 54.089844 55.773438 54.089844 Z M 55.773438 54.089844 " /><path style=" stroke:none;fill-rule:nonzero;fill:rgb(0%,0%,0%);fill-opacity:1;" d="M 57.902344 57.179688 L 58.417969 57.179688 L 58.417969 57.800781 L 57.902344 57.800781 Z M 57.902344 57.179688 " /><path style=" stroke:none;fill-rule:nonzero;fill:rgb(0%,0%,0%);fill-opacity:1;" d="M 60.546875 54.480469 C 60.292969 54.480469 60.101562 54.605469 59.972656 54.855469 C 59.84375 55.105469 59.78125 55.480469 59.78125 55.980469 C 59.78125 56.480469 59.84375 56.855469 59.972656 57.105469 C 60.101562 57.355469 60.292969 57.480469 60.546875 57.480469 C 60.800781 57.480469 60.992188 57.355469 61.121094 57.105469 C 61.25 56.855469 61.3125 56.480469 61.3125 55.980469 C 61.3125 55.480469 61.25 55.105469 61.121094 54.855469 C 60.992188 54.605469 60.800781 54.480469 60.546875 54.480469 Z M 60.546875 54.089844 C 60.953125 54.089844 61.265625 54.25 61.480469 54.574219 C 61.699219 54.898438 61.804688 55.367188 61.804688 55.980469 C 61.804688 56.59375 61.699219 57.0625 61.480469 57.386719 C 61.265625 57.710938 60.953125 57.871094 60.546875 57.871094 C 60.136719 57.871094 59.824219 57.710938 59.609375 57.386719 C 59.394531 57.0625 59.285156 56.59375 59.285156 55.980469 C 59.285156 55.367188 59.394531 54.898438 59.609375 54.574219 C 59.824219 54.25 60.136719 54.089844 60.546875 54.089844 Z M 60.546875 54.089844 " /><path style=" stroke:none;fill-rule:nonzero;fill:rgb(0%,0%,0%);fill-opacity:1;" d="M 62.757812 57.386719 L 63.5625 57.386719 L 63.5625 54.605469 L 62.6875 54.78125 L 62.6875 54.332031 L 63.558594 54.15625 L 64.050781 54.15625 L 64.050781 57.386719 L 64.855469 57.386719 L 64.855469 57.800781 L 62.757812 57.800781 Z M 62.757812 57.386719 " /><path style=" stroke:none;fill-rule:nonzero;fill:rgb(0%,0%,0%);fill-opacity:1;" d="M 66.90625 54.480469 C 66.652344 54.480469 66.464844 54.605469 66.335938 54.855469 C 66.207031 55.105469 66.144531 55.480469 66.144531 55.980469 C 66.144531 56.480469 66.207031 56.855469 66.335938 57.105469 C 66.464844 57.355469 66.652344 57.480469 66.90625 57.480469 C 67.164062 57.480469 67.355469 57.355469 67.484375 57.105469 C 67.609375 56.855469 67.675781 56.480469 67.675781 55.980469 C 67.675781 55.480469 67.609375 55.105469 67.484375 54.855469 C 67.355469 54.605469 67.164062 54.480469 66.90625 54.480469 Z M 66.90625 54.089844 C 67.316406 54.089844 67.628906 54.25 67.84375 54.574219 C 68.058594 54.898438 68.167969 55.367188 68.167969 55.980469 C 68.167969 56.59375 68.058594 57.0625 67.84375 57.386719 C 67.628906 57.710938 67.316406 57.871094 66.90625 57.871094 C 66.5 57.871094 66.1875 57.710938 65.972656 57.386719 C 65.757812 57.0625 65.648438 56.59375 65.648438 55.980469 C 65.648438 55.367188 65.757812 54.898438 65.972656 54.574219 C 66.1875 54.25 66.5 54.089844 66.90625 54.089844 Z M 66.90625 54.089844 " /><path style=" stroke:none;fill-rule:nonzero;fill:rgb(0%,0%,0%);fill-opacity:1;" d="M 47.347656 149.796875 L 47.347656 149.347656 L 51.144531 149.347656 L 51.144531 149.796875 Z M 47.347656 149.796875 " /><path style=" stroke:none;fill-rule:nonzero;fill:rgb(0%,0%,0%);fill-opacity:1;" d="M 48.726562 147.347656 C 48.726562 147.589844 48.820312 147.78125 49.007812 147.921875 C 49.195312 148.058594 49.453125 148.128906 49.78125 148.128906 C 50.109375 148.128906 50.367188 148.0625 50.554688 147.921875 C 50.742188 147.78125 50.835938 147.589844 50.835938 147.347656 C 50.835938 147.109375 50.742188 146.921875 50.554688 146.78125 C 50.363281 146.640625 50.105469 146.570312 49.78125 146.570312 C 49.457031 146.570312 49.199219 146.640625 49.011719 146.78125 C 48.820312 146.921875 48.726562 147.109375 48.726562 147.347656 Z M 48.347656 147.347656 C 48.347656 146.957031 48.472656 146.652344 48.726562 146.429688 C 48.980469 146.207031 49.332031 146.09375 49.78125 146.09375 C 50.230469 146.09375 50.578125 146.207031 50.835938 146.429688 C 51.089844 146.652344 51.21875 146.957031 51.21875 147.347656 C 51.21875 147.742188 51.089844 148.046875 50.835938 148.269531 C 50.578125 148.492188 50.230469 148.605469 49.78125 148.605469 C 49.332031 148.605469 48.980469 148.492188 48.726562 148.269531 C 48.472656 148.046875 48.347656 147.742188 48.347656 147.347656 Z M 48.347656 147.347656 " /><path style=" stroke:none;fill-rule:nonzero;fill:rgb(0%,0%,0%);fill-opacity:1;" d="M 48.492188 143.605469 L 48.917969 143.605469 C 48.851562 143.734375 48.804688 143.863281 48.769531 144 C 48.738281 144.136719 48.722656 144.28125 48.722656 144.425781 C 48.722656 144.648438 48.757812 144.816406 48.824219 144.929688 C 48.890625 145.039062 48.996094 145.09375 49.132812 145.09375 C 49.234375 145.09375 49.316406 145.054688 49.378906 144.976562 C 49.4375 144.894531 49.492188 144.734375 49.546875 144.496094 L 49.582031 144.339844 C 49.648438 144.023438 49.746094 143.796875 49.871094 143.660156 C 49.996094 143.527344 50.167969 143.460938 50.390625 143.460938 C 50.644531 143.460938 50.847656 143.558594 50.996094 143.761719 C 51.144531 143.960938 51.21875 144.238281 51.21875 144.589844 C 51.21875 144.738281 51.203125 144.890625 51.175781 145.046875 C 51.144531 145.207031 51.101562 145.375 51.046875 145.550781 L 50.582031 145.550781 C 50.667969 145.382812 50.734375 145.21875 50.777344 145.058594 C 50.820312 144.898438 50.839844 144.738281 50.839844 144.578125 C 50.839844 144.367188 50.804688 144.207031 50.730469 144.09375 C 50.660156 143.976562 50.558594 143.921875 50.425781 143.921875 C 50.304688 143.921875 50.210938 143.960938 50.144531 144.042969 C 50.082031 144.125 50.015625 144.308594 49.957031 144.585938 L 49.921875 144.742188 C 49.863281 145.019531 49.773438 145.222656 49.652344 145.34375 C 49.53125 145.46875 49.363281 145.53125 49.152344 145.53125 C 48.894531 145.53125 48.695312 145.4375 48.554688 145.257812 C 48.417969 145.074219 48.347656 144.816406 48.347656 144.480469 C 48.347656 144.3125 48.359375 144.160156 48.382812 144.011719 C 48.40625 143.863281 48.441406 143.730469 48.492188 143.605469 Z M 48.492188 143.605469 " /><path style=" stroke:none;fill-rule:nonzero;fill:rgb(0%,0%,0%);fill-opacity:1;" d="M 48.492188 141 L 48.917969 141 C 48.851562 141.128906 48.804688 141.261719 48.769531 141.398438 C 48.738281 141.535156 48.722656 141.675781 48.722656 141.820312 C 48.722656 142.042969 48.757812 142.210938 48.824219 142.324219 C 48.890625 142.433594 48.996094 142.492188 49.132812 142.492188 C 49.234375 142.492188 49.316406 142.449219 49.378906 142.371094 C 49.4375 142.292969 49.492188 142.132812 49.546875 141.890625 L 49.582031 141.734375 C 49.648438 141.417969 49.746094 141.191406 49.871094 141.054688 C 49.996094 140.921875 50.167969 140.855469 50.390625 140.855469 C 50.644531 140.855469 50.847656 140.957031 50.996094 141.15625 C 51.144531 141.355469 51.21875 141.632812 51.21875 141.984375 C 51.21875 142.132812 51.203125 142.285156 51.175781 142.441406 C 51.144531 142.601562 51.101562 142.769531 51.046875 142.945312 L 50.582031 142.945312 C 50.667969 142.777344 50.734375 142.613281 50.777344 142.453125 C 50.820312 142.292969 50.839844 142.132812 50.839844 141.976562 C 50.839844 141.761719 50.804688 141.601562 50.730469 141.488281 C 50.660156 141.375 50.558594 141.316406 50.425781 141.316406 C 50.304688 141.316406 50.210938 141.359375 50.144531 141.441406 C 50.082031 141.523438 50.015625 141.703125 49.957031 141.980469 L 49.921875 142.136719 C 49.863281 142.414062 49.773438 142.617188 49.652344 142.738281 C 49.53125 142.863281 49.363281 142.925781 49.152344 142.925781 C 48.894531 142.925781 48.695312 142.832031 48.554688 142.652344 C 48.417969 142.46875 48.347656 142.210938 48.347656 141.875 C 48.347656 141.710938 48.359375 141.554688 48.382812 141.40625 C 48.40625 141.261719 48.441406 141.125 48.492188 141 Z M 48.492188 141 " /><path style="fill:none;stroke-width:1.5;stroke-linecap:square;stroke-linejoin:round;stroke:rgb(12.156863%,46.666667%,70.588235%);stroke-opacity:1;stroke-miterlimit:4;" d="M 184.578125 89.28125 L 227.296875 446.21875 L 270.015625 465.984375 L 312.734375 463.578125 L 355.453125 475.117188 L 398.171875 472.429688 L 440.890625 472.15625 L 483.609375 468.148438 L 526.320312 472.421875 L 569.039062 476.5625 L 611.757812 474.210938 L 654.476562 492.476562 L 697.195312 479.601562 L 739.914062 484.0625 L 782.632812 485.734375 L 825.34375 479.4375 L 868.0625 486.273438 L 910.78125 465.40625 L 953.5 491.796875 L 996.21875 483.085938 " transform="matrix(0.5,0,0,0.5,0,0)" /><path style="fill:none;stroke-width:0.8;stroke-linecap:square;stroke-linejoin:miter;stroke:rgb(0%,0%,0%);stroke-opacity:1;stroke-miterlimit:4;" d="M 144 512.640625 L 144 69.117188 " transform="matrix(0.5,0,0,0.5,0,0)" /><path style="fill:none;stroke-width:0.8;stroke-linecap:square;stroke-linejoin:miter;stroke:rgb(0%,0%,0%);stroke-opacity:1;stroke-miterlimit:4;" d="M 1036.796875 512.640625 L 1036.796875 69.117188 " transform="matrix(0.5,0,0,0.5,0,0)" /><path style="fill:none;stroke-width:0.8;stroke-linecap:square;stroke-linejoin:miter;stroke:rgb(0%,0%,0%);stroke-opacity:1;stroke-miterlimit:4;" d="M 144 512.640625 L 1036.796875 512.640625 " transform="matrix(0.5,0,0,0.5,0,0)" /><path style="fill:none;stroke-width:0.8;stroke-linecap:square;stroke-linejoin:miter;stroke:rgb(0%,0%,0%);stroke-opacity:1;stroke-miterlimit:4;" d="M 144 69.117188 L 1036.796875 69.117188 " transform="matrix(0.5,0,0,0.5,0,0)" /><path style=" stroke:none;fill-rule:nonzero;fill:rgb(0%,0%,0%);fill-opacity:1;" d="M 282.230469 28.910156 C 282.363281 28.667969 282.527344 28.488281 282.714844 28.371094 C 282.902344 28.257812 283.121094 28.199219 283.375 28.199219 C 283.71875 28.199219 283.980469 28.320312 284.167969 28.558594 C 284.351562 28.796875 284.445312 29.136719 284.445312 29.578125 L 284.445312 31.558594 L 283.902344 31.558594 L 283.902344 29.597656 C 283.902344 29.28125 283.847656 29.050781 283.734375 28.898438 C 283.625 28.746094 283.453125 28.667969 283.226562 28.667969 C 282.949219 28.667969 282.726562 28.761719 282.5625 28.945312 C 282.402344 29.132812 282.320312 29.386719 282.320312 29.707031 L 282.320312 31.558594 L 281.777344 31.558594 L 281.777344 29.597656 C 281.777344 29.28125 281.722656 29.046875 281.613281 28.894531 C 281.5 28.746094 281.328125 28.667969 281.097656 28.667969 C 280.820312 28.667969 280.601562 28.761719 280.441406 28.949219 C 280.277344 29.132812 280.195312 29.386719 280.195312 29.707031 L 280.195312 31.558594 L 279.65625 31.558594 L 279.65625 28.277344 L 280.195312 28.277344 L 280.195312 28.789062 C 280.320312 28.585938 280.46875 28.4375 280.640625 28.34375 C 280.8125 28.246094 281.015625 28.199219 281.25 28.199219 C 281.488281 28.199219 281.691406 28.261719 281.859375 28.382812 C 282.027344 28.503906 282.148438 28.679688 282.230469 28.910156 Z M 282.230469 28.910156 " /><path style=" stroke:none;fill-rule:nonzero;fill:rgb(0%,0%,0%);fill-opacity:1;" d="M 286.792969 28.65625 C 286.503906 28.65625 286.273438 28.769531 286.105469 28.996094 C 285.9375 29.21875 285.855469 29.53125 285.855469 29.921875 C 285.855469 30.316406 285.9375 30.625 286.105469 30.847656 C 286.273438 31.074219 286.5 31.1875 286.792969 31.1875 C 287.078125 31.1875 287.304688 31.074219 287.472656 30.847656 C 287.640625 30.621094 287.726562 30.3125 287.726562 29.921875 C 287.726562 29.535156 287.640625 29.226562 287.472656 28.996094 C 287.304688 28.769531 287.078125 28.65625 286.792969 28.65625 Z M 286.792969 28.199219 C 287.261719 28.199219 287.628906 28.351562 287.894531 28.65625 C 288.164062 28.960938 288.296875 29.382812 288.296875 29.921875 C 288.296875 30.460938 288.164062 30.878906 287.894531 31.1875 C 287.628906 31.492188 287.261719 31.644531 286.792969 31.644531 C 286.320312 31.644531 285.953125 31.492188 285.683594 31.1875 C 285.417969 30.878906 285.285156 30.460938 285.285156 29.921875 C 285.285156 29.382812 285.417969 28.960938 285.683594 28.65625 C 285.953125 28.351562 286.320312 28.199219 286.792969 28.199219 Z M 286.792969 28.199219 " /><path style=" stroke:none;fill-rule:nonzero;fill:rgb(0%,0%,0%);fill-opacity:1;" d="M 291.351562 28.777344 L 291.351562 27 L 291.890625 27 L 291.890625 31.558594 L 291.351562 31.558594 L 291.351562 31.066406 C 291.238281 31.261719 291.09375 31.40625 290.921875 31.503906 C 290.75 31.597656 290.539062 31.644531 290.296875 31.644531 C 289.902344 31.644531 289.578125 31.488281 289.328125 31.171875 C 289.082031 30.855469 288.957031 30.4375 288.957031 29.921875 C 288.957031 29.40625 289.082031 28.992188 289.328125 28.675781 C 289.578125 28.359375 289.902344 28.199219 290.296875 28.199219 C 290.539062 28.199219 290.75 28.246094 290.921875 28.34375 C 291.09375 28.4375 291.238281 28.582031 291.351562 28.777344 Z M 289.511719 29.921875 C 289.511719 30.320312 289.59375 30.628906 289.757812 30.855469 C 289.921875 31.082031 290.144531 31.195312 290.429688 31.195312 C 290.714844 31.195312 290.941406 31.082031 291.105469 30.855469 C 291.269531 30.628906 291.351562 30.320312 291.351562 29.921875 C 291.351562 29.527344 291.269531 29.214844 291.105469 28.988281 C 290.941406 28.765625 290.714844 28.652344 290.429688 28.652344 C 290.144531 28.652344 289.921875 28.765625 289.757812 28.988281 C 289.59375 29.214844 289.511719 29.527344 289.511719 29.921875 Z M 289.511719 29.921875 " /><path style=" stroke:none;fill-rule:nonzero;fill:rgb(0%,0%,0%);fill-opacity:1;" d="M 295.804688 29.785156 L 295.804688 30.046875 L 293.328125 30.046875 C 293.351562 30.417969 293.464844 30.703125 293.664062 30.894531 C 293.863281 31.089844 294.140625 31.1875 294.5 31.1875 C 294.707031 31.1875 294.90625 31.164062 295.101562 31.113281 C 295.296875 31.0625 295.488281 30.984375 295.679688 30.882812 L 295.679688 31.394531 C 295.488281 31.476562 295.289062 31.539062 295.085938 31.582031 C 294.882812 31.625 294.675781 31.644531 294.46875 31.644531 C 293.945312 31.644531 293.53125 31.492188 293.222656 31.1875 C 292.917969 30.882812 292.765625 30.472656 292.765625 29.953125 C 292.765625 29.414062 292.910156 28.988281 293.199219 28.671875 C 293.492188 28.359375 293.882812 28.199219 294.375 28.199219 C 294.816406 28.199219 295.164062 28.34375 295.421875 28.625 C 295.679688 28.910156 295.804688 29.296875 295.804688 29.785156 Z M 295.265625 29.625 C 295.265625 29.332031 295.179688 29.097656 295.019531 28.921875 C 294.859375 28.746094 294.644531 28.65625 294.378906 28.65625 C 294.078125 28.65625 293.839844 28.742188 293.65625 28.910156 C 293.476562 29.082031 293.375 29.320312 293.34375 29.628906 Z M 295.265625 29.625 " /><path style=" stroke:none;fill-rule:nonzero;fill:rgb(0%,0%,0%);fill-opacity:1;" d="M 296.691406 27 L 297.230469 27 L 297.230469 31.558594 L 296.691406 31.558594 Z M 296.691406 27 " /><path style=" stroke:none;fill-rule:nonzero;fill:rgb(0%,0%,0%);fill-opacity:1;" d="M 300.265625 27 L 300.804688 27 L 300.804688 31.558594 L 300.265625 31.558594 Z M 300.265625 27 " /><path style=" stroke:none;fill-rule:nonzero;fill:rgb(0%,0%,0%);fill-opacity:1;" d="M 303.203125 28.65625 C 302.914062 28.65625 302.6875 28.769531 302.519531 28.996094 C 302.351562 29.21875 302.265625 29.53125 302.265625 29.921875 C 302.265625 30.316406 302.347656 30.625 302.515625 30.847656 C 302.683594 31.074219 302.914062 31.1875 303.203125 31.1875 C 303.492188 31.1875 303.71875 31.074219 303.886719 30.847656 C 304.054688 30.621094 304.136719 30.3125 304.136719 29.921875 C 304.136719 29.535156 304.054688 29.226562 303.886719 28.996094 C 303.71875 28.769531 303.492188 28.65625 303.203125 28.65625 Z M 303.203125 28.199219 C 303.671875 28.199219 304.039062 28.351562 304.308594 28.65625 C 304.574219 28.960938 304.710938 29.382812 304.710938 29.921875 C 304.710938 30.460938 304.574219 30.878906 304.308594 31.1875 C 304.039062 31.492188 303.671875 31.644531 303.203125 31.644531 C 302.734375 31.644531 302.363281 31.492188 302.097656 31.1875 C 301.832031 30.878906 301.699219 30.460938 301.699219 29.921875 C 301.699219 29.382812 301.832031 28.960938 302.097656 28.65625 C 302.363281 28.351562 302.734375 28.199219 303.203125 28.199219 Z M 303.203125 28.199219 " /><path style=" stroke:none;fill-rule:nonzero;fill:rgb(0%,0%,0%);fill-opacity:1;" d="M 307.695312 28.375 L 307.695312 28.886719 C 307.542969 28.808594 307.382812 28.75 307.21875 28.710938 C 307.054688 28.671875 306.886719 28.652344 306.710938 28.652344 C 306.441406 28.652344 306.242188 28.691406 306.109375 28.773438 C 305.976562 28.855469 305.90625 28.980469 305.90625 29.144531 C 305.90625 29.269531 305.957031 29.367188 306.050781 29.4375 C 306.148438 29.507812 306.339844 29.578125 306.628906 29.640625 L 306.8125 29.683594 C 307.195312 29.765625 307.46875 29.878906 307.628906 30.027344 C 307.789062 30.179688 307.871094 30.386719 307.871094 30.65625 C 307.871094 30.960938 307.75 31.199219 307.507812 31.378906 C 307.269531 31.554688 306.9375 31.644531 306.515625 31.644531 C 306.339844 31.644531 306.15625 31.628906 305.964844 31.59375 C 305.773438 31.558594 305.574219 31.507812 305.363281 31.441406 L 305.363281 30.882812 C 305.5625 30.988281 305.757812 31.066406 305.953125 31.117188 C 306.144531 31.167969 306.335938 31.195312 306.527344 31.195312 C 306.78125 31.195312 306.976562 31.148438 307.113281 31.0625 C 307.25 30.976562 307.316406 30.855469 307.316406 30.695312 C 307.316406 30.550781 307.265625 30.4375 307.167969 30.359375 C 307.070312 30.28125 306.855469 30.207031 306.519531 30.132812 L 306.332031 30.089844 C 306 30.019531 305.757812 29.910156 305.609375 29.765625 C 305.460938 29.621094 305.386719 29.421875 305.386719 29.167969 C 305.386719 28.859375 305.496094 28.621094 305.714844 28.453125 C 305.933594 28.285156 306.242188 28.199219 306.648438 28.199219 C 306.84375 28.199219 307.03125 28.214844 307.207031 28.242188 C 307.382812 28.273438 307.546875 28.316406 307.695312 28.375 Z M 307.695312 28.375 " /><path style=" stroke:none;fill-rule:nonzero;fill:rgb(0%,0%,0%);fill-opacity:1;" d="M 310.820312 28.375 L 310.820312 28.886719 C 310.667969 28.808594 310.511719 28.75 310.347656 28.710938 C 310.183594 28.671875 310.011719 28.652344 309.835938 28.652344 C 309.570312 28.652344 309.367188 28.691406 309.234375 28.773438 C 309.101562 28.855469 309.035156 28.980469 309.035156 29.144531 C 309.035156 29.269531 309.082031 29.367188 309.175781 29.4375 C 309.273438 29.507812 309.464844 29.578125 309.753906 29.640625 L 309.941406 29.683594 C 310.320312 29.765625 310.59375 29.878906 310.753906 30.027344 C 310.917969 30.179688 310.996094 30.386719 310.996094 30.65625 C 310.996094 30.960938 310.875 31.199219 310.636719 31.378906 C 310.394531 31.554688 310.0625 31.644531 309.640625 31.644531 C 309.464844 31.644531 309.28125 31.628906 309.089844 31.59375 C 308.902344 31.558594 308.699219 31.507812 308.488281 31.441406 L 308.488281 30.882812 C 308.6875 30.988281 308.886719 31.066406 309.078125 31.117188 C 309.269531 31.167969 309.460938 31.195312 309.652344 31.195312 C 309.90625 31.195312 310.101562 31.148438 310.238281 31.0625 C 310.375 30.976562 310.441406 30.855469 310.441406 30.695312 C 310.441406 30.550781 310.394531 30.4375 310.292969 30.359375 C 310.195312 30.28125 309.980469 30.207031 309.644531 30.132812 L 309.457031 30.089844 C 309.125 30.019531 308.882812 29.910156 308.734375 29.765625 C 308.585938 29.621094 308.511719 29.421875 308.511719 29.167969 C 308.511719 28.859375 308.621094 28.621094 308.839844 28.453125 C 309.058594 28.285156 309.371094 28.199219 309.773438 28.199219 C 309.972656 28.199219 310.160156 28.214844 310.335938 28.242188 C 310.511719 28.273438 310.671875 28.316406 310.820312 28.375 Z M 310.820312 28.375 " /><use xlink:href="#surface5" mask="url(#mask0)" /><path style="fill:none;stroke-width:1.5;stroke-linecap:square;stroke-linejoin:round;stroke:rgb(12.156863%,46.666667%,70.588235%);stroke-opacity:1;stroke-miterlimit:4;" d="M 153 82.21875 L 173 82.21875 " transform="matrix(0.5,0,0,0.5,0,0)" /><path style=" stroke:none;fill-rule:nonzero;fill:rgb(0%,0%,0%);fill-opacity:1;" d="M 91.414062 39.347656 L 91.414062 40.125 L 92.339844 40.125 L 92.339844 40.472656 L 91.414062 40.472656 L 91.414062 41.957031 C 91.414062 42.179688 91.445312 42.324219 91.507812 42.386719 C 91.566406 42.453125 91.691406 42.484375 91.878906 42.484375 L 92.339844 42.484375 L 92.339844 42.859375 L 91.878906 42.859375 C 91.53125 42.859375 91.292969 42.792969 91.160156 42.664062 C 91.03125 42.535156 90.964844 42.300781 90.964844 41.957031 L 90.964844 40.472656 L 90.632812 40.472656 L 90.632812 40.125 L 90.964844 40.125 L 90.964844 39.347656 Z M 91.414062 39.347656 " /><path style=" stroke:none;fill-rule:nonzero;fill:rgb(0%,0%,0%);fill-opacity:1;" d="M 94.515625 40.542969 C 94.464844 40.515625 94.410156 40.492188 94.351562 40.480469 C 94.292969 40.464844 94.226562 40.460938 94.15625 40.460938 C 93.902344 40.460938 93.707031 40.542969 93.570312 40.707031 C 93.433594 40.871094 93.367188 41.109375 93.367188 41.417969 L 93.367188 42.859375 L 92.914062 42.859375 L 92.914062 40.125 L 93.367188 40.125 L 93.367188 40.550781 C 93.460938 40.382812 93.582031 40.261719 93.734375 40.179688 C 93.886719 40.097656 94.070312 40.058594 94.285156 40.058594 C 94.316406 40.058594 94.351562 40.0625 94.390625 40.066406 C 94.425781 40.070312 94.46875 40.074219 94.511719 40.082031 Z M 94.515625 40.542969 " /><path style=" stroke:none;fill-rule:nonzero;fill:rgb(0%,0%,0%);fill-opacity:1;" d="M 96.230469 41.484375 C 95.867188 41.484375 95.617188 41.527344 95.476562 41.609375 C 95.335938 41.691406 95.265625 41.832031 95.265625 42.035156 C 95.265625 42.195312 95.316406 42.320312 95.421875 42.414062 C 95.527344 42.507812 95.671875 42.554688 95.851562 42.554688 C 96.101562 42.554688 96.300781 42.464844 96.453125 42.289062 C 96.601562 42.113281 96.675781 41.878906 96.675781 41.585938 L 96.675781 41.484375 Z M 97.125 41.300781 L 97.125 42.859375 L 96.675781 42.859375 L 96.675781 42.445312 C 96.574219 42.609375 96.445312 42.730469 96.292969 42.8125 C 96.140625 42.890625 95.953125 42.929688 95.730469 42.929688 C 95.453125 42.929688 95.230469 42.851562 95.0625 42.695312 C 94.898438 42.535156 94.816406 42.328125 94.816406 42.0625 C 94.816406 41.753906 94.917969 41.523438 95.125 41.367188 C 95.332031 41.210938 95.636719 41.132812 96.046875 41.132812 L 96.675781 41.132812 L 96.675781 41.089844 C 96.675781 40.882812 96.609375 40.722656 96.472656 40.609375 C 96.335938 40.496094 96.144531 40.441406 95.902344 40.441406 C 95.746094 40.441406 95.59375 40.457031 95.445312 40.496094 C 95.296875 40.535156 95.152344 40.589844 95.015625 40.664062 L 95.015625 40.25 C 95.179688 40.183594 95.339844 40.136719 95.496094 40.105469 C 95.648438 40.074219 95.800781 40.058594 95.945312 40.058594 C 96.34375 40.058594 96.636719 40.160156 96.832031 40.367188 C 97.027344 40.570312 97.125 40.882812 97.125 41.300781 Z M 97.125 41.300781 " /><path style=" stroke:none;fill-rule:nonzero;fill:rgb(0%,0%,0%);fill-opacity:1;" d="M 98.050781 40.125 L 98.5 40.125 L 98.5 42.859375 L 98.050781 42.859375 Z M 98.050781 39.058594 L 98.5 39.058594 L 98.5 39.628906 L 98.050781 39.628906 Z M 98.050781 39.058594 " /><path style=" stroke:none;fill-rule:nonzero;fill:rgb(0%,0%,0%);fill-opacity:1;" d="M 101.714844 41.207031 L 101.714844 42.859375 L 101.265625 42.859375 L 101.265625 41.222656 C 101.265625 40.964844 101.214844 40.769531 101.113281 40.644531 C 101.011719 40.515625 100.859375 40.449219 100.660156 40.449219 C 100.417969 40.449219 100.226562 40.527344 100.085938 40.683594 C 99.945312 40.835938 99.875 41.046875 99.875 41.3125 L 99.875 42.859375 L 99.421875 42.859375 L 99.421875 40.125 L 99.875 40.125 L 99.875 40.550781 C 99.984375 40.386719 100.109375 40.261719 100.253906 40.179688 C 100.398438 40.101562 100.570312 40.058594 100.757812 40.058594 C 101.074219 40.058594 101.3125 40.15625 101.472656 40.351562 C 101.632812 40.542969 101.714844 40.832031 101.714844 41.207031 Z M 101.714844 41.207031 " /></g></svg>